<?xml version="1.0" encoding="utf-8" standalone="no"?>
<!DOCTYPE svg PUBLIC "-//W3C//DTD SVG 1.1//EN"
  "http://www.w3.org/Graphics/SVG/1.1/DTD/svg11.dtd">
<svg xmlns:xlink="http://www.w3.org/1999/xlink" width="773.136774pt" height="301.032pt" viewBox="0 0 773.136774 301.032" xmlns="http://www.w3.org/2000/svg" version="1.1">
 <metadata>
  <rdf:RDF xmlns:dc="http://purl.org/dc/elements/1.1/" xmlns:cc="http://creativecommons.org/ns#" xmlns:rdf="http://www.w3.org/1999/02/22-rdf-syntax-ns#">
   <cc:Work>
    <dc:type rdf:resource="http://purl.org/dc/dcmitype/StillImage"/>
    <dc:date>2026-07-18T09:53:41.780219</dc:date>
    <dc:format>image/svg+xml</dc:format>
    <dc:creator>
     <cc:Agent>
      <dc:title>Matplotlib v3.10.9, https://matplotlib.org/</dc:title>
     </cc:Agent>
    </dc:creator>
   </cc:Work>
  </rdf:RDF>
 </metadata>
 <defs>
  <style type="text/css">*{stroke-linejoin: round; stroke-linecap: butt}</style>
 </defs>
 <g id="figure_1">
  <g id="patch_1">
   <path d="M 0 301.032 
L 773.136774 301.032 
L 773.136774 -0 
L 0 -0 
z
" style="fill: #ffffff"/>
  </g>
  <g id="axes_1">
   <g id="patch_2">
    <path d="M 71.895484 128.499097 
L 102.805548 128.499097 
L 102.805548 97.589032 
L 71.895484 97.589032 
z
" clip-path="url(#p3cbb7b9214)" style="fill: #aed6f1; stroke: #1a6a9a; stroke-linejoin: miter"/>
   </g>
   <g id="patch_3">
    <path d="M 107.837419 128.499097 
L 138.747484 128.499097 
L 138.747484 97.589032 
L 107.837419 97.589032 
z
" clip-path="url(#p3cbb7b9214)" style="fill: #aed6f1; stroke: #1a6a9a; stroke-linejoin: miter"/>
   </g>
   <g id="patch_4">
    <path d="M 143.779355 128.499097 
L 174.689419 128.499097 
L 174.689419 97.589032 
L 143.779355 97.589032 
z
" clip-path="url(#p3cbb7b9214)" style="fill: #eaf2f8; stroke: #1a6a9a; stroke-linejoin: miter"/>
   </g>
   <g id="patch_5">
    <path d="M 179.72129 128.499097 
L 210.631355 128.499097 
L 210.631355 97.589032 
L 179.72129 97.589032 
z
" clip-path="url(#p3cbb7b9214)" style="fill: #eaf2f8; stroke: #1a6a9a; stroke-linejoin: miter"/>
   </g>
   <g id="patch_6">
    <path d="M 71.895484 164.441032 
L 102.805548 164.441032 
L 102.805548 133.530968 
L 71.895484 133.530968 
z
" clip-path="url(#p3cbb7b9214)" style="fill: #aed6f1; stroke: #1a6a9a; stroke-linejoin: miter"/>
   </g>
   <g id="patch_7">
    <path d="M 107.837419 164.441032 
L 138.747484 164.441032 
L 138.747484 133.530968 
L 107.837419 133.530968 
z
" clip-path="url(#p3cbb7b9214)" style="fill: #eaf2f8; stroke: #1a6a9a; stroke-linejoin: miter"/>
   </g>
   <g id="patch_8">
    <path d="M 143.779355 164.441032 
L 174.689419 164.441032 
L 174.689419 133.530968 
L 143.779355 133.530968 
z
" clip-path="url(#p3cbb7b9214)" style="fill: #eaf2f8; stroke: #1a6a9a; stroke-linejoin: miter"/>
   </g>
   <g id="patch_9">
    <path d="M 179.72129 164.441032 
L 210.631355 164.441032 
L 210.631355 133.530968 
L 179.72129 133.530968 
z
" clip-path="url(#p3cbb7b9214)" style="fill: #eaf2f8; stroke: #1a6a9a; stroke-linejoin: miter"/>
   </g>
   <g id="patch_10">
    <path d="M 71.895484 200.382968 
L 102.805548 200.382968 
L 102.805548 169.472903 
L 71.895484 169.472903 
z
" clip-path="url(#p3cbb7b9214)" style="fill: #eaf2f8; stroke: #1a6a9a; stroke-linejoin: miter"/>
   </g>
   <g id="patch_11">
    <path d="M 107.837419 200.382968 
L 138.747484 200.382968 
L 138.747484 169.472903 
L 107.837419 169.472903 
z
" clip-path="url(#p3cbb7b9214)" style="fill: #eaf2f8; stroke: #1a6a9a; stroke-linejoin: miter"/>
   </g>
   <g id="patch_12">
    <path d="M 143.779355 200.382968 
L 174.689419 200.382968 
L 174.689419 169.472903 
L 143.779355 169.472903 
z
" clip-path="url(#p3cbb7b9214)" style="fill: #eaf2f8; stroke: #1a6a9a; stroke-linejoin: miter"/>
   </g>
   <g id="patch_13">
    <path d="M 179.72129 200.382968 
L 210.631355 200.382968 
L 210.631355 169.472903 
L 179.72129 169.472903 
z
" clip-path="url(#p3cbb7b9214)" style="fill: #eaf2f8; stroke: #1a6a9a; stroke-linejoin: miter"/>
   </g>
   <g id="patch_14">
    <path d="M 71.895484 236.324903 
L 102.805548 236.324903 
L 102.805548 205.414839 
L 71.895484 205.414839 
z
" clip-path="url(#p3cbb7b9214)" style="fill: #eaf2f8; stroke: #1a6a9a; stroke-linejoin: miter"/>
   </g>
   <g id="patch_15">
    <path d="M 107.837419 236.324903 
L 138.747484 236.324903 
L 138.747484 205.414839 
L 107.837419 205.414839 
z
" clip-path="url(#p3cbb7b9214)" style="fill: #eaf2f8; stroke: #1a6a9a; stroke-linejoin: miter"/>
   </g>
   <g id="patch_16">
    <path d="M 143.779355 236.324903 
L 174.689419 236.324903 
L 174.689419 205.414839 
L 143.779355 205.414839 
z
" clip-path="url(#p3cbb7b9214)" style="fill: #eaf2f8; stroke: #1a6a9a; stroke-linejoin: miter"/>
   </g>
   <g id="patch_17">
    <path d="M 179.72129 236.324903 
L 210.631355 236.324903 
L 210.631355 205.414839 
L 179.72129 205.414839 
z
" clip-path="url(#p3cbb7b9214)" style="fill: #eaf2f8; stroke: #1a6a9a; stroke-linejoin: miter"/>
   </g>
   <g id="text_1">
    <!-- w -->
    <g style="fill: #333333" transform="translate(84.079266 115.251565) scale(0.08 -0.08)">
     <defs>
      <path id="DejaVuSans-77" d="M 269 3500 
L 844 3500 
L 1563 769 
L 2278 3500 
L 2956 3500 
L 3675 769 
L 4391 3500 
L 4966 3500 
L 4050 0 
L 3372 0 
L 2619 2869 
L 1863 0 
L 1184 0 
L 269 3500 
z
" transform="scale(0.015625)"/>
     </defs>
     <use xlink:href="#DejaVuSans-77"/>
    </g>
   </g>
   <g id="text_2">
    <!-- w -->
    <g style="fill: #333333" transform="translate(120.021202 115.251565) scale(0.08 -0.08)">
     <use xlink:href="#DejaVuSans-77"/>
    </g>
   </g>
   <g id="text_3">
    <!-- w -->
    <g style="fill: #333333" transform="translate(155.963137 115.251565) scale(0.08 -0.08)">
     <use xlink:href="#DejaVuSans-77"/>
    </g>
   </g>
   <g id="text_4">
    <!-- w -->
    <g style="fill: #333333" transform="translate(191.905073 115.251565) scale(0.08 -0.08)">
     <use xlink:href="#DejaVuSans-77"/>
    </g>
   </g>
   <g id="text_5">
    <!-- w -->
    <g style="fill: #333333" transform="translate(84.079266 151.1935) scale(0.08 -0.08)">
     <use xlink:href="#DejaVuSans-77"/>
    </g>
   </g>
   <g id="text_6">
    <!-- w -->
    <g style="fill: #333333" transform="translate(120.021202 151.1935) scale(0.08 -0.08)">
     <use xlink:href="#DejaVuSans-77"/>
    </g>
   </g>
   <g id="text_7">
    <!-- w -->
    <g style="fill: #333333" transform="translate(155.963137 151.1935) scale(0.08 -0.08)">
     <use xlink:href="#DejaVuSans-77"/>
    </g>
   </g>
   <g id="text_8">
    <!-- w -->
    <g style="fill: #333333" transform="translate(191.905073 151.1935) scale(0.08 -0.08)">
     <use xlink:href="#DejaVuSans-77"/>
    </g>
   </g>
   <g id="text_9">
    <!-- w -->
    <g style="fill: #333333" transform="translate(84.079266 187.135435) scale(0.08 -0.08)">
     <use xlink:href="#DejaVuSans-77"/>
    </g>
   </g>
   <g id="text_10">
    <!-- w -->
    <g style="fill: #333333" transform="translate(120.021202 187.135435) scale(0.08 -0.08)">
     <use xlink:href="#DejaVuSans-77"/>
    </g>
   </g>
   <g id="text_11">
    <!-- w -->
    <g style="fill: #333333" transform="translate(155.963137 187.135435) scale(0.08 -0.08)">
     <use xlink:href="#DejaVuSans-77"/>
    </g>
   </g>
   <g id="text_12">
    <!-- w -->
    <g style="fill: #333333" transform="translate(191.905073 187.135435) scale(0.08 -0.08)">
     <use xlink:href="#DejaVuSans-77"/>
    </g>
   </g>
   <g id="text_13">
    <!-- w -->
    <g style="fill: #333333" transform="translate(84.079266 223.077371) scale(0.08 -0.08)">
     <use xlink:href="#DejaVuSans-77"/>
    </g>
   </g>
   <g id="text_14">
    <!-- w -->
    <g style="fill: #333333" transform="translate(120.021202 223.077371) scale(0.08 -0.08)">
     <use xlink:href="#DejaVuSans-77"/>
    </g>
   </g>
   <g id="text_15">
    <!-- w -->
    <g style="fill: #333333" transform="translate(155.963137 223.077371) scale(0.08 -0.08)">
     <use xlink:href="#DejaVuSans-77"/>
    </g>
   </g>
   <g id="text_16">
    <!-- w -->
    <g style="fill: #333333" transform="translate(191.905073 223.077371) scale(0.08 -0.08)">
     <use xlink:href="#DejaVuSans-77"/>
    </g>
   </g>
   <g id="patch_18">
    <path d="M 37.953784 113.044065 
Q 52.847269 113.044065 66.175506 113.044065 
" style="fill: none; stroke: #1e8449; stroke-width: 1.4; stroke-linecap: round"/>
    <path d="M 62.575506 111.244065 
L 66.175506 113.044065 
L 62.575506 114.844065 
" style="fill: none; stroke: #1e8449; stroke-width: 1.4; stroke-linecap: round"/>
   </g>
   <g id="patch_19">
    <path d="M 37.953784 148.986 
Q 52.847269 148.986 66.175506 148.986 
" style="fill: none; stroke: #1e8449; stroke-width: 1.4; stroke-linecap: round"/>
    <path d="M 62.575506 147.186 
L 66.175506 148.986 
L 62.575506 150.786 
" style="fill: none; stroke: #1e8449; stroke-width: 1.4; stroke-linecap: round"/>
   </g>
   <g id="patch_20">
    <path d="M 37.953784 184.927935 
Q 52.847269 184.927935 66.175506 184.927935 
" style="fill: none; stroke: #1e8449; stroke-width: 1.4; stroke-linecap: round"/>
    <path d="M 62.575506 183.127935 
L 66.175506 184.927935 
L 62.575506 186.727935 
" style="fill: none; stroke: #1e8449; stroke-width: 1.4; stroke-linecap: round"/>
   </g>
   <g id="patch_21">
    <path d="M 37.953784 220.869871 
Q 52.847269 220.869871 66.175506 220.869871 
" style="fill: none; stroke: #1e8449; stroke-width: 1.4; stroke-linecap: round"/>
    <path d="M 62.575506 219.069871 
L 66.175506 220.869871 
L 62.575506 222.669871 
" style="fill: none; stroke: #1e8449; stroke-width: 1.4; stroke-linecap: round"/>
   </g>
   <g id="text_17">
    <!-- activations -->
    <g style="fill: #1e8449" transform="translate(15.852932 184.967009) rotate(-90) scale(0.075 -0.075)">
     <defs>
      <path id="DejaVuSans-61" d="M 2194 1759 
Q 1497 1759 1228 1600 
Q 959 1441 959 1056 
Q 959 750 1161 570 
Q 1363 391 1709 391 
Q 2188 391 2477 730 
Q 2766 1069 2766 1631 
L 2766 1759 
L 2194 1759 
z
M 3341 1997 
L 3341 0 
L 2766 0 
L 2766 531 
Q 2569 213 2275 61 
Q 1981 -91 1556 -91 
Q 1019 -91 701 211 
Q 384 513 384 1019 
Q 384 1609 779 1909 
Q 1175 2209 1959 2209 
L 2766 2209 
L 2766 2266 
Q 2766 2663 2505 2880 
Q 2244 3097 1772 3097 
Q 1472 3097 1187 3025 
Q 903 2953 641 2809 
L 641 3341 
Q 956 3463 1253 3523 
Q 1550 3584 1831 3584 
Q 2591 3584 2966 3190 
Q 3341 2797 3341 1997 
z
" transform="scale(0.015625)"/>
      <path id="DejaVuSans-63" d="M 3122 3366 
L 3122 2828 
Q 2878 2963 2633 3030 
Q 2388 3097 2138 3097 
Q 1578 3097 1268 2742 
Q 959 2388 959 1747 
Q 959 1106 1268 751 
Q 1578 397 2138 397 
Q 2388 397 2633 464 
Q 2878 531 3122 666 
L 3122 134 
Q 2881 22 2623 -34 
Q 2366 -91 2075 -91 
Q 1284 -91 818 406 
Q 353 903 353 1747 
Q 353 2603 823 3093 
Q 1294 3584 2113 3584 
Q 2378 3584 2631 3529 
Q 2884 3475 3122 3366 
z
" transform="scale(0.015625)"/>
      <path id="DejaVuSans-74" d="M 1172 4494 
L 1172 3500 
L 2356 3500 
L 2356 3053 
L 1172 3053 
L 1172 1153 
Q 1172 725 1289 603 
Q 1406 481 1766 481 
L 2356 481 
L 2356 0 
L 1766 0 
Q 1100 0 847 248 
Q 594 497 594 1153 
L 594 3053 
L 172 3053 
L 172 3500 
L 594 3500 
L 594 4494 
L 1172 4494 
z
" transform="scale(0.015625)"/>
      <path id="DejaVuSans-69" d="M 603 3500 
L 1178 3500 
L 1178 0 
L 603 0 
L 603 3500 
z
M 603 4863 
L 1178 4863 
L 1178 4134 
L 603 4134 
L 603 4863 
z
" transform="scale(0.015625)"/>
      <path id="DejaVuSans-76" d="M 191 3500 
L 800 3500 
L 1894 563 
L 2988 3500 
L 3597 3500 
L 2284 0 
L 1503 0 
L 191 3500 
z
" transform="scale(0.015625)"/>
      <path id="DejaVuSans-6f" d="M 1959 3097 
Q 1497 3097 1228 2736 
Q 959 2375 959 1747 
Q 959 1119 1226 758 
Q 1494 397 1959 397 
Q 2419 397 2687 759 
Q 2956 1122 2956 1747 
Q 2956 2369 2687 2733 
Q 2419 3097 1959 3097 
z
M 1959 3584 
Q 2709 3584 3137 3096 
Q 3566 2609 3566 1747 
Q 3566 888 3137 398 
Q 2709 -91 1959 -91 
Q 1206 -91 779 398 
Q 353 888 353 1747 
Q 353 2609 779 3096 
Q 1206 3584 1959 3584 
z
" transform="scale(0.015625)"/>
      <path id="DejaVuSans-6e" d="M 3513 2113 
L 3513 0 
L 2938 0 
L 2938 2094 
Q 2938 2591 2744 2837 
Q 2550 3084 2163 3084 
Q 1697 3084 1428 2787 
Q 1159 2491 1159 1978 
L 1159 0 
L 581 0 
L 581 3500 
L 1159 3500 
L 1159 2956 
Q 1366 3272 1645 3428 
Q 1925 3584 2291 3584 
Q 2894 3584 3203 3211 
Q 3513 2838 3513 2113 
z
" transform="scale(0.015625)"/>
      <path id="DejaVuSans-73" d="M 2834 3397 
L 2834 2853 
Q 2591 2978 2328 3040 
Q 2066 3103 1784 3103 
Q 1356 3103 1142 2972 
Q 928 2841 928 2578 
Q 928 2378 1081 2264 
Q 1234 2150 1697 2047 
L 1894 2003 
Q 2506 1872 2764 1633 
Q 3022 1394 3022 966 
Q 3022 478 2636 193 
Q 2250 -91 1575 -91 
Q 1294 -91 989 -36 
Q 684 19 347 128 
L 347 722 
Q 666 556 975 473 
Q 1284 391 1588 391 
Q 1994 391 2212 530 
Q 2431 669 2431 922 
Q 2431 1156 2273 1281 
Q 2116 1406 1581 1522 
L 1381 1569 
Q 847 1681 609 1914 
Q 372 2147 372 2553 
Q 372 3047 722 3315 
Q 1072 3584 1716 3584 
Q 2034 3584 2315 3537 
Q 2597 3491 2834 3397 
z
" transform="scale(0.015625)"/>
     </defs>
     <use xlink:href="#DejaVuSans-61"/>
     <use xlink:href="#DejaVuSans-63" transform="translate(61.279297 0)"/>
     <use xlink:href="#DejaVuSans-74" transform="translate(116.259766 0)"/>
     <use xlink:href="#DejaVuSans-69" transform="translate(155.46875 0)"/>
     <use xlink:href="#DejaVuSans-76" transform="translate(183.251953 0)"/>
     <use xlink:href="#DejaVuSans-61" transform="translate(242.431641 0)"/>
     <use xlink:href="#DejaVuSans-74" transform="translate(303.710938 0)"/>
     <use xlink:href="#DejaVuSans-69" transform="translate(342.919922 0)"/>
     <use xlink:href="#DejaVuSans-6f" transform="translate(370.703125 0)"/>
     <use xlink:href="#DejaVuSans-6e" transform="translate(431.884766 0)"/>
     <use xlink:href="#DejaVuSans-73" transform="translate(495.263672 0)"/>
    </g>
    <!-- stream in -->
    <g style="fill: #1e8449" transform="translate(24.251292 182.190251) rotate(-90) scale(0.075 -0.075)">
     <defs>
      <path id="DejaVuSans-72" d="M 2631 2963 
Q 2534 3019 2420 3045 
Q 2306 3072 2169 3072 
Q 1681 3072 1420 2755 
Q 1159 2438 1159 1844 
L 1159 0 
L 581 0 
L 581 3500 
L 1159 3500 
L 1159 2956 
Q 1341 3275 1631 3429 
Q 1922 3584 2338 3584 
Q 2397 3584 2469 3576 
Q 2541 3569 2628 3553 
L 2631 2963 
z
" transform="scale(0.015625)"/>
      <path id="DejaVuSans-65" d="M 3597 1894 
L 3597 1613 
L 953 1613 
Q 991 1019 1311 708 
Q 1631 397 2203 397 
Q 2534 397 2845 478 
Q 3156 559 3463 722 
L 3463 178 
Q 3153 47 2828 -22 
Q 2503 -91 2169 -91 
Q 1331 -91 842 396 
Q 353 884 353 1716 
Q 353 2575 817 3079 
Q 1281 3584 2069 3584 
Q 2775 3584 3186 3129 
Q 3597 2675 3597 1894 
z
M 3022 2063 
Q 3016 2534 2758 2815 
Q 2500 3097 2075 3097 
Q 1594 3097 1305 2825 
Q 1016 2553 972 2059 
L 3022 2063 
z
" transform="scale(0.015625)"/>
      <path id="DejaVuSans-6d" d="M 3328 2828 
Q 3544 3216 3844 3400 
Q 4144 3584 4550 3584 
Q 5097 3584 5394 3201 
Q 5691 2819 5691 2113 
L 5691 0 
L 5113 0 
L 5113 2094 
Q 5113 2597 4934 2840 
Q 4756 3084 4391 3084 
Q 3944 3084 3684 2787 
Q 3425 2491 3425 1978 
L 3425 0 
L 2847 0 
L 2847 2094 
Q 2847 2600 2669 2842 
Q 2491 3084 2119 3084 
Q 1678 3084 1418 2786 
Q 1159 2488 1159 1978 
L 1159 0 
L 581 0 
L 581 3500 
L 1159 3500 
L 1159 2956 
Q 1356 3278 1631 3431 
Q 1906 3584 2284 3584 
Q 2666 3584 2933 3390 
Q 3200 3197 3328 2828 
z
" transform="scale(0.015625)"/>
      <path id="DejaVuSans-20" transform="scale(0.015625)"/>
     </defs>
     <use xlink:href="#DejaVuSans-73"/>
     <use xlink:href="#DejaVuSans-74" transform="translate(52.099609 0)"/>
     <use xlink:href="#DejaVuSans-72" transform="translate(91.308594 0)"/>
     <use xlink:href="#DejaVuSans-65" transform="translate(130.171875 0)"/>
     <use xlink:href="#DejaVuSans-61" transform="translate(191.695312 0)"/>
     <use xlink:href="#DejaVuSans-6d" transform="translate(252.974609 0)"/>
     <use xlink:href="#DejaVuSans-20" transform="translate(350.386719 0)"/>
     <use xlink:href="#DejaVuSans-69" transform="translate(382.173828 0)"/>
     <use xlink:href="#DejaVuSans-6e" transform="translate(409.957031 0)"/>
    </g>
   </g>
   <g id="patch_22">
    <path d="M 87.350516 241.1983 
Q 87.350516 255.733233 87.350516 268.702919 
" style="fill: none; stroke: #b03a2e; stroke-width: 1.4; stroke-linecap: round"/>
    <path d="M 89.150516 265.102919 
L 87.350516 268.702919 
L 85.550516 265.102919 
" style="fill: none; stroke: #b03a2e; stroke-width: 1.4; stroke-linecap: round"/>
   </g>
   <g id="patch_23">
    <path d="M 123.292452 241.1983 
Q 123.292452 255.733233 123.292452 268.702919 
" style="fill: none; stroke: #b03a2e; stroke-width: 1.4; stroke-linecap: round"/>
    <path d="M 125.092452 265.102919 
L 123.292452 268.702919 
L 121.492452 265.102919 
" style="fill: none; stroke: #b03a2e; stroke-width: 1.4; stroke-linecap: round"/>
   </g>
   <g id="patch_24">
    <path d="M 159.234387 241.1983 
Q 159.234387 255.733233 159.234387 268.702919 
" style="fill: none; stroke: #b03a2e; stroke-width: 1.4; stroke-linecap: round"/>
    <path d="M 161.034387 265.102919 
L 159.234387 268.702919 
L 157.434387 265.102919 
" style="fill: none; stroke: #b03a2e; stroke-width: 1.4; stroke-linecap: round"/>
   </g>
   <g id="patch_25">
    <path d="M 195.176323 241.1983 
Q 195.176323 255.733233 195.176323 268.702919 
" style="fill: none; stroke: #b03a2e; stroke-width: 1.4; stroke-linecap: round"/>
    <path d="M 196.976323 265.102919 
L 195.176323 268.702919 
L 193.376323 265.102919 
" style="fill: none; stroke: #b03a2e; stroke-width: 1.4; stroke-linecap: round"/>
   </g>
   <g id="text_18">
    <!-- partial sums flow down; results exit staggered -->
    <g style="fill: #b03a2e" transform="translate(57.045956 288.44071) scale(0.075 -0.075)">
     <defs>
      <path id="DejaVuSans-70" d="M 1159 525 
L 1159 -1331 
L 581 -1331 
L 581 3500 
L 1159 3500 
L 1159 2969 
Q 1341 3281 1617 3432 
Q 1894 3584 2278 3584 
Q 2916 3584 3314 3078 
Q 3713 2572 3713 1747 
Q 3713 922 3314 415 
Q 2916 -91 2278 -91 
Q 1894 -91 1617 61 
Q 1341 213 1159 525 
z
M 3116 1747 
Q 3116 2381 2855 2742 
Q 2594 3103 2138 3103 
Q 1681 3103 1420 2742 
Q 1159 2381 1159 1747 
Q 1159 1113 1420 752 
Q 1681 391 2138 391 
Q 2594 391 2855 752 
Q 3116 1113 3116 1747 
z
" transform="scale(0.015625)"/>
      <path id="DejaVuSans-6c" d="M 603 4863 
L 1178 4863 
L 1178 0 
L 603 0 
L 603 4863 
z
" transform="scale(0.015625)"/>
      <path id="DejaVuSans-75" d="M 544 1381 
L 544 3500 
L 1119 3500 
L 1119 1403 
Q 1119 906 1312 657 
Q 1506 409 1894 409 
Q 2359 409 2629 706 
Q 2900 1003 2900 1516 
L 2900 3500 
L 3475 3500 
L 3475 0 
L 2900 0 
L 2900 538 
Q 2691 219 2414 64 
Q 2138 -91 1772 -91 
Q 1169 -91 856 284 
Q 544 659 544 1381 
z
M 1991 3584 
L 1991 3584 
z
" transform="scale(0.015625)"/>
      <path id="DejaVuSans-66" d="M 2375 4863 
L 2375 4384 
L 1825 4384 
Q 1516 4384 1395 4259 
Q 1275 4134 1275 3809 
L 1275 3500 
L 2222 3500 
L 2222 3053 
L 1275 3053 
L 1275 0 
L 697 0 
L 697 3053 
L 147 3053 
L 147 3500 
L 697 3500 
L 697 3744 
Q 697 4328 969 4595 
Q 1241 4863 1831 4863 
L 2375 4863 
z
" transform="scale(0.015625)"/>
      <path id="DejaVuSans-64" d="M 2906 2969 
L 2906 4863 
L 3481 4863 
L 3481 0 
L 2906 0 
L 2906 525 
Q 2725 213 2448 61 
Q 2172 -91 1784 -91 
Q 1150 -91 751 415 
Q 353 922 353 1747 
Q 353 2572 751 3078 
Q 1150 3584 1784 3584 
Q 2172 3584 2448 3432 
Q 2725 3281 2906 2969 
z
M 947 1747 
Q 947 1113 1208 752 
Q 1469 391 1925 391 
Q 2381 391 2643 752 
Q 2906 1113 2906 1747 
Q 2906 2381 2643 2742 
Q 2381 3103 1925 3103 
Q 1469 3103 1208 2742 
Q 947 2381 947 1747 
z
" transform="scale(0.015625)"/>
      <path id="DejaVuSans-3b" d="M 750 3309 
L 1409 3309 
L 1409 2516 
L 750 2516 
L 750 3309 
z
M 750 794 
L 1409 794 
L 1409 256 
L 897 -744 
L 494 -744 
L 750 256 
L 750 794 
z
" transform="scale(0.015625)"/>
      <path id="DejaVuSans-78" d="M 3513 3500 
L 2247 1797 
L 3578 0 
L 2900 0 
L 1881 1375 
L 863 0 
L 184 0 
L 1544 1831 
L 300 3500 
L 978 3500 
L 1906 2253 
L 2834 3500 
L 3513 3500 
z
" transform="scale(0.015625)"/>
      <path id="DejaVuSans-67" d="M 2906 1791 
Q 2906 2416 2648 2759 
Q 2391 3103 1925 3103 
Q 1463 3103 1205 2759 
Q 947 2416 947 1791 
Q 947 1169 1205 825 
Q 1463 481 1925 481 
Q 2391 481 2648 825 
Q 2906 1169 2906 1791 
z
M 3481 434 
Q 3481 -459 3084 -895 
Q 2688 -1331 1869 -1331 
Q 1566 -1331 1297 -1286 
Q 1028 -1241 775 -1147 
L 775 -588 
Q 1028 -725 1275 -790 
Q 1522 -856 1778 -856 
Q 2344 -856 2625 -561 
Q 2906 -266 2906 331 
L 2906 616 
Q 2728 306 2450 153 
Q 2172 0 1784 0 
Q 1141 0 747 490 
Q 353 981 353 1791 
Q 353 2603 747 3093 
Q 1141 3584 1784 3584 
Q 2172 3584 2450 3431 
Q 2728 3278 2906 2969 
L 2906 3500 
L 3481 3500 
L 3481 434 
z
" transform="scale(0.015625)"/>
     </defs>
     <use xlink:href="#DejaVuSans-70"/>
     <use xlink:href="#DejaVuSans-61" transform="translate(63.476562 0)"/>
     <use xlink:href="#DejaVuSans-72" transform="translate(124.755859 0)"/>
     <use xlink:href="#DejaVuSans-74" transform="translate(165.869141 0)"/>
     <use xlink:href="#DejaVuSans-69" transform="translate(205.078125 0)"/>
     <use xlink:href="#DejaVuSans-61" transform="translate(232.861328 0)"/>
     <use xlink:href="#DejaVuSans-6c" transform="translate(294.140625 0)"/>
     <use xlink:href="#DejaVuSans-20" transform="translate(321.923828 0)"/>
     <use xlink:href="#DejaVuSans-73" transform="translate(353.710938 0)"/>
     <use xlink:href="#DejaVuSans-75" transform="translate(405.810547 0)"/>
     <use xlink:href="#DejaVuSans-6d" transform="translate(469.189453 0)"/>
     <use xlink:href="#DejaVuSans-73" transform="translate(566.601562 0)"/>
     <use xlink:href="#DejaVuSans-20" transform="translate(618.701172 0)"/>
     <use xlink:href="#DejaVuSans-66" transform="translate(650.488281 0)"/>
     <use xlink:href="#DejaVuSans-6c" transform="translate(685.693359 0)"/>
     <use xlink:href="#DejaVuSans-6f" transform="translate(713.476562 0)"/>
     <use xlink:href="#DejaVuSans-77" transform="translate(774.658203 0)"/>
     <use xlink:href="#DejaVuSans-20" transform="translate(856.445312 0)"/>
     <use xlink:href="#DejaVuSans-64" transform="translate(888.232422 0)"/>
     <use xlink:href="#DejaVuSans-6f" transform="translate(951.708984 0)"/>
     <use xlink:href="#DejaVuSans-77" transform="translate(1012.890625 0)"/>
     <use xlink:href="#DejaVuSans-6e" transform="translate(1094.677734 0)"/>
     <use xlink:href="#DejaVuSans-3b" transform="translate(1158.056641 0)"/>
     <use xlink:href="#DejaVuSans-20" transform="translate(1191.748047 0)"/>
     <use xlink:href="#DejaVuSans-72" transform="translate(1223.535156 0)"/>
     <use xlink:href="#DejaVuSans-65" transform="translate(1262.398438 0)"/>
     <use xlink:href="#DejaVuSans-73" transform="translate(1323.921875 0)"/>
     <use xlink:href="#DejaVuSans-75" transform="translate(1376.021484 0)"/>
     <use xlink:href="#DejaVuSans-6c" transform="translate(1439.400391 0)"/>
     <use xlink:href="#DejaVuSans-74" transform="translate(1467.183594 0)"/>
     <use xlink:href="#DejaVuSans-73" transform="translate(1506.392578 0)"/>
     <use xlink:href="#DejaVuSans-20" transform="translate(1558.492188 0)"/>
     <use xlink:href="#DejaVuSans-65" transform="translate(1590.279297 0)"/>
     <use xlink:href="#DejaVuSans-78" transform="translate(1650.052734 0)"/>
     <use xlink:href="#DejaVuSans-69" transform="translate(1709.232422 0)"/>
     <use xlink:href="#DejaVuSans-74" transform="translate(1737.015625 0)"/>
     <use xlink:href="#DejaVuSans-20" transform="translate(1776.224609 0)"/>
     <use xlink:href="#DejaVuSans-73" transform="translate(1808.011719 0)"/>
     <use xlink:href="#DejaVuSans-74" transform="translate(1860.111328 0)"/>
     <use xlink:href="#DejaVuSans-61" transform="translate(1899.320312 0)"/>
     <use xlink:href="#DejaVuSans-67" transform="translate(1960.599609 0)"/>
     <use xlink:href="#DejaVuSans-67" transform="translate(2024.076172 0)"/>
     <use xlink:href="#DejaVuSans-65" transform="translate(2087.552734 0)"/>
     <use xlink:href="#DejaVuSans-72" transform="translate(2149.076172 0)"/>
     <use xlink:href="#DejaVuSans-65" transform="translate(2187.939453 0)"/>
     <use xlink:href="#DejaVuSans-64" transform="translate(2249.462891 0)"/>
    </g>
   </g>
   <g id="text_19">
    <!-- cycle t -->
    <g transform="translate(109.335731 64.992) scale(0.1 -0.1)">
     <defs>
      <path id="DejaVuSans-79" d="M 2059 -325 
Q 1816 -950 1584 -1140 
Q 1353 -1331 966 -1331 
L 506 -1331 
L 506 -850 
L 844 -850 
Q 1081 -850 1212 -737 
Q 1344 -625 1503 -206 
L 1606 56 
L 191 3500 
L 800 3500 
L 1894 763 
L 2988 3500 
L 3597 3500 
L 2059 -325 
z
" transform="scale(0.015625)"/>
     </defs>
     <use xlink:href="#DejaVuSans-63"/>
     <use xlink:href="#DejaVuSans-79" transform="translate(54.980469 0)"/>
     <use xlink:href="#DejaVuSans-63" transform="translate(114.160156 0)"/>
     <use xlink:href="#DejaVuSans-6c" transform="translate(169.140625 0)"/>
     <use xlink:href="#DejaVuSans-65" transform="translate(196.923828 0)"/>
     <use xlink:href="#DejaVuSans-20" transform="translate(258.447266 0)"/>
     <use xlink:href="#DejaVuSans-74" transform="translate(290.234375 0)"/>
    </g>
   </g>
  </g>
  <g id="axes_2">
   <g id="patch_26">
    <path d="M 332.655484 128.499097 
L 363.565548 128.499097 
L 363.565548 97.589032 
L 332.655484 97.589032 
z
" clip-path="url(#p78d7fccbe1)" style="fill: #aed6f1; stroke: #1a6a9a; stroke-linejoin: miter"/>
   </g>
   <g id="patch_27">
    <path d="M 368.597419 128.499097 
L 399.507484 128.499097 
L 399.507484 97.589032 
L 368.597419 97.589032 
z
" clip-path="url(#p78d7fccbe1)" style="fill: #aed6f1; stroke: #1a6a9a; stroke-linejoin: miter"/>
   </g>
   <g id="patch_28">
    <path d="M 404.539355 128.499097 
L 435.449419 128.499097 
L 435.449419 97.589032 
L 404.539355 97.589032 
z
" clip-path="url(#p78d7fccbe1)" style="fill: #aed6f1; stroke: #1a6a9a; stroke-linejoin: miter"/>
   </g>
   <g id="patch_29">
    <path d="M 440.48129 128.499097 
L 471.391355 128.499097 
L 471.391355 97.589032 
L 440.48129 97.589032 
z
" clip-path="url(#p78d7fccbe1)" style="fill: #eaf2f8; stroke: #1a6a9a; stroke-linejoin: miter"/>
   </g>
   <g id="patch_30">
    <path d="M 332.655484 164.441032 
L 363.565548 164.441032 
L 363.565548 133.530968 
L 332.655484 133.530968 
z
" clip-path="url(#p78d7fccbe1)" style="fill: #aed6f1; stroke: #1a6a9a; stroke-linejoin: miter"/>
   </g>
   <g id="patch_31">
    <path d="M 368.597419 164.441032 
L 399.507484 164.441032 
L 399.507484 133.530968 
L 368.597419 133.530968 
z
" clip-path="url(#p78d7fccbe1)" style="fill: #aed6f1; stroke: #1a6a9a; stroke-linejoin: miter"/>
   </g>
   <g id="patch_32">
    <path d="M 404.539355 164.441032 
L 435.449419 164.441032 
L 435.449419 133.530968 
L 404.539355 133.530968 
z
" clip-path="url(#p78d7fccbe1)" style="fill: #eaf2f8; stroke: #1a6a9a; stroke-linejoin: miter"/>
   </g>
   <g id="patch_33">
    <path d="M 440.48129 164.441032 
L 471.391355 164.441032 
L 471.391355 133.530968 
L 440.48129 133.530968 
z
" clip-path="url(#p78d7fccbe1)" style="fill: #eaf2f8; stroke: #1a6a9a; stroke-linejoin: miter"/>
   </g>
   <g id="patch_34">
    <path d="M 332.655484 200.382968 
L 363.565548 200.382968 
L 363.565548 169.472903 
L 332.655484 169.472903 
z
" clip-path="url(#p78d7fccbe1)" style="fill: #aed6f1; stroke: #1a6a9a; stroke-linejoin: miter"/>
   </g>
   <g id="patch_35">
    <path d="M 368.597419 200.382968 
L 399.507484 200.382968 
L 399.507484 169.472903 
L 368.597419 169.472903 
z
" clip-path="url(#p78d7fccbe1)" style="fill: #eaf2f8; stroke: #1a6a9a; stroke-linejoin: miter"/>
   </g>
   <g id="patch_36">
    <path d="M 404.539355 200.382968 
L 435.449419 200.382968 
L 435.449419 169.472903 
L 404.539355 169.472903 
z
" clip-path="url(#p78d7fccbe1)" style="fill: #eaf2f8; stroke: #1a6a9a; stroke-linejoin: miter"/>
   </g>
   <g id="patch_37">
    <path d="M 440.48129 200.382968 
L 471.391355 200.382968 
L 471.391355 169.472903 
L 440.48129 169.472903 
z
" clip-path="url(#p78d7fccbe1)" style="fill: #eaf2f8; stroke: #1a6a9a; stroke-linejoin: miter"/>
   </g>
   <g id="patch_38">
    <path d="M 332.655484 236.324903 
L 363.565548 236.324903 
L 363.565548 205.414839 
L 332.655484 205.414839 
z
" clip-path="url(#p78d7fccbe1)" style="fill: #eaf2f8; stroke: #1a6a9a; stroke-linejoin: miter"/>
   </g>
   <g id="patch_39">
    <path d="M 368.597419 236.324903 
L 399.507484 236.324903 
L 399.507484 205.414839 
L 368.597419 205.414839 
z
" clip-path="url(#p78d7fccbe1)" style="fill: #eaf2f8; stroke: #1a6a9a; stroke-linejoin: miter"/>
   </g>
   <g id="patch_40">
    <path d="M 404.539355 236.324903 
L 435.449419 236.324903 
L 435.449419 205.414839 
L 404.539355 205.414839 
z
" clip-path="url(#p78d7fccbe1)" style="fill: #eaf2f8; stroke: #1a6a9a; stroke-linejoin: miter"/>
   </g>
   <g id="patch_41">
    <path d="M 440.48129 236.324903 
L 471.391355 236.324903 
L 471.391355 205.414839 
L 440.48129 205.414839 
z
" clip-path="url(#p78d7fccbe1)" style="fill: #eaf2f8; stroke: #1a6a9a; stroke-linejoin: miter"/>
   </g>
   <g id="text_20">
    <!-- w -->
    <g style="fill: #333333" transform="translate(344.839266 115.251565) scale(0.08 -0.08)">
     <use xlink:href="#DejaVuSans-77"/>
    </g>
   </g>
   <g id="text_21">
    <!-- w -->
    <g style="fill: #333333" transform="translate(380.781202 115.251565) scale(0.08 -0.08)">
     <use xlink:href="#DejaVuSans-77"/>
    </g>
   </g>
   <g id="text_22">
    <!-- w -->
    <g style="fill: #333333" transform="translate(416.723137 115.251565) scale(0.08 -0.08)">
     <use xlink:href="#DejaVuSans-77"/>
    </g>
   </g>
   <g id="text_23">
    <!-- w -->
    <g style="fill: #333333" transform="translate(452.665073 115.251565) scale(0.08 -0.08)">
     <use xlink:href="#DejaVuSans-77"/>
    </g>
   </g>
   <g id="text_24">
    <!-- w -->
    <g style="fill: #333333" transform="translate(344.839266 151.1935) scale(0.08 -0.08)">
     <use xlink:href="#DejaVuSans-77"/>
    </g>
   </g>
   <g id="text_25">
    <!-- w -->
    <g style="fill: #333333" transform="translate(380.781202 151.1935) scale(0.08 -0.08)">
     <use xlink:href="#DejaVuSans-77"/>
    </g>
   </g>
   <g id="text_26">
    <!-- w -->
    <g style="fill: #333333" transform="translate(416.723137 151.1935) scale(0.08 -0.08)">
     <use xlink:href="#DejaVuSans-77"/>
    </g>
   </g>
   <g id="text_27">
    <!-- w -->
    <g style="fill: #333333" transform="translate(452.665073 151.1935) scale(0.08 -0.08)">
     <use xlink:href="#DejaVuSans-77"/>
    </g>
   </g>
   <g id="text_28">
    <!-- w -->
    <g style="fill: #333333" transform="translate(344.839266 187.135435) scale(0.08 -0.08)">
     <use xlink:href="#DejaVuSans-77"/>
    </g>
   </g>
   <g id="text_29">
    <!-- w -->
    <g style="fill: #333333" transform="translate(380.781202 187.135435) scale(0.08 -0.08)">
     <use xlink:href="#DejaVuSans-77"/>
    </g>
   </g>
   <g id="text_30">
    <!-- w -->
    <g style="fill: #333333" transform="translate(416.723137 187.135435) scale(0.08 -0.08)">
     <use xlink:href="#DejaVuSans-77"/>
    </g>
   </g>
   <g id="text_31">
    <!-- w -->
    <g style="fill: #333333" transform="translate(452.665073 187.135435) scale(0.08 -0.08)">
     <use xlink:href="#DejaVuSans-77"/>
    </g>
   </g>
   <g id="text_32">
    <!-- w -->
    <g style="fill: #333333" transform="translate(344.839266 223.077371) scale(0.08 -0.08)">
     <use xlink:href="#DejaVuSans-77"/>
    </g>
   </g>
   <g id="text_33">
    <!-- w -->
    <g style="fill: #333333" transform="translate(380.781202 223.077371) scale(0.08 -0.08)">
     <use xlink:href="#DejaVuSans-77"/>
    </g>
   </g>
   <g id="text_34">
    <!-- w -->
    <g style="fill: #333333" transform="translate(416.723137 223.077371) scale(0.08 -0.08)">
     <use xlink:href="#DejaVuSans-77"/>
    </g>
   </g>
   <g id="text_35">
    <!-- w -->
    <g style="fill: #333333" transform="translate(452.665073 223.077371) scale(0.08 -0.08)">
     <use xlink:href="#DejaVuSans-77"/>
    </g>
   </g>
   <g id="patch_42">
    <path d="M 298.713784 113.044065 
Q 313.607269 113.044065 326.935506 113.044065 
" style="fill: none; stroke: #1e8449; stroke-width: 1.4; stroke-linecap: round"/>
    <path d="M 323.335506 111.244065 
L 326.935506 113.044065 
L 323.335506 114.844065 
" style="fill: none; stroke: #1e8449; stroke-width: 1.4; stroke-linecap: round"/>
   </g>
   <g id="patch_43">
    <path d="M 298.713784 148.986 
Q 313.607269 148.986 326.935506 148.986 
" style="fill: none; stroke: #1e8449; stroke-width: 1.4; stroke-linecap: round"/>
    <path d="M 323.335506 147.186 
L 326.935506 148.986 
L 323.335506 150.786 
" style="fill: none; stroke: #1e8449; stroke-width: 1.4; stroke-linecap: round"/>
   </g>
   <g id="patch_44">
    <path d="M 298.713784 184.927935 
Q 313.607269 184.927935 326.935506 184.927935 
" style="fill: none; stroke: #1e8449; stroke-width: 1.4; stroke-linecap: round"/>
    <path d="M 323.335506 183.127935 
L 326.935506 184.927935 
L 323.335506 186.727935 
" style="fill: none; stroke: #1e8449; stroke-width: 1.4; stroke-linecap: round"/>
   </g>
   <g id="patch_45">
    <path d="M 298.713784 220.869871 
Q 313.607269 220.869871 326.935506 220.869871 
" style="fill: none; stroke: #1e8449; stroke-width: 1.4; stroke-linecap: round"/>
    <path d="M 323.335506 219.069871 
L 326.935506 220.869871 
L 323.335506 222.669871 
" style="fill: none; stroke: #1e8449; stroke-width: 1.4; stroke-linecap: round"/>
   </g>
   <g id="text_36">
    <!-- activations -->
    <g style="fill: #1e8449" transform="translate(276.612932 184.967009) rotate(-90) scale(0.075 -0.075)">
     <use xlink:href="#DejaVuSans-61"/>
     <use xlink:href="#DejaVuSans-63" transform="translate(61.279297 0)"/>
     <use xlink:href="#DejaVuSans-74" transform="translate(116.259766 0)"/>
     <use xlink:href="#DejaVuSans-69" transform="translate(155.46875 0)"/>
     <use xlink:href="#DejaVuSans-76" transform="translate(183.251953 0)"/>
     <use xlink:href="#DejaVuSans-61" transform="translate(242.431641 0)"/>
     <use xlink:href="#DejaVuSans-74" transform="translate(303.710938 0)"/>
     <use xlink:href="#DejaVuSans-69" transform="translate(342.919922 0)"/>
     <use xlink:href="#DejaVuSans-6f" transform="translate(370.703125 0)"/>
     <use xlink:href="#DejaVuSans-6e" transform="translate(431.884766 0)"/>
     <use xlink:href="#DejaVuSans-73" transform="translate(495.263672 0)"/>
    </g>
    <!-- stream in -->
    <g style="fill: #1e8449" transform="translate(285.011292 182.190251) rotate(-90) scale(0.075 -0.075)">
     <use xlink:href="#DejaVuSans-73"/>
     <use xlink:href="#DejaVuSans-74" transform="translate(52.099609 0)"/>
     <use xlink:href="#DejaVuSans-72" transform="translate(91.308594 0)"/>
     <use xlink:href="#DejaVuSans-65" transform="translate(130.171875 0)"/>
     <use xlink:href="#DejaVuSans-61" transform="translate(191.695312 0)"/>
     <use xlink:href="#DejaVuSans-6d" transform="translate(252.974609 0)"/>
     <use xlink:href="#DejaVuSans-20" transform="translate(350.386719 0)"/>
     <use xlink:href="#DejaVuSans-69" transform="translate(382.173828 0)"/>
     <use xlink:href="#DejaVuSans-6e" transform="translate(409.957031 0)"/>
    </g>
   </g>
   <g id="patch_46">
    <path d="M 348.110516 241.1983 
Q 348.110516 255.733233 348.110516 268.702919 
" style="fill: none; stroke: #b03a2e; stroke-width: 1.4; stroke-linecap: round"/>
    <path d="M 349.910516 265.102919 
L 348.110516 268.702919 
L 346.310516 265.102919 
" style="fill: none; stroke: #b03a2e; stroke-width: 1.4; stroke-linecap: round"/>
   </g>
   <g id="patch_47">
    <path d="M 384.052452 241.1983 
Q 384.052452 255.733233 384.052452 268.702919 
" style="fill: none; stroke: #b03a2e; stroke-width: 1.4; stroke-linecap: round"/>
    <path d="M 385.852452 265.102919 
L 384.052452 268.702919 
L 382.252452 265.102919 
" style="fill: none; stroke: #b03a2e; stroke-width: 1.4; stroke-linecap: round"/>
   </g>
   <g id="patch_48">
    <path d="M 419.994387 241.1983 
Q 419.994387 255.733233 419.994387 268.702919 
" style="fill: none; stroke: #b03a2e; stroke-width: 1.4; stroke-linecap: round"/>
    <path d="M 421.794387 265.102919 
L 419.994387 268.702919 
L 418.194387 265.102919 
" style="fill: none; stroke: #b03a2e; stroke-width: 1.4; stroke-linecap: round"/>
   </g>
   <g id="patch_49">
    <path d="M 455.936323 241.1983 
Q 455.936323 255.733233 455.936323 268.702919 
" style="fill: none; stroke: #b03a2e; stroke-width: 1.4; stroke-linecap: round"/>
    <path d="M 457.736323 265.102919 
L 455.936323 268.702919 
L 454.136323 265.102919 
" style="fill: none; stroke: #b03a2e; stroke-width: 1.4; stroke-linecap: round"/>
   </g>
   <g id="text_37">
    <!-- partial sums flow down; results exit staggered -->
    <g style="fill: #b03a2e" transform="translate(317.805956 288.44071) scale(0.075 -0.075)">
     <use xlink:href="#DejaVuSans-70"/>
     <use xlink:href="#DejaVuSans-61" transform="translate(63.476562 0)"/>
     <use xlink:href="#DejaVuSans-72" transform="translate(124.755859 0)"/>
     <use xlink:href="#DejaVuSans-74" transform="translate(165.869141 0)"/>
     <use xlink:href="#DejaVuSans-69" transform="translate(205.078125 0)"/>
     <use xlink:href="#DejaVuSans-61" transform="translate(232.861328 0)"/>
     <use xlink:href="#DejaVuSans-6c" transform="translate(294.140625 0)"/>
     <use xlink:href="#DejaVuSans-20" transform="translate(321.923828 0)"/>
     <use xlink:href="#DejaVuSans-73" transform="translate(353.710938 0)"/>
     <use xlink:href="#DejaVuSans-75" transform="translate(405.810547 0)"/>
     <use xlink:href="#DejaVuSans-6d" transform="translate(469.189453 0)"/>
     <use xlink:href="#DejaVuSans-73" transform="translate(566.601562 0)"/>
     <use xlink:href="#DejaVuSans-20" transform="translate(618.701172 0)"/>
     <use xlink:href="#DejaVuSans-66" transform="translate(650.488281 0)"/>
     <use xlink:href="#DejaVuSans-6c" transform="translate(685.693359 0)"/>
     <use xlink:href="#DejaVuSans-6f" transform="translate(713.476562 0)"/>
     <use xlink:href="#DejaVuSans-77" transform="translate(774.658203 0)"/>
     <use xlink:href="#DejaVuSans-20" transform="translate(856.445312 0)"/>
     <use xlink:href="#DejaVuSans-64" transform="translate(888.232422 0)"/>
     <use xlink:href="#DejaVuSans-6f" transform="translate(951.708984 0)"/>
     <use xlink:href="#DejaVuSans-77" transform="translate(1012.890625 0)"/>
     <use xlink:href="#DejaVuSans-6e" transform="translate(1094.677734 0)"/>
     <use xlink:href="#DejaVuSans-3b" transform="translate(1158.056641 0)"/>
     <use xlink:href="#DejaVuSans-20" transform="translate(1191.748047 0)"/>
     <use xlink:href="#DejaVuSans-72" transform="translate(1223.535156 0)"/>
     <use xlink:href="#DejaVuSans-65" transform="translate(1262.398438 0)"/>
     <use xlink:href="#DejaVuSans-73" transform="translate(1323.921875 0)"/>
     <use xlink:href="#DejaVuSans-75" transform="translate(1376.021484 0)"/>
     <use xlink:href="#DejaVuSans-6c" transform="translate(1439.400391 0)"/>
     <use xlink:href="#DejaVuSans-74" transform="translate(1467.183594 0)"/>
     <use xlink:href="#DejaVuSans-73" transform="translate(1506.392578 0)"/>
     <use xlink:href="#DejaVuSans-20" transform="translate(1558.492188 0)"/>
     <use xlink:href="#DejaVuSans-65" transform="translate(1590.279297 0)"/>
     <use xlink:href="#DejaVuSans-78" transform="translate(1650.052734 0)"/>
     <use xlink:href="#DejaVuSans-69" transform="translate(1709.232422 0)"/>
     <use xlink:href="#DejaVuSans-74" transform="translate(1737.015625 0)"/>
     <use xlink:href="#DejaVuSans-20" transform="translate(1776.224609 0)"/>
     <use xlink:href="#DejaVuSans-73" transform="translate(1808.011719 0)"/>
     <use xlink:href="#DejaVuSans-74" transform="translate(1860.111328 0)"/>
     <use xlink:href="#DejaVuSans-61" transform="translate(1899.320312 0)"/>
     <use xlink:href="#DejaVuSans-67" transform="translate(1960.599609 0)"/>
     <use xlink:href="#DejaVuSans-67" transform="translate(2024.076172 0)"/>
     <use xlink:href="#DejaVuSans-65" transform="translate(2087.552734 0)"/>
     <use xlink:href="#DejaVuSans-72" transform="translate(2149.076172 0)"/>
     <use xlink:href="#DejaVuSans-65" transform="translate(2187.939453 0)"/>
     <use xlink:href="#DejaVuSans-64" transform="translate(2249.462891 0)"/>
    </g>
   </g>
   <g id="text_38">
    <!-- cycle t+1 -->
    <g transform="translate(362.724637 64.992) scale(0.1 -0.1)">
     <defs>
      <path id="DejaVuSans-2b" d="M 2944 4013 
L 2944 2272 
L 4684 2272 
L 4684 1741 
L 2944 1741 
L 2944 0 
L 2419 0 
L 2419 1741 
L 678 1741 
L 678 2272 
L 2419 2272 
L 2419 4013 
L 2944 4013 
z
" transform="scale(0.015625)"/>
      <path id="DejaVuSans-31" d="M 794 531 
L 1825 531 
L 1825 4091 
L 703 3866 
L 703 4441 
L 1819 4666 
L 2450 4666 
L 2450 531 
L 3481 531 
L 3481 0 
L 794 0 
L 794 531 
z
" transform="scale(0.015625)"/>
     </defs>
     <use xlink:href="#DejaVuSans-63"/>
     <use xlink:href="#DejaVuSans-79" transform="translate(54.980469 0)"/>
     <use xlink:href="#DejaVuSans-63" transform="translate(114.160156 0)"/>
     <use xlink:href="#DejaVuSans-6c" transform="translate(169.140625 0)"/>
     <use xlink:href="#DejaVuSans-65" transform="translate(196.923828 0)"/>
     <use xlink:href="#DejaVuSans-20" transform="translate(258.447266 0)"/>
     <use xlink:href="#DejaVuSans-74" transform="translate(290.234375 0)"/>
     <use xlink:href="#DejaVuSans-2b" transform="translate(329.443359 0)"/>
     <use xlink:href="#DejaVuSans-31" transform="translate(413.232422 0)"/>
    </g>
   </g>
  </g>
  <g id="axes_3">
   <g id="patch_50">
    <path d="M 593.415484 128.499097 
L 624.325548 128.499097 
L 624.325548 97.589032 
L 593.415484 97.589032 
z
" clip-path="url(#p51d9546510)" style="fill: #aed6f1; stroke: #1a6a9a; stroke-linejoin: miter"/>
   </g>
   <g id="patch_51">
    <path d="M 629.357419 128.499097 
L 660.267484 128.499097 
L 660.267484 97.589032 
L 629.357419 97.589032 
z
" clip-path="url(#p51d9546510)" style="fill: #aed6f1; stroke: #1a6a9a; stroke-linejoin: miter"/>
   </g>
   <g id="patch_52">
    <path d="M 665.299355 128.499097 
L 696.209419 128.499097 
L 696.209419 97.589032 
L 665.299355 97.589032 
z
" clip-path="url(#p51d9546510)" style="fill: #aed6f1; stroke: #1a6a9a; stroke-linejoin: miter"/>
   </g>
   <g id="patch_53">
    <path d="M 701.24129 128.499097 
L 732.151355 128.499097 
L 732.151355 97.589032 
L 701.24129 97.589032 
z
" clip-path="url(#p51d9546510)" style="fill: #aed6f1; stroke: #1a6a9a; stroke-linejoin: miter"/>
   </g>
   <g id="patch_54">
    <path d="M 593.415484 164.441032 
L 624.325548 164.441032 
L 624.325548 133.530968 
L 593.415484 133.530968 
z
" clip-path="url(#p51d9546510)" style="fill: #aed6f1; stroke: #1a6a9a; stroke-linejoin: miter"/>
   </g>
   <g id="patch_55">
    <path d="M 629.357419 164.441032 
L 660.267484 164.441032 
L 660.267484 133.530968 
L 629.357419 133.530968 
z
" clip-path="url(#p51d9546510)" style="fill: #aed6f1; stroke: #1a6a9a; stroke-linejoin: miter"/>
   </g>
   <g id="patch_56">
    <path d="M 665.299355 164.441032 
L 696.209419 164.441032 
L 696.209419 133.530968 
L 665.299355 133.530968 
z
" clip-path="url(#p51d9546510)" style="fill: #aed6f1; stroke: #1a6a9a; stroke-linejoin: miter"/>
   </g>
   <g id="patch_57">
    <path d="M 701.24129 164.441032 
L 732.151355 164.441032 
L 732.151355 133.530968 
L 701.24129 133.530968 
z
" clip-path="url(#p51d9546510)" style="fill: #eaf2f8; stroke: #1a6a9a; stroke-linejoin: miter"/>
   </g>
   <g id="patch_58">
    <path d="M 593.415484 200.382968 
L 624.325548 200.382968 
L 624.325548 169.472903 
L 593.415484 169.472903 
z
" clip-path="url(#p51d9546510)" style="fill: #aed6f1; stroke: #1a6a9a; stroke-linejoin: miter"/>
   </g>
   <g id="patch_59">
    <path d="M 629.357419 200.382968 
L 660.267484 200.382968 
L 660.267484 169.472903 
L 629.357419 169.472903 
z
" clip-path="url(#p51d9546510)" style="fill: #aed6f1; stroke: #1a6a9a; stroke-linejoin: miter"/>
   </g>
   <g id="patch_60">
    <path d="M 665.299355 200.382968 
L 696.209419 200.382968 
L 696.209419 169.472903 
L 665.299355 169.472903 
z
" clip-path="url(#p51d9546510)" style="fill: #eaf2f8; stroke: #1a6a9a; stroke-linejoin: miter"/>
   </g>
   <g id="patch_61">
    <path d="M 701.24129 200.382968 
L 732.151355 200.382968 
L 732.151355 169.472903 
L 701.24129 169.472903 
z
" clip-path="url(#p51d9546510)" style="fill: #eaf2f8; stroke: #1a6a9a; stroke-linejoin: miter"/>
   </g>
   <g id="patch_62">
    <path d="M 593.415484 236.324903 
L 624.325548 236.324903 
L 624.325548 205.414839 
L 593.415484 205.414839 
z
" clip-path="url(#p51d9546510)" style="fill: #aed6f1; stroke: #1a6a9a; stroke-linejoin: miter"/>
   </g>
   <g id="patch_63">
    <path d="M 629.357419 236.324903 
L 660.267484 236.324903 
L 660.267484 205.414839 
L 629.357419 205.414839 
z
" clip-path="url(#p51d9546510)" style="fill: #eaf2f8; stroke: #1a6a9a; stroke-linejoin: miter"/>
   </g>
   <g id="patch_64">
    <path d="M 665.299355 236.324903 
L 696.209419 236.324903 
L 696.209419 205.414839 
L 665.299355 205.414839 
z
" clip-path="url(#p51d9546510)" style="fill: #eaf2f8; stroke: #1a6a9a; stroke-linejoin: miter"/>
   </g>
   <g id="patch_65">
    <path d="M 701.24129 236.324903 
L 732.151355 236.324903 
L 732.151355 205.414839 
L 701.24129 205.414839 
z
" clip-path="url(#p51d9546510)" style="fill: #eaf2f8; stroke: #1a6a9a; stroke-linejoin: miter"/>
   </g>
   <g id="text_39">
    <!-- w -->
    <g style="fill: #333333" transform="translate(605.599266 115.251565) scale(0.08 -0.08)">
     <use xlink:href="#DejaVuSans-77"/>
    </g>
   </g>
   <g id="text_40">
    <!-- w -->
    <g style="fill: #333333" transform="translate(641.541202 115.251565) scale(0.08 -0.08)">
     <use xlink:href="#DejaVuSans-77"/>
    </g>
   </g>
   <g id="text_41">
    <!-- w -->
    <g style="fill: #333333" transform="translate(677.483137 115.251565) scale(0.08 -0.08)">
     <use xlink:href="#DejaVuSans-77"/>
    </g>
   </g>
   <g id="text_42">
    <!-- w -->
    <g style="fill: #333333" transform="translate(713.425073 115.251565) scale(0.08 -0.08)">
     <use xlink:href="#DejaVuSans-77"/>
    </g>
   </g>
   <g id="text_43">
    <!-- w -->
    <g style="fill: #333333" transform="translate(605.599266 151.1935) scale(0.08 -0.08)">
     <use xlink:href="#DejaVuSans-77"/>
    </g>
   </g>
   <g id="text_44">
    <!-- w -->
    <g style="fill: #333333" transform="translate(641.541202 151.1935) scale(0.08 -0.08)">
     <use xlink:href="#DejaVuSans-77"/>
    </g>
   </g>
   <g id="text_45">
    <!-- w -->
    <g style="fill: #333333" transform="translate(677.483137 151.1935) scale(0.08 -0.08)">
     <use xlink:href="#DejaVuSans-77"/>
    </g>
   </g>
   <g id="text_46">
    <!-- w -->
    <g style="fill: #333333" transform="translate(713.425073 151.1935) scale(0.08 -0.08)">
     <use xlink:href="#DejaVuSans-77"/>
    </g>
   </g>
   <g id="text_47">
    <!-- w -->
    <g style="fill: #333333" transform="translate(605.599266 187.135435) scale(0.08 -0.08)">
     <use xlink:href="#DejaVuSans-77"/>
    </g>
   </g>
   <g id="text_48">
    <!-- w -->
    <g style="fill: #333333" transform="translate(641.541202 187.135435) scale(0.08 -0.08)">
     <use xlink:href="#DejaVuSans-77"/>
    </g>
   </g>
   <g id="text_49">
    <!-- w -->
    <g style="fill: #333333" transform="translate(677.483137 187.135435) scale(0.08 -0.08)">
     <use xlink:href="#DejaVuSans-77"/>
    </g>
   </g>
   <g id="text_50">
    <!-- w -->
    <g style="fill: #333333" transform="translate(713.425073 187.135435) scale(0.08 -0.08)">
     <use xlink:href="#DejaVuSans-77"/>
    </g>
   </g>
   <g id="text_51">
    <!-- w -->
    <g style="fill: #333333" transform="translate(605.599266 223.077371) scale(0.08 -0.08)">
     <use xlink:href="#DejaVuSans-77"/>
    </g>
   </g>
   <g id="text_52">
    <!-- w -->
    <g style="fill: #333333" transform="translate(641.541202 223.077371) scale(0.08 -0.08)">
     <use xlink:href="#DejaVuSans-77"/>
    </g>
   </g>
   <g id="text_53">
    <!-- w -->
    <g style="fill: #333333" transform="translate(677.483137 223.077371) scale(0.08 -0.08)">
     <use xlink:href="#DejaVuSans-77"/>
    </g>
   </g>
   <g id="text_54">
    <!-- w -->
    <g style="fill: #333333" transform="translate(713.425073 223.077371) scale(0.08 -0.08)">
     <use xlink:href="#DejaVuSans-77"/>
    </g>
   </g>
   <g id="patch_66">
    <path d="M 559.473784 113.044065 
Q 574.367269 113.044065 587.695506 113.044065 
" style="fill: none; stroke: #1e8449; stroke-width: 1.4; stroke-linecap: round"/>
    <path d="M 584.095506 111.244065 
L 587.695506 113.044065 
L 584.095506 114.844065 
" style="fill: none; stroke: #1e8449; stroke-width: 1.4; stroke-linecap: round"/>
   </g>
   <g id="patch_67">
    <path d="M 559.473784 148.986 
Q 574.367269 148.986 587.695506 148.986 
" style="fill: none; stroke: #1e8449; stroke-width: 1.4; stroke-linecap: round"/>
    <path d="M 584.095506 147.186 
L 587.695506 148.986 
L 584.095506 150.786 
" style="fill: none; stroke: #1e8449; stroke-width: 1.4; stroke-linecap: round"/>
   </g>
   <g id="patch_68">
    <path d="M 559.473784 184.927935 
Q 574.367269 184.927935 587.695506 184.927935 
" style="fill: none; stroke: #1e8449; stroke-width: 1.4; stroke-linecap: round"/>
    <path d="M 584.095506 183.127935 
L 587.695506 184.927935 
L 584.095506 186.727935 
" style="fill: none; stroke: #1e8449; stroke-width: 1.4; stroke-linecap: round"/>
   </g>
   <g id="patch_69">
    <path d="M 559.473784 220.869871 
Q 574.367269 220.869871 587.695506 220.869871 
" style="fill: none; stroke: #1e8449; stroke-width: 1.4; stroke-linecap: round"/>
    <path d="M 584.095506 219.069871 
L 587.695506 220.869871 
L 584.095506 222.669871 
" style="fill: none; stroke: #1e8449; stroke-width: 1.4; stroke-linecap: round"/>
   </g>
   <g id="text_55">
    <!-- activations -->
    <g style="fill: #1e8449" transform="translate(537.372932 184.967009) rotate(-90) scale(0.075 -0.075)">
     <use xlink:href="#DejaVuSans-61"/>
     <use xlink:href="#DejaVuSans-63" transform="translate(61.279297 0)"/>
     <use xlink:href="#DejaVuSans-74" transform="translate(116.259766 0)"/>
     <use xlink:href="#DejaVuSans-69" transform="translate(155.46875 0)"/>
     <use xlink:href="#DejaVuSans-76" transform="translate(183.251953 0)"/>
     <use xlink:href="#DejaVuSans-61" transform="translate(242.431641 0)"/>
     <use xlink:href="#DejaVuSans-74" transform="translate(303.710938 0)"/>
     <use xlink:href="#DejaVuSans-69" transform="translate(342.919922 0)"/>
     <use xlink:href="#DejaVuSans-6f" transform="translate(370.703125 0)"/>
     <use xlink:href="#DejaVuSans-6e" transform="translate(431.884766 0)"/>
     <use xlink:href="#DejaVuSans-73" transform="translate(495.263672 0)"/>
    </g>
    <!-- stream in -->
    <g style="fill: #1e8449" transform="translate(545.771292 182.190251) rotate(-90) scale(0.075 -0.075)">
     <use xlink:href="#DejaVuSans-73"/>
     <use xlink:href="#DejaVuSans-74" transform="translate(52.099609 0)"/>
     <use xlink:href="#DejaVuSans-72" transform="translate(91.308594 0)"/>
     <use xlink:href="#DejaVuSans-65" transform="translate(130.171875 0)"/>
     <use xlink:href="#DejaVuSans-61" transform="translate(191.695312 0)"/>
     <use xlink:href="#DejaVuSans-6d" transform="translate(252.974609 0)"/>
     <use xlink:href="#DejaVuSans-20" transform="translate(350.386719 0)"/>
     <use xlink:href="#DejaVuSans-69" transform="translate(382.173828 0)"/>
     <use xlink:href="#DejaVuSans-6e" transform="translate(409.957031 0)"/>
    </g>
   </g>
   <g id="patch_70">
    <path d="M 608.870516 241.1983 
Q 608.870516 255.733233 608.870516 268.702919 
" style="fill: none; stroke: #b03a2e; stroke-width: 1.4; stroke-linecap: round"/>
    <path d="M 610.670516 265.102919 
L 608.870516 268.702919 
L 607.070516 265.102919 
" style="fill: none; stroke: #b03a2e; stroke-width: 1.4; stroke-linecap: round"/>
   </g>
   <g id="patch_71">
    <path d="M 644.812452 241.1983 
Q 644.812452 255.733233 644.812452 268.702919 
" style="fill: none; stroke: #b03a2e; stroke-width: 1.4; stroke-linecap: round"/>
    <path d="M 646.612452 265.102919 
L 644.812452 268.702919 
L 643.012452 265.102919 
" style="fill: none; stroke: #b03a2e; stroke-width: 1.4; stroke-linecap: round"/>
   </g>
   <g id="patch_72">
    <path d="M 680.754387 241.1983 
Q 680.754387 255.733233 680.754387 268.702919 
" style="fill: none; stroke: #b03a2e; stroke-width: 1.4; stroke-linecap: round"/>
    <path d="M 682.554387 265.102919 
L 680.754387 268.702919 
L 678.954387 265.102919 
" style="fill: none; stroke: #b03a2e; stroke-width: 1.4; stroke-linecap: round"/>
   </g>
   <g id="patch_73">
    <path d="M 716.696323 241.1983 
Q 716.696323 255.733233 716.696323 268.702919 
" style="fill: none; stroke: #b03a2e; stroke-width: 1.4; stroke-linecap: round"/>
    <path d="M 718.496323 265.102919 
L 716.696323 268.702919 
L 714.896323 265.102919 
" style="fill: none; stroke: #b03a2e; stroke-width: 1.4; stroke-linecap: round"/>
   </g>
   <g id="text_56">
    <!-- partial sums flow down; results exit staggered -->
    <g style="fill: #b03a2e" transform="translate(578.565956 288.44071) scale(0.075 -0.075)">
     <use xlink:href="#DejaVuSans-70"/>
     <use xlink:href="#DejaVuSans-61" transform="translate(63.476562 0)"/>
     <use xlink:href="#DejaVuSans-72" transform="translate(124.755859 0)"/>
     <use xlink:href="#DejaVuSans-74" transform="translate(165.869141 0)"/>
     <use xlink:href="#DejaVuSans-69" transform="translate(205.078125 0)"/>
     <use xlink:href="#DejaVuSans-61" transform="translate(232.861328 0)"/>
     <use xlink:href="#DejaVuSans-6c" transform="translate(294.140625 0)"/>
     <use xlink:href="#DejaVuSans-20" transform="translate(321.923828 0)"/>
     <use xlink:href="#DejaVuSans-73" transform="translate(353.710938 0)"/>
     <use xlink:href="#DejaVuSans-75" transform="translate(405.810547 0)"/>
     <use xlink:href="#DejaVuSans-6d" transform="translate(469.189453 0)"/>
     <use xlink:href="#DejaVuSans-73" transform="translate(566.601562 0)"/>
     <use xlink:href="#DejaVuSans-20" transform="translate(618.701172 0)"/>
     <use xlink:href="#DejaVuSans-66" transform="translate(650.488281 0)"/>
     <use xlink:href="#DejaVuSans-6c" transform="translate(685.693359 0)"/>
     <use xlink:href="#DejaVuSans-6f" transform="translate(713.476562 0)"/>
     <use xlink:href="#DejaVuSans-77" transform="translate(774.658203 0)"/>
     <use xlink:href="#DejaVuSans-20" transform="translate(856.445312 0)"/>
     <use xlink:href="#DejaVuSans-64" transform="translate(888.232422 0)"/>
     <use xlink:href="#DejaVuSans-6f" transform="translate(951.708984 0)"/>
     <use xlink:href="#DejaVuSans-77" transform="translate(1012.890625 0)"/>
     <use xlink:href="#DejaVuSans-6e" transform="translate(1094.677734 0)"/>
     <use xlink:href="#DejaVuSans-3b" transform="translate(1158.056641 0)"/>
     <use xlink:href="#DejaVuSans-20" transform="translate(1191.748047 0)"/>
     <use xlink:href="#DejaVuSans-72" transform="translate(1223.535156 0)"/>
     <use xlink:href="#DejaVuSans-65" transform="translate(1262.398438 0)"/>
     <use xlink:href="#DejaVuSans-73" transform="translate(1323.921875 0)"/>
     <use xlink:href="#DejaVuSans-75" transform="translate(1376.021484 0)"/>
     <use xlink:href="#DejaVuSans-6c" transform="translate(1439.400391 0)"/>
     <use xlink:href="#DejaVuSans-74" transform="translate(1467.183594 0)"/>
     <use xlink:href="#DejaVuSans-73" transform="translate(1506.392578 0)"/>
     <use xlink:href="#DejaVuSans-20" transform="translate(1558.492188 0)"/>
     <use xlink:href="#DejaVuSans-65" transform="translate(1590.279297 0)"/>
     <use xlink:href="#DejaVuSans-78" transform="translate(1650.052734 0)"/>
     <use xlink:href="#DejaVuSans-69" transform="translate(1709.232422 0)"/>
     <use xlink:href="#DejaVuSans-74" transform="translate(1737.015625 0)"/>
     <use xlink:href="#DejaVuSans-20" transform="translate(1776.224609 0)"/>
     <use xlink:href="#DejaVuSans-73" transform="translate(1808.011719 0)"/>
     <use xlink:href="#DejaVuSans-74" transform="translate(1860.111328 0)"/>
     <use xlink:href="#DejaVuSans-61" transform="translate(1899.320312 0)"/>
     <use xlink:href="#DejaVuSans-67" transform="translate(1960.599609 0)"/>
     <use xlink:href="#DejaVuSans-67" transform="translate(2024.076172 0)"/>
     <use xlink:href="#DejaVuSans-65" transform="translate(2087.552734 0)"/>
     <use xlink:href="#DejaVuSans-72" transform="translate(2149.076172 0)"/>
     <use xlink:href="#DejaVuSans-65" transform="translate(2187.939453 0)"/>
     <use xlink:href="#DejaVuSans-64" transform="translate(2249.462891 0)"/>
    </g>
   </g>
   <g id="text_57">
    <!-- cycle t+2 -->
    <g transform="translate(623.484637 64.992) scale(0.1 -0.1)">
     <defs>
      <path id="DejaVuSans-32" d="M 1228 531 
L 3431 531 
L 3431 0 
L 469 0 
L 469 531 
Q 828 903 1448 1529 
Q 2069 2156 2228 2338 
Q 2531 2678 2651 2914 
Q 2772 3150 2772 3378 
Q 2772 3750 2511 3984 
Q 2250 4219 1831 4219 
Q 1534 4219 1204 4116 
Q 875 4013 500 3803 
L 500 4441 
Q 881 4594 1212 4672 
Q 1544 4750 1819 4750 
Q 2544 4750 2975 4387 
Q 3406 4025 3406 3419 
Q 3406 3131 3298 2873 
Q 3191 2616 2906 2266 
Q 2828 2175 2409 1742 
Q 1991 1309 1228 531 
z
" transform="scale(0.015625)"/>
     </defs>
     <use xlink:href="#DejaVuSans-63"/>
     <use xlink:href="#DejaVuSans-79" transform="translate(54.980469 0)"/>
     <use xlink:href="#DejaVuSans-63" transform="translate(114.160156 0)"/>
     <use xlink:href="#DejaVuSans-6c" transform="translate(169.140625 0)"/>
     <use xlink:href="#DejaVuSans-65" transform="translate(196.923828 0)"/>
     <use xlink:href="#DejaVuSans-20" transform="translate(258.447266 0)"/>
     <use xlink:href="#DejaVuSans-74" transform="translate(290.234375 0)"/>
     <use xlink:href="#DejaVuSans-2b" transform="translate(329.443359 0)"/>
     <use xlink:href="#DejaVuSans-32" transform="translate(413.232422 0)"/>
    </g>
   </g>
  </g>
  <g id="text_58">
   <!-- Figure 6.2 — Weight-stationary systolic execution: weights resident (w), activation -->
   <g transform="translate(196.145402 14.418516) scale(0.095 -0.095)">
    <defs>
     <path id="DejaVuSans-46" d="M 628 4666 
L 3309 4666 
L 3309 4134 
L 1259 4134 
L 1259 2759 
L 3109 2759 
L 3109 2228 
L 1259 2228 
L 1259 0 
L 628 0 
L 628 4666 
z
" transform="scale(0.015625)"/>
     <path id="DejaVuSans-36" d="M 2113 2584 
Q 1688 2584 1439 2293 
Q 1191 2003 1191 1497 
Q 1191 994 1439 701 
Q 1688 409 2113 409 
Q 2538 409 2786 701 
Q 3034 994 3034 1497 
Q 3034 2003 2786 2293 
Q 2538 2584 2113 2584 
z
M 3366 4563 
L 3366 3988 
Q 3128 4100 2886 4159 
Q 2644 4219 2406 4219 
Q 1781 4219 1451 3797 
Q 1122 3375 1075 2522 
Q 1259 2794 1537 2939 
Q 1816 3084 2150 3084 
Q 2853 3084 3261 2657 
Q 3669 2231 3669 1497 
Q 3669 778 3244 343 
Q 2819 -91 2113 -91 
Q 1303 -91 875 529 
Q 447 1150 447 2328 
Q 447 3434 972 4092 
Q 1497 4750 2381 4750 
Q 2619 4750 2861 4703 
Q 3103 4656 3366 4563 
z
" transform="scale(0.015625)"/>
     <path id="DejaVuSans-2e" d="M 684 794 
L 1344 794 
L 1344 0 
L 684 0 
L 684 794 
z
" transform="scale(0.015625)"/>
     <path id="DejaVuSans-2014" d="M 313 1978 
L 6088 1978 
L 6088 1528 
L 313 1528 
L 313 1978 
z
" transform="scale(0.015625)"/>
     <path id="DejaVuSans-57" d="M 213 4666 
L 850 4666 
L 1831 722 
L 2809 4666 
L 3519 4666 
L 4500 722 
L 5478 4666 
L 6119 4666 
L 4947 0 
L 4153 0 
L 3169 4050 
L 2175 0 
L 1381 0 
L 213 4666 
z
" transform="scale(0.015625)"/>
     <path id="DejaVuSans-68" d="M 3513 2113 
L 3513 0 
L 2938 0 
L 2938 2094 
Q 2938 2591 2744 2837 
Q 2550 3084 2163 3084 
Q 1697 3084 1428 2787 
Q 1159 2491 1159 1978 
L 1159 0 
L 581 0 
L 581 4863 
L 1159 4863 
L 1159 2956 
Q 1366 3272 1645 3428 
Q 1925 3584 2291 3584 
Q 2894 3584 3203 3211 
Q 3513 2838 3513 2113 
z
" transform="scale(0.015625)"/>
     <path id="DejaVuSans-2d" d="M 313 2009 
L 1997 2009 
L 1997 1497 
L 313 1497 
L 313 2009 
z
" transform="scale(0.015625)"/>
     <path id="DejaVuSans-3a" d="M 750 794 
L 1409 794 
L 1409 0 
L 750 0 
L 750 794 
z
M 750 3309 
L 1409 3309 
L 1409 2516 
L 750 2516 
L 750 3309 
z
" transform="scale(0.015625)"/>
     <path id="DejaVuSans-28" d="M 1984 4856 
Q 1566 4138 1362 3434 
Q 1159 2731 1159 2009 
Q 1159 1288 1364 580 
Q 1569 -128 1984 -844 
L 1484 -844 
Q 1016 -109 783 600 
Q 550 1309 550 2009 
Q 550 2706 781 3412 
Q 1013 4119 1484 4856 
L 1984 4856 
z
" transform="scale(0.015625)"/>
     <path id="DejaVuSans-29" d="M 513 4856 
L 1013 4856 
Q 1481 4119 1714 3412 
Q 1947 2706 1947 2009 
Q 1947 1309 1714 600 
Q 1481 -109 1013 -844 
L 513 -844 
Q 928 -128 1133 580 
Q 1338 1288 1338 2009 
Q 1338 2731 1133 3434 
Q 928 4138 513 4856 
z
" transform="scale(0.015625)"/>
     <path id="DejaVuSans-2c" d="M 750 794 
L 1409 794 
L 1409 256 
L 897 -744 
L 494 -744 
L 750 256 
L 750 794 
z
" transform="scale(0.015625)"/>
    </defs>
    <use xlink:href="#DejaVuSans-46"/>
    <use xlink:href="#DejaVuSans-69" transform="translate(50.269531 0)"/>
    <use xlink:href="#DejaVuSans-67" transform="translate(78.052734 0)"/>
    <use xlink:href="#DejaVuSans-75" transform="translate(141.529297 0)"/>
    <use xlink:href="#DejaVuSans-72" transform="translate(204.908203 0)"/>
    <use xlink:href="#DejaVuSans-65" transform="translate(243.771484 0)"/>
    <use xlink:href="#DejaVuSans-20" transform="translate(305.294922 0)"/>
    <use xlink:href="#DejaVuSans-36" transform="translate(337.082031 0)"/>
    <use xlink:href="#DejaVuSans-2e" transform="translate(400.705078 0)"/>
    <use xlink:href="#DejaVuSans-32" transform="translate(432.492188 0)"/>
    <use xlink:href="#DejaVuSans-20" transform="translate(496.115234 0)"/>
    <use xlink:href="#DejaVuSans-2014" transform="translate(527.902344 0)"/>
    <use xlink:href="#DejaVuSans-20" transform="translate(627.902344 0)"/>
    <use xlink:href="#DejaVuSans-57" transform="translate(659.689453 0)"/>
    <use xlink:href="#DejaVuSans-65" transform="translate(752.691406 0)"/>
    <use xlink:href="#DejaVuSans-69" transform="translate(814.214844 0)"/>
    <use xlink:href="#DejaVuSans-67" transform="translate(841.998047 0)"/>
    <use xlink:href="#DejaVuSans-68" transform="translate(905.474609 0)"/>
    <use xlink:href="#DejaVuSans-74" transform="translate(968.853516 0)"/>
    <use xlink:href="#DejaVuSans-2d" transform="translate(1008.0625 0)"/>
    <use xlink:href="#DejaVuSans-73" transform="translate(1044.146484 0)"/>
    <use xlink:href="#DejaVuSans-74" transform="translate(1096.246094 0)"/>
    <use xlink:href="#DejaVuSans-61" transform="translate(1135.455078 0)"/>
    <use xlink:href="#DejaVuSans-74" transform="translate(1196.734375 0)"/>
    <use xlink:href="#DejaVuSans-69" transform="translate(1235.943359 0)"/>
    <use xlink:href="#DejaVuSans-6f" transform="translate(1263.726562 0)"/>
    <use xlink:href="#DejaVuSans-6e" transform="translate(1324.908203 0)"/>
    <use xlink:href="#DejaVuSans-61" transform="translate(1388.287109 0)"/>
    <use xlink:href="#DejaVuSans-72" transform="translate(1449.566406 0)"/>
    <use xlink:href="#DejaVuSans-79" transform="translate(1490.679688 0)"/>
    <use xlink:href="#DejaVuSans-20" transform="translate(1549.859375 0)"/>
    <use xlink:href="#DejaVuSans-73" transform="translate(1581.646484 0)"/>
    <use xlink:href="#DejaVuSans-79" transform="translate(1633.746094 0)"/>
    <use xlink:href="#DejaVuSans-73" transform="translate(1692.925781 0)"/>
    <use xlink:href="#DejaVuSans-74" transform="translate(1745.025391 0)"/>
    <use xlink:href="#DejaVuSans-6f" transform="translate(1784.234375 0)"/>
    <use xlink:href="#DejaVuSans-6c" transform="translate(1845.416016 0)"/>
    <use xlink:href="#DejaVuSans-69" transform="translate(1873.199219 0)"/>
    <use xlink:href="#DejaVuSans-63" transform="translate(1900.982422 0)"/>
    <use xlink:href="#DejaVuSans-20" transform="translate(1955.962891 0)"/>
    <use xlink:href="#DejaVuSans-65" transform="translate(1987.75 0)"/>
    <use xlink:href="#DejaVuSans-78" transform="translate(2047.523438 0)"/>
    <use xlink:href="#DejaVuSans-65" transform="translate(2103.578125 0)"/>
    <use xlink:href="#DejaVuSans-63" transform="translate(2165.101562 0)"/>
    <use xlink:href="#DejaVuSans-75" transform="translate(2220.082031 0)"/>
    <use xlink:href="#DejaVuSans-74" transform="translate(2283.460938 0)"/>
    <use xlink:href="#DejaVuSans-69" transform="translate(2322.669922 0)"/>
    <use xlink:href="#DejaVuSans-6f" transform="translate(2350.453125 0)"/>
    <use xlink:href="#DejaVuSans-6e" transform="translate(2411.634766 0)"/>
    <use xlink:href="#DejaVuSans-3a" transform="translate(2475.013672 0)"/>
    <use xlink:href="#DejaVuSans-20" transform="translate(2508.705078 0)"/>
    <use xlink:href="#DejaVuSans-77" transform="translate(2540.492188 0)"/>
    <use xlink:href="#DejaVuSans-65" transform="translate(2622.279297 0)"/>
    <use xlink:href="#DejaVuSans-69" transform="translate(2683.802734 0)"/>
    <use xlink:href="#DejaVuSans-67" transform="translate(2711.585938 0)"/>
    <use xlink:href="#DejaVuSans-68" transform="translate(2775.0625 0)"/>
    <use xlink:href="#DejaVuSans-74" transform="translate(2838.441406 0)"/>
    <use xlink:href="#DejaVuSans-73" transform="translate(2877.650391 0)"/>
    <use xlink:href="#DejaVuSans-20" transform="translate(2929.75 0)"/>
    <use xlink:href="#DejaVuSans-72" transform="translate(2961.537109 0)"/>
    <use xlink:href="#DejaVuSans-65" transform="translate(3000.400391 0)"/>
    <use xlink:href="#DejaVuSans-73" transform="translate(3061.923828 0)"/>
    <use xlink:href="#DejaVuSans-69" transform="translate(3114.023438 0)"/>
    <use xlink:href="#DejaVuSans-64" transform="translate(3141.806641 0)"/>
    <use xlink:href="#DejaVuSans-65" transform="translate(3205.283203 0)"/>
    <use xlink:href="#DejaVuSans-6e" transform="translate(3266.806641 0)"/>
    <use xlink:href="#DejaVuSans-74" transform="translate(3330.185547 0)"/>
    <use xlink:href="#DejaVuSans-20" transform="translate(3369.394531 0)"/>
    <use xlink:href="#DejaVuSans-28" transform="translate(3401.181641 0)"/>
    <use xlink:href="#DejaVuSans-77" transform="translate(3440.195312 0)"/>
    <use xlink:href="#DejaVuSans-29" transform="translate(3521.982422 0)"/>
    <use xlink:href="#DejaVuSans-2c" transform="translate(3560.996094 0)"/>
    <use xlink:href="#DejaVuSans-20" transform="translate(3592.783203 0)"/>
    <use xlink:href="#DejaVuSans-61" transform="translate(3624.570312 0)"/>
    <use xlink:href="#DejaVuSans-63" transform="translate(3685.849609 0)"/>
    <use xlink:href="#DejaVuSans-74" transform="translate(3740.830078 0)"/>
    <use xlink:href="#DejaVuSans-69" transform="translate(3780.039062 0)"/>
    <use xlink:href="#DejaVuSans-76" transform="translate(3807.822266 0)"/>
    <use xlink:href="#DejaVuSans-61" transform="translate(3867.001953 0)"/>
    <use xlink:href="#DejaVuSans-74" transform="translate(3928.28125 0)"/>
    <use xlink:href="#DejaVuSans-69" transform="translate(3967.490234 0)"/>
    <use xlink:href="#DejaVuSans-6f" transform="translate(3995.273438 0)"/>
    <use xlink:href="#DejaVuSans-6e" transform="translate(4056.455078 0)"/>
   </g>
   <!-- wavefront advances one hop per cycle; every fetched value is reused across the array -->
   <g transform="translate(186.301769 25.056437) scale(0.095 -0.095)">
    <use xlink:href="#DejaVuSans-77"/>
    <use xlink:href="#DejaVuSans-61" transform="translate(81.787109 0)"/>
    <use xlink:href="#DejaVuSans-76" transform="translate(143.066406 0)"/>
    <use xlink:href="#DejaVuSans-65" transform="translate(202.246094 0)"/>
    <use xlink:href="#DejaVuSans-66" transform="translate(263.769531 0)"/>
    <use xlink:href="#DejaVuSans-72" transform="translate(298.974609 0)"/>
    <use xlink:href="#DejaVuSans-6f" transform="translate(337.837891 0)"/>
    <use xlink:href="#DejaVuSans-6e" transform="translate(399.019531 0)"/>
    <use xlink:href="#DejaVuSans-74" transform="translate(462.398438 0)"/>
    <use xlink:href="#DejaVuSans-20" transform="translate(501.607422 0)"/>
    <use xlink:href="#DejaVuSans-61" transform="translate(533.394531 0)"/>
    <use xlink:href="#DejaVuSans-64" transform="translate(594.673828 0)"/>
    <use xlink:href="#DejaVuSans-76" transform="translate(658.150391 0)"/>
    <use xlink:href="#DejaVuSans-61" transform="translate(717.330078 0)"/>
    <use xlink:href="#DejaVuSans-6e" transform="translate(778.609375 0)"/>
    <use xlink:href="#DejaVuSans-63" transform="translate(841.988281 0)"/>
    <use xlink:href="#DejaVuSans-65" transform="translate(896.96875 0)"/>
    <use xlink:href="#DejaVuSans-73" transform="translate(958.492188 0)"/>
    <use xlink:href="#DejaVuSans-20" transform="translate(1010.591797 0)"/>
    <use xlink:href="#DejaVuSans-6f" transform="translate(1042.378906 0)"/>
    <use xlink:href="#DejaVuSans-6e" transform="translate(1103.560547 0)"/>
    <use xlink:href="#DejaVuSans-65" transform="translate(1166.939453 0)"/>
    <use xlink:href="#DejaVuSans-20" transform="translate(1228.462891 0)"/>
    <use xlink:href="#DejaVuSans-68" transform="translate(1260.25 0)"/>
    <use xlink:href="#DejaVuSans-6f" transform="translate(1323.628906 0)"/>
    <use xlink:href="#DejaVuSans-70" transform="translate(1384.810547 0)"/>
    <use xlink:href="#DejaVuSans-20" transform="translate(1448.287109 0)"/>
    <use xlink:href="#DejaVuSans-70" transform="translate(1480.074219 0)"/>
    <use xlink:href="#DejaVuSans-65" transform="translate(1543.550781 0)"/>
    <use xlink:href="#DejaVuSans-72" transform="translate(1605.074219 0)"/>
    <use xlink:href="#DejaVuSans-20" transform="translate(1646.1875 0)"/>
    <use xlink:href="#DejaVuSans-63" transform="translate(1677.974609 0)"/>
    <use xlink:href="#DejaVuSans-79" transform="translate(1732.955078 0)"/>
    <use xlink:href="#DejaVuSans-63" transform="translate(1792.134766 0)"/>
    <use xlink:href="#DejaVuSans-6c" transform="translate(1847.115234 0)"/>
    <use xlink:href="#DejaVuSans-65" transform="translate(1874.898438 0)"/>
    <use xlink:href="#DejaVuSans-3b" transform="translate(1936.421875 0)"/>
    <use xlink:href="#DejaVuSans-20" transform="translate(1970.113281 0)"/>
    <use xlink:href="#DejaVuSans-65" transform="translate(2001.900391 0)"/>
    <use xlink:href="#DejaVuSans-76" transform="translate(2063.423828 0)"/>
    <use xlink:href="#DejaVuSans-65" transform="translate(2122.603516 0)"/>
    <use xlink:href="#DejaVuSans-72" transform="translate(2184.126953 0)"/>
    <use xlink:href="#DejaVuSans-79" transform="translate(2225.240234 0)"/>
    <use xlink:href="#DejaVuSans-20" transform="translate(2284.419922 0)"/>
    <use xlink:href="#DejaVuSans-66" transform="translate(2316.207031 0)"/>
    <use xlink:href="#DejaVuSans-65" transform="translate(2351.412109 0)"/>
    <use xlink:href="#DejaVuSans-74" transform="translate(2412.935547 0)"/>
    <use xlink:href="#DejaVuSans-63" transform="translate(2452.144531 0)"/>
    <use xlink:href="#DejaVuSans-68" transform="translate(2507.125 0)"/>
    <use xlink:href="#DejaVuSans-65" transform="translate(2570.503906 0)"/>
    <use xlink:href="#DejaVuSans-64" transform="translate(2632.027344 0)"/>
    <use xlink:href="#DejaVuSans-20" transform="translate(2695.503906 0)"/>
    <use xlink:href="#DejaVuSans-76" transform="translate(2727.291016 0)"/>
    <use xlink:href="#DejaVuSans-61" transform="translate(2786.470703 0)"/>
    <use xlink:href="#DejaVuSans-6c" transform="translate(2847.75 0)"/>
    <use xlink:href="#DejaVuSans-75" transform="translate(2875.533203 0)"/>
    <use xlink:href="#DejaVuSans-65" transform="translate(2938.912109 0)"/>
    <use xlink:href="#DejaVuSans-20" transform="translate(3000.435547 0)"/>
    <use xlink:href="#DejaVuSans-69" transform="translate(3032.222656 0)"/>
    <use xlink:href="#DejaVuSans-73" transform="translate(3060.005859 0)"/>
    <use xlink:href="#DejaVuSans-20" transform="translate(3112.105469 0)"/>
    <use xlink:href="#DejaVuSans-72" transform="translate(3143.892578 0)"/>
    <use xlink:href="#DejaVuSans-65" transform="translate(3182.755859 0)"/>
    <use xlink:href="#DejaVuSans-75" transform="translate(3244.279297 0)"/>
    <use xlink:href="#DejaVuSans-73" transform="translate(3307.658203 0)"/>
    <use xlink:href="#DejaVuSans-65" transform="translate(3359.757812 0)"/>
    <use xlink:href="#DejaVuSans-64" transform="translate(3421.28125 0)"/>
    <use xlink:href="#DejaVuSans-20" transform="translate(3484.757812 0)"/>
    <use xlink:href="#DejaVuSans-61" transform="translate(3516.544922 0)"/>
    <use xlink:href="#DejaVuSans-63" transform="translate(3577.824219 0)"/>
    <use xlink:href="#DejaVuSans-72" transform="translate(3632.804688 0)"/>
    <use xlink:href="#DejaVuSans-6f" transform="translate(3671.667969 0)"/>
    <use xlink:href="#DejaVuSans-73" transform="translate(3732.849609 0)"/>
    <use xlink:href="#DejaVuSans-73" transform="translate(3784.949219 0)"/>
    <use xlink:href="#DejaVuSans-20" transform="translate(3837.048828 0)"/>
    <use xlink:href="#DejaVuSans-74" transform="translate(3868.835938 0)"/>
    <use xlink:href="#DejaVuSans-68" transform="translate(3908.044922 0)"/>
    <use xlink:href="#DejaVuSans-65" transform="translate(3971.423828 0)"/>
    <use xlink:href="#DejaVuSans-20" transform="translate(4032.947266 0)"/>
    <use xlink:href="#DejaVuSans-61" transform="translate(4064.734375 0)"/>
    <use xlink:href="#DejaVuSans-72" transform="translate(4126.013672 0)"/>
    <use xlink:href="#DejaVuSans-72" transform="translate(4165.376953 0)"/>
    <use xlink:href="#DejaVuSans-61" transform="translate(4206.490234 0)"/>
    <use xlink:href="#DejaVuSans-79" transform="translate(4267.769531 0)"/>
   </g>
  </g>
 </g>
 <defs>
  <clipPath id="p3cbb7b9214">
   <rect x="7.2" y="70.992" width="237.216774" height="222.84"/>
  </clipPath>
  <clipPath id="p78d7fccbe1">
   <rect x="267.96" y="70.992" width="237.216774" height="222.84"/>
  </clipPath>
  <clipPath id="p51d9546510">
   <rect x="528.72" y="70.992" width="237.216774" height="222.84"/>
  </clipPath>
 </defs>
</svg>
