<?xml version="1.0" encoding="utf-8" standalone="no"?>
<!DOCTYPE svg PUBLIC "-//W3C//DTD SVG 1.1//EN"
  "http://www.w3.org/Graphics/SVG/1.1/DTD/svg11.dtd">
<svg xmlns:xlink="http://www.w3.org/1999/xlink" width="714.116562pt" height="499.025375pt" viewBox="0 0 714.116562 499.025375" xmlns="http://www.w3.org/2000/svg" version="1.1">
 <metadata>
  <rdf:RDF xmlns:dc="http://purl.org/dc/elements/1.1/" xmlns:cc="http://creativecommons.org/ns#" xmlns:rdf="http://www.w3.org/1999/02/22-rdf-syntax-ns#">
   <cc:Work>
    <dc:type rdf:resource="http://purl.org/dc/dcmitype/StillImage"/>
    <dc:date>2026-07-18T09:53:41.240782</dc:date>
    <dc:format>image/svg+xml</dc:format>
    <dc:creator>
     <cc:Agent>
      <dc:title>Matplotlib v3.10.9, https://matplotlib.org/</dc:title>
     </cc:Agent>
    </dc:creator>
   </cc:Work>
  </rdf:RDF>
 </metadata>
 <defs>
  <style type="text/css">*{stroke-linejoin: round; stroke-linecap: butt}</style>
 </defs>
 <g id="figure_1">
  <g id="patch_1">
   <path d="M -0 499.025375 
L 714.116562 499.025375 
L 714.116562 0 
L -0 0 
z
" style="fill: #ffffff"/>
  </g>
  <g id="axes_1">
   <g id="patch_2">
    <path d="M 99.976562 455.414312 
L 706.916563 455.414312 
L 706.916563 21.406312 
L 99.976562 21.406312 
z
" style="fill: #ffffff"/>
   </g>
   <g id="patch_3">
    <path d="M 178.878763 422.863712 
C 197.389435 422.863712 215.14445 418.976678 228.233472 412.058682 
C 241.322494 405.140687 248.676863 395.756555 248.676863 385.973032 
C 248.676863 376.18951 241.322494 366.805378 228.233472 359.887383 
C 215.14445 352.969387 197.389435 349.082352 178.878763 349.082352 
C 160.36809 349.082352 142.613075 352.969387 129.524053 359.887383 
C 116.435031 366.805378 109.080663 376.18951 109.080663 385.973032 
C 109.080663 395.756555 116.435031 405.140687 129.524053 412.058682 
C 142.613075 418.976678 160.36809 422.863712 178.878763 422.863712 
z
" clip-path="url(#pf205075575)" style="fill: #eeeeee; opacity: 0.85; stroke: #555555; stroke-width: 1.5; stroke-linejoin: miter"/>
   </g>
   <g id="patch_4">
    <path d="M 336.683163 375.122832 
C 355.998647 375.122832 374.525619 371.693096 388.183729 365.588982 
C 401.841839 359.484869 409.515963 351.204753 409.515963 342.572232 
C 409.515963 333.939712 401.841839 325.659596 388.183729 319.555483 
C 374.525619 313.451369 355.998647 310.021632 336.683163 310.021632 
C 317.367678 310.021632 298.840706 313.451369 285.182596 319.555483 
C 271.524486 325.659596 263.850363 333.939712 263.850363 342.572232 
C 263.850363 351.204753 271.524486 359.484869 285.182596 365.588982 
C 298.840706 371.693096 317.367678 375.122832 336.683163 375.122832 
z
" clip-path="url(#pf205075575)" style="fill: #eaf2f8; opacity: 0.85; stroke: #1a6a9a; stroke-width: 1.5; stroke-linejoin: miter"/>
   </g>
   <g id="patch_5">
    <path d="M 543.042762 355.592472 
C 560.748623 355.592472 577.731681 352.391385 590.251615 346.694212 
C 602.77155 340.99704 609.806163 333.268931 609.806163 325.211912 
C 609.806163 317.154894 602.77155 309.426785 590.251615 303.729613 
C 577.731681 298.03244 560.748623 294.831352 543.042762 294.831352 
C 525.336902 294.831352 508.353844 298.03244 495.83391 303.729613 
C 483.313975 309.426785 476.279362 317.154894 476.279362 325.211912 
C 476.279362 333.268931 483.313975 340.99704 495.83391 346.694212 
C 508.353844 352.391385 525.336902 355.592472 543.042762 355.592472 
z
" clip-path="url(#pf205075575)" style="fill: #eaf2f8; opacity: 0.85; stroke: #1a6a9a; stroke-width: 1.5; stroke-linejoin: miter"/>
   </g>
   <g id="patch_6">
    <path d="M 379.168963 286.151192 
C 398.484447 286.151192 417.011419 282.950105 430.669529 277.252932 
C 444.327639 271.55576 452.001763 263.827651 452.001763 255.770632 
C 452.001763 247.713614 444.327639 239.985505 430.669529 234.288333 
C 417.011419 228.59116 398.484447 225.390072 379.168963 225.390072 
C 359.853478 225.390072 341.326506 228.59116 327.668396 234.288333 
C 314.010286 239.985505 306.336163 247.713614 306.336163 255.770632 
C 306.336163 263.827651 314.010286 271.55576 327.668396 277.252932 
C 341.326506 282.950105 359.853478 286.151192 379.168963 286.151192 
z
" clip-path="url(#pf205075575)" style="fill: #eaf2f8; opacity: 0.85; stroke: #1a6a9a; stroke-width: 1.5; stroke-linejoin: miter"/>
   </g>
   <g id="patch_7">
    <path d="M 354.891363 323.041872 
C 370.182788 323.041872 384.849974 320.526732 395.662645 316.050382 
C 406.475315 311.574033 412.550663 305.501947 412.550663 299.171432 
C 412.550663 292.840918 406.475315 286.768832 395.662645 282.292483 
C 384.849974 277.816133 370.182788 275.300992 354.891363 275.300992 
C 339.599937 275.300992 324.932751 277.816133 314.12008 282.292483 
C 303.30741 286.768832 297.232062 292.840918 297.232062 299.171432 
C 297.232062 305.501947 303.30741 311.574033 314.12008 316.050382 
C 324.932751 320.526732 339.599937 323.041872 354.891363 323.041872 
z
" clip-path="url(#pf205075575)" style="fill: #e8f6ef; opacity: 0.85; stroke: #1e8449; stroke-width: 1.5; stroke-linejoin: miter"/>
   </g>
   <g id="patch_8">
    <path d="M 518.765163 268.790872 
C 535.666211 268.790872 551.877312 265.589785 563.828158 259.892612 
C 575.779005 254.19544 582.493863 246.467331 582.493863 238.410312 
C 582.493863 230.353294 575.779005 222.625185 563.828158 216.928013 
C 551.877312 211.23084 535.666211 208.029752 518.765163 208.029752 
C 501.864114 208.029752 485.653013 211.23084 473.702167 216.928013 
C 461.75132 222.625185 455.036463 230.353294 455.036463 238.410312 
C 455.036463 246.467331 461.75132 254.19544 473.702167 259.892612 
C 485.653013 265.589785 501.864114 268.790872 518.765163 268.790872 
z
" clip-path="url(#pf205075575)" style="fill: #fef9e7; opacity: 0.85; stroke: #9a7d0a; stroke-width: 1.5; stroke-linejoin: miter"/>
   </g>
   <g id="patch_9">
    <path d="M 397.377163 197.179552 
C 415.887835 197.179552 433.64285 194.207114 446.731872 188.916882 
C 459.820894 183.626651 467.175263 176.45055 467.175263 168.969032 
C 467.175263 161.487515 459.820894 154.311414 446.731872 149.021183 
C 433.64285 143.730951 415.887835 140.758512 397.377163 140.758512 
C 378.86649 140.758512 361.111475 143.730951 348.022453 149.021183 
C 334.933431 154.311414 327.579063 161.487515 327.579063 168.969032 
C 327.579063 176.45055 334.933431 183.626651 348.022453 188.916882 
C 361.111475 194.207114 378.86649 197.179552 397.377163 197.179552 
z
" clip-path="url(#pf205075575)" style="fill: #eaf2f8; opacity: 0.85; stroke: #1a6a9a; stroke-width: 1.5; stroke-linejoin: miter"/>
   </g>
   <g id="patch_10">
    <path d="M 360.960763 97.357712 
C 381.885871 97.357712 401.956757 94.385274 416.753043 89.095042 
C 431.549329 83.804811 439.862963 76.62871 439.862963 69.147192 
C 439.862963 61.665675 431.549329 54.489574 416.753043 49.199343 
C 401.956757 43.909111 381.885871 40.936672 360.960763 40.936672 
C 340.035654 40.936672 319.964768 43.909111 305.168482 49.199343 
C 290.372196 54.489574 282.058562 61.665675 282.058562 69.147192 
C 282.058562 76.62871 290.372196 83.804811 305.168482 89.095042 
C 319.964768 94.385274 340.035654 97.357712 360.960763 97.357712 
z
" clip-path="url(#pf205075575)" style="fill: #fdf2e9; opacity: 0.85; stroke: #b03a2e; stroke-width: 1.5; stroke-linejoin: miter"/>
   </g>
   <g id="patch_11">
    <path d="M 646.222563 114.718032 
C 661.513988 114.718032 676.181174 111.288296 686.993845 105.184182 
C 697.806515 99.080069 703.881863 90.799953 703.881863 82.167432 
C 703.881863 73.534912 697.806515 65.254796 686.993845 59.150683 
C 676.181174 53.046569 661.513988 49.616832 646.222563 49.616832 
C 630.931137 49.616832 616.263951 53.046569 605.45128 59.150683 
C 594.63861 65.254796 588.563263 73.534912 588.563263 82.167432 
C 588.563263 90.799953 594.63861 99.080069 605.45128 105.184182 
C 616.263951 111.288296 630.931137 114.718032 646.222563 114.718032 
z
" clip-path="url(#pf205075575)" style="fill: #f4ecf7; opacity: 0.85; stroke: #6c3483; stroke-width: 1.5; stroke-linejoin: miter"/>
   </g>
   <g id="matplotlib.axis_1">
    <g id="xtick_1">
     <g id="line2d_1">
      <defs>
       <path id="m5105eb5cd1" d="M 0 0 
L 0 3.5 
" style="stroke: #000000; stroke-width: 0.8"/>
      </defs>
      <g>
       <use xlink:href="#m5105eb5cd1" x="160.670563" y="455.414312" style="stroke: #000000; stroke-width: 0.8"/>
      </g>
     </g>
     <g id="text_1">
      <!-- runtime -->
      <g transform="translate(144.919313 468.493062) scale(0.08 -0.08)">
       <defs>
        <path id="DejaVuSans-72" d="M 2631 2963 
Q 2534 3019 2420 3045 
Q 2306 3072 2169 3072 
Q 1681 3072 1420 2755 
Q 1159 2438 1159 1844 
L 1159 0 
L 581 0 
L 581 3500 
L 1159 3500 
L 1159 2956 
Q 1341 3275 1631 3429 
Q 1922 3584 2338 3584 
Q 2397 3584 2469 3576 
Q 2541 3569 2628 3553 
L 2631 2963 
z
" transform="scale(0.015625)"/>
        <path id="DejaVuSans-75" d="M 544 1381 
L 544 3500 
L 1119 3500 
L 1119 1403 
Q 1119 906 1312 657 
Q 1506 409 1894 409 
Q 2359 409 2629 706 
Q 2900 1003 2900 1516 
L 2900 3500 
L 3475 3500 
L 3475 0 
L 2900 0 
L 2900 538 
Q 2691 219 2414 64 
Q 2138 -91 1772 -91 
Q 1169 -91 856 284 
Q 544 659 544 1381 
z
M 1991 3584 
L 1991 3584 
z
" transform="scale(0.015625)"/>
        <path id="DejaVuSans-6e" d="M 3513 2113 
L 3513 0 
L 2938 0 
L 2938 2094 
Q 2938 2591 2744 2837 
Q 2550 3084 2163 3084 
Q 1697 3084 1428 2787 
Q 1159 2491 1159 1978 
L 1159 0 
L 581 0 
L 581 3500 
L 1159 3500 
L 1159 2956 
Q 1366 3272 1645 3428 
Q 1925 3584 2291 3584 
Q 2894 3584 3203 3211 
Q 3513 2838 3513 2113 
z
" transform="scale(0.015625)"/>
        <path id="DejaVuSans-74" d="M 1172 4494 
L 1172 3500 
L 2356 3500 
L 2356 3053 
L 1172 3053 
L 1172 1153 
Q 1172 725 1289 603 
Q 1406 481 1766 481 
L 2356 481 
L 2356 0 
L 1766 0 
Q 1100 0 847 248 
Q 594 497 594 1153 
L 594 3053 
L 172 3053 
L 172 3500 
L 594 3500 
L 594 4494 
L 1172 4494 
z
" transform="scale(0.015625)"/>
        <path id="DejaVuSans-69" d="M 603 3500 
L 1178 3500 
L 1178 0 
L 603 0 
L 603 3500 
z
M 603 4863 
L 1178 4863 
L 1178 4134 
L 603 4134 
L 603 4863 
z
" transform="scale(0.015625)"/>
        <path id="DejaVuSans-6d" d="M 3328 2828 
Q 3544 3216 3844 3400 
Q 4144 3584 4550 3584 
Q 5097 3584 5394 3201 
Q 5691 2819 5691 2113 
L 5691 0 
L 5113 0 
L 5113 2094 
Q 5113 2597 4934 2840 
Q 4756 3084 4391 3084 
Q 3944 3084 3684 2787 
Q 3425 2491 3425 1978 
L 3425 0 
L 2847 0 
L 2847 2094 
Q 2847 2600 2669 2842 
Q 2491 3084 2119 3084 
Q 1678 3084 1418 2786 
Q 1159 2488 1159 1978 
L 1159 0 
L 581 0 
L 581 3500 
L 1159 3500 
L 1159 2956 
Q 1356 3278 1631 3431 
Q 1906 3584 2284 3584 
Q 2666 3584 2933 3390 
Q 3200 3197 3328 2828 
z
" transform="scale(0.015625)"/>
        <path id="DejaVuSans-65" d="M 3597 1894 
L 3597 1613 
L 953 1613 
Q 991 1019 1311 708 
Q 1631 397 2203 397 
Q 2534 397 2845 478 
Q 3156 559 3463 722 
L 3463 178 
Q 3153 47 2828 -22 
Q 2503 -91 2169 -91 
Q 1331 -91 842 396 
Q 353 884 353 1716 
Q 353 2575 817 3079 
Q 1281 3584 2069 3584 
Q 2775 3584 3186 3129 
Q 3597 2675 3597 1894 
z
M 3022 2063 
Q 3016 2534 2758 2815 
Q 2500 3097 2075 3097 
Q 1594 3097 1305 2825 
Q 1016 2553 972 2059 
L 3022 2063 
z
" transform="scale(0.015625)"/>
       </defs>
       <use xlink:href="#DejaVuSans-72"/>
       <use xlink:href="#DejaVuSans-75" transform="translate(41.113281 0)"/>
       <use xlink:href="#DejaVuSans-6e" transform="translate(104.492188 0)"/>
       <use xlink:href="#DejaVuSans-74" transform="translate(167.871094 0)"/>
       <use xlink:href="#DejaVuSans-69" transform="translate(207.080078 0)"/>
       <use xlink:href="#DejaVuSans-6d" transform="translate(234.863281 0)"/>
       <use xlink:href="#DejaVuSans-65" transform="translate(332.275391 0)"/>
      </g>
      <!-- (hardware discovers) -->
      <g transform="translate(118.501813 477.451312) scale(0.08 -0.08)">
       <defs>
        <path id="DejaVuSans-28" d="M 1984 4856 
Q 1566 4138 1362 3434 
Q 1159 2731 1159 2009 
Q 1159 1288 1364 580 
Q 1569 -128 1984 -844 
L 1484 -844 
Q 1016 -109 783 600 
Q 550 1309 550 2009 
Q 550 2706 781 3412 
Q 1013 4119 1484 4856 
L 1984 4856 
z
" transform="scale(0.015625)"/>
        <path id="DejaVuSans-68" d="M 3513 2113 
L 3513 0 
L 2938 0 
L 2938 2094 
Q 2938 2591 2744 2837 
Q 2550 3084 2163 3084 
Q 1697 3084 1428 2787 
Q 1159 2491 1159 1978 
L 1159 0 
L 581 0 
L 581 4863 
L 1159 4863 
L 1159 2956 
Q 1366 3272 1645 3428 
Q 1925 3584 2291 3584 
Q 2894 3584 3203 3211 
Q 3513 2838 3513 2113 
z
" transform="scale(0.015625)"/>
        <path id="DejaVuSans-61" d="M 2194 1759 
Q 1497 1759 1228 1600 
Q 959 1441 959 1056 
Q 959 750 1161 570 
Q 1363 391 1709 391 
Q 2188 391 2477 730 
Q 2766 1069 2766 1631 
L 2766 1759 
L 2194 1759 
z
M 3341 1997 
L 3341 0 
L 2766 0 
L 2766 531 
Q 2569 213 2275 61 
Q 1981 -91 1556 -91 
Q 1019 -91 701 211 
Q 384 513 384 1019 
Q 384 1609 779 1909 
Q 1175 2209 1959 2209 
L 2766 2209 
L 2766 2266 
Q 2766 2663 2505 2880 
Q 2244 3097 1772 3097 
Q 1472 3097 1187 3025 
Q 903 2953 641 2809 
L 641 3341 
Q 956 3463 1253 3523 
Q 1550 3584 1831 3584 
Q 2591 3584 2966 3190 
Q 3341 2797 3341 1997 
z
" transform="scale(0.015625)"/>
        <path id="DejaVuSans-64" d="M 2906 2969 
L 2906 4863 
L 3481 4863 
L 3481 0 
L 2906 0 
L 2906 525 
Q 2725 213 2448 61 
Q 2172 -91 1784 -91 
Q 1150 -91 751 415 
Q 353 922 353 1747 
Q 353 2572 751 3078 
Q 1150 3584 1784 3584 
Q 2172 3584 2448 3432 
Q 2725 3281 2906 2969 
z
M 947 1747 
Q 947 1113 1208 752 
Q 1469 391 1925 391 
Q 2381 391 2643 752 
Q 2906 1113 2906 1747 
Q 2906 2381 2643 2742 
Q 2381 3103 1925 3103 
Q 1469 3103 1208 2742 
Q 947 2381 947 1747 
z
" transform="scale(0.015625)"/>
        <path id="DejaVuSans-77" d="M 269 3500 
L 844 3500 
L 1563 769 
L 2278 3500 
L 2956 3500 
L 3675 769 
L 4391 3500 
L 4966 3500 
L 4050 0 
L 3372 0 
L 2619 2869 
L 1863 0 
L 1184 0 
L 269 3500 
z
" transform="scale(0.015625)"/>
        <path id="DejaVuSans-20" transform="scale(0.015625)"/>
        <path id="DejaVuSans-73" d="M 2834 3397 
L 2834 2853 
Q 2591 2978 2328 3040 
Q 2066 3103 1784 3103 
Q 1356 3103 1142 2972 
Q 928 2841 928 2578 
Q 928 2378 1081 2264 
Q 1234 2150 1697 2047 
L 1894 2003 
Q 2506 1872 2764 1633 
Q 3022 1394 3022 966 
Q 3022 478 2636 193 
Q 2250 -91 1575 -91 
Q 1294 -91 989 -36 
Q 684 19 347 128 
L 347 722 
Q 666 556 975 473 
Q 1284 391 1588 391 
Q 1994 391 2212 530 
Q 2431 669 2431 922 
Q 2431 1156 2273 1281 
Q 2116 1406 1581 1522 
L 1381 1569 
Q 847 1681 609 1914 
Q 372 2147 372 2553 
Q 372 3047 722 3315 
Q 1072 3584 1716 3584 
Q 2034 3584 2315 3537 
Q 2597 3491 2834 3397 
z
" transform="scale(0.015625)"/>
        <path id="DejaVuSans-63" d="M 3122 3366 
L 3122 2828 
Q 2878 2963 2633 3030 
Q 2388 3097 2138 3097 
Q 1578 3097 1268 2742 
Q 959 2388 959 1747 
Q 959 1106 1268 751 
Q 1578 397 2138 397 
Q 2388 397 2633 464 
Q 2878 531 3122 666 
L 3122 134 
Q 2881 22 2623 -34 
Q 2366 -91 2075 -91 
Q 1284 -91 818 406 
Q 353 903 353 1747 
Q 353 2603 823 3093 
Q 1294 3584 2113 3584 
Q 2378 3584 2631 3529 
Q 2884 3475 3122 3366 
z
" transform="scale(0.015625)"/>
        <path id="DejaVuSans-6f" d="M 1959 3097 
Q 1497 3097 1228 2736 
Q 959 2375 959 1747 
Q 959 1119 1226 758 
Q 1494 397 1959 397 
Q 2419 397 2687 759 
Q 2956 1122 2956 1747 
Q 2956 2369 2687 2733 
Q 2419 3097 1959 3097 
z
M 1959 3584 
Q 2709 3584 3137 3096 
Q 3566 2609 3566 1747 
Q 3566 888 3137 398 
Q 2709 -91 1959 -91 
Q 1206 -91 779 398 
Q 353 888 353 1747 
Q 353 2609 779 3096 
Q 1206 3584 1959 3584 
z
" transform="scale(0.015625)"/>
        <path id="DejaVuSans-76" d="M 191 3500 
L 800 3500 
L 1894 563 
L 2988 3500 
L 3597 3500 
L 2284 0 
L 1503 0 
L 191 3500 
z
" transform="scale(0.015625)"/>
        <path id="DejaVuSans-29" d="M 513 4856 
L 1013 4856 
Q 1481 4119 1714 3412 
Q 1947 2706 1947 2009 
Q 1947 1309 1714 600 
Q 1481 -109 1013 -844 
L 513 -844 
Q 928 -128 1133 580 
Q 1338 1288 1338 2009 
Q 1338 2731 1133 3434 
Q 928 4138 513 4856 
z
" transform="scale(0.015625)"/>
       </defs>
       <use xlink:href="#DejaVuSans-28"/>
       <use xlink:href="#DejaVuSans-68" transform="translate(39.013672 0)"/>
       <use xlink:href="#DejaVuSans-61" transform="translate(102.392578 0)"/>
       <use xlink:href="#DejaVuSans-72" transform="translate(163.671875 0)"/>
       <use xlink:href="#DejaVuSans-64" transform="translate(203.035156 0)"/>
       <use xlink:href="#DejaVuSans-77" transform="translate(266.511719 0)"/>
       <use xlink:href="#DejaVuSans-61" transform="translate(348.298828 0)"/>
       <use xlink:href="#DejaVuSans-72" transform="translate(409.578125 0)"/>
       <use xlink:href="#DejaVuSans-65" transform="translate(448.441406 0)"/>
       <use xlink:href="#DejaVuSans-20" transform="translate(509.964844 0)"/>
       <use xlink:href="#DejaVuSans-64" transform="translate(541.751953 0)"/>
       <use xlink:href="#DejaVuSans-69" transform="translate(605.228516 0)"/>
       <use xlink:href="#DejaVuSans-73" transform="translate(633.011719 0)"/>
       <use xlink:href="#DejaVuSans-63" transform="translate(685.111328 0)"/>
       <use xlink:href="#DejaVuSans-6f" transform="translate(740.091797 0)"/>
       <use xlink:href="#DejaVuSans-76" transform="translate(801.273438 0)"/>
       <use xlink:href="#DejaVuSans-65" transform="translate(860.453125 0)"/>
       <use xlink:href="#DejaVuSans-72" transform="translate(921.976562 0)"/>
       <use xlink:href="#DejaVuSans-73" transform="translate(963.089844 0)"/>
       <use xlink:href="#DejaVuSans-29" transform="translate(1015.189453 0)"/>
      </g>
     </g>
    </g>
    <g id="xtick_2">
     <g id="line2d_2">
      <g>
       <use xlink:href="#m5105eb5cd1" x="342.752563" y="455.414312" style="stroke: #000000; stroke-width: 0.8"/>
      </g>
     </g>
     <g id="text_2">
      <!-- compile time -->
      <g transform="translate(316.678188 468.493062) scale(0.08 -0.08)">
       <defs>
        <path id="DejaVuSans-70" d="M 1159 525 
L 1159 -1331 
L 581 -1331 
L 581 3500 
L 1159 3500 
L 1159 2969 
Q 1341 3281 1617 3432 
Q 1894 3584 2278 3584 
Q 2916 3584 3314 3078 
Q 3713 2572 3713 1747 
Q 3713 922 3314 415 
Q 2916 -91 2278 -91 
Q 1894 -91 1617 61 
Q 1341 213 1159 525 
z
M 3116 1747 
Q 3116 2381 2855 2742 
Q 2594 3103 2138 3103 
Q 1681 3103 1420 2742 
Q 1159 2381 1159 1747 
Q 1159 1113 1420 752 
Q 1681 391 2138 391 
Q 2594 391 2855 752 
Q 3116 1113 3116 1747 
z
" transform="scale(0.015625)"/>
        <path id="DejaVuSans-6c" d="M 603 4863 
L 1178 4863 
L 1178 0 
L 603 0 
L 603 4863 
z
" transform="scale(0.015625)"/>
       </defs>
       <use xlink:href="#DejaVuSans-63"/>
       <use xlink:href="#DejaVuSans-6f" transform="translate(54.980469 0)"/>
       <use xlink:href="#DejaVuSans-6d" transform="translate(116.162109 0)"/>
       <use xlink:href="#DejaVuSans-70" transform="translate(213.574219 0)"/>
       <use xlink:href="#DejaVuSans-69" transform="translate(277.050781 0)"/>
       <use xlink:href="#DejaVuSans-6c" transform="translate(304.833984 0)"/>
       <use xlink:href="#DejaVuSans-65" transform="translate(332.617188 0)"/>
       <use xlink:href="#DejaVuSans-20" transform="translate(394.140625 0)"/>
       <use xlink:href="#DejaVuSans-74" transform="translate(425.927734 0)"/>
       <use xlink:href="#DejaVuSans-69" transform="translate(465.136719 0)"/>
       <use xlink:href="#DejaVuSans-6d" transform="translate(492.919922 0)"/>
       <use xlink:href="#DejaVuSans-65" transform="translate(590.332031 0)"/>
      </g>
      <!-- (compiler owns) -->
      <g transform="translate(310.611938 477.451312) scale(0.08 -0.08)">
       <use xlink:href="#DejaVuSans-28"/>
       <use xlink:href="#DejaVuSans-63" transform="translate(39.013672 0)"/>
       <use xlink:href="#DejaVuSans-6f" transform="translate(93.994141 0)"/>
       <use xlink:href="#DejaVuSans-6d" transform="translate(155.175781 0)"/>
       <use xlink:href="#DejaVuSans-70" transform="translate(252.587891 0)"/>
       <use xlink:href="#DejaVuSans-69" transform="translate(316.064453 0)"/>
       <use xlink:href="#DejaVuSans-6c" transform="translate(343.847656 0)"/>
       <use xlink:href="#DejaVuSans-65" transform="translate(371.630859 0)"/>
       <use xlink:href="#DejaVuSans-72" transform="translate(433.154297 0)"/>
       <use xlink:href="#DejaVuSans-20" transform="translate(474.267578 0)"/>
       <use xlink:href="#DejaVuSans-6f" transform="translate(506.054688 0)"/>
       <use xlink:href="#DejaVuSans-77" transform="translate(567.236328 0)"/>
       <use xlink:href="#DejaVuSans-6e" transform="translate(649.023438 0)"/>
       <use xlink:href="#DejaVuSans-73" transform="translate(712.402344 0)"/>
       <use xlink:href="#DejaVuSans-29" transform="translate(764.501953 0)"/>
      </g>
     </g>
    </g>
    <g id="xtick_3">
     <g id="line2d_3">
      <g>
       <use xlink:href="#m5105eb5cd1" x="524.834563" y="455.414312" style="stroke: #000000; stroke-width: 0.8"/>
      </g>
     </g>
     <g id="text_3">
      <!-- design time -->
      <g transform="translate(501.256438 468.493062) scale(0.08 -0.08)">
       <defs>
        <path id="DejaVuSans-67" d="M 2906 1791 
Q 2906 2416 2648 2759 
Q 2391 3103 1925 3103 
Q 1463 3103 1205 2759 
Q 947 2416 947 1791 
Q 947 1169 1205 825 
Q 1463 481 1925 481 
Q 2391 481 2648 825 
Q 2906 1169 2906 1791 
z
M 3481 434 
Q 3481 -459 3084 -895 
Q 2688 -1331 1869 -1331 
Q 1566 -1331 1297 -1286 
Q 1028 -1241 775 -1147 
L 775 -588 
Q 1028 -725 1275 -790 
Q 1522 -856 1778 -856 
Q 2344 -856 2625 -561 
Q 2906 -266 2906 331 
L 2906 616 
Q 2728 306 2450 153 
Q 2172 0 1784 0 
Q 1141 0 747 490 
Q 353 981 353 1791 
Q 353 2603 747 3093 
Q 1141 3584 1784 3584 
Q 2172 3584 2450 3431 
Q 2728 3278 2906 2969 
L 2906 3500 
L 3481 3500 
L 3481 434 
z
" transform="scale(0.015625)"/>
       </defs>
       <use xlink:href="#DejaVuSans-64"/>
       <use xlink:href="#DejaVuSans-65" transform="translate(63.476562 0)"/>
       <use xlink:href="#DejaVuSans-73" transform="translate(125 0)"/>
       <use xlink:href="#DejaVuSans-69" transform="translate(177.099609 0)"/>
       <use xlink:href="#DejaVuSans-67" transform="translate(204.882812 0)"/>
       <use xlink:href="#DejaVuSans-6e" transform="translate(268.359375 0)"/>
       <use xlink:href="#DejaVuSans-20" transform="translate(331.738281 0)"/>
       <use xlink:href="#DejaVuSans-74" transform="translate(363.525391 0)"/>
       <use xlink:href="#DejaVuSans-69" transform="translate(402.734375 0)"/>
       <use xlink:href="#DejaVuSans-6d" transform="translate(430.517578 0)"/>
       <use xlink:href="#DejaVuSans-65" transform="translate(527.929688 0)"/>
      </g>
      <!-- (geometry owns) -->
      <g transform="translate(490.718938 477.451312) scale(0.08 -0.08)">
       <defs>
        <path id="DejaVuSans-79" d="M 2059 -325 
Q 1816 -950 1584 -1140 
Q 1353 -1331 966 -1331 
L 506 -1331 
L 506 -850 
L 844 -850 
Q 1081 -850 1212 -737 
Q 1344 -625 1503 -206 
L 1606 56 
L 191 3500 
L 800 3500 
L 1894 763 
L 2988 3500 
L 3597 3500 
L 2059 -325 
z
" transform="scale(0.015625)"/>
       </defs>
       <use xlink:href="#DejaVuSans-28"/>
       <use xlink:href="#DejaVuSans-67" transform="translate(39.013672 0)"/>
       <use xlink:href="#DejaVuSans-65" transform="translate(102.490234 0)"/>
       <use xlink:href="#DejaVuSans-6f" transform="translate(164.013672 0)"/>
       <use xlink:href="#DejaVuSans-6d" transform="translate(225.195312 0)"/>
       <use xlink:href="#DejaVuSans-65" transform="translate(322.607422 0)"/>
       <use xlink:href="#DejaVuSans-74" transform="translate(384.130859 0)"/>
       <use xlink:href="#DejaVuSans-72" transform="translate(423.339844 0)"/>
       <use xlink:href="#DejaVuSans-79" transform="translate(464.453125 0)"/>
       <use xlink:href="#DejaVuSans-20" transform="translate(523.632812 0)"/>
       <use xlink:href="#DejaVuSans-6f" transform="translate(555.419922 0)"/>
       <use xlink:href="#DejaVuSans-77" transform="translate(616.601562 0)"/>
       <use xlink:href="#DejaVuSans-6e" transform="translate(698.388672 0)"/>
       <use xlink:href="#DejaVuSans-73" transform="translate(761.767578 0)"/>
       <use xlink:href="#DejaVuSans-29" transform="translate(813.867188 0)"/>
      </g>
     </g>
    </g>
    <g id="xtick_4">
     <g id="line2d_4">
      <g>
       <use xlink:href="#m5105eb5cd1" x="658.361363" y="455.414312" style="stroke: #000000; stroke-width: 0.8"/>
      </g>
     </g>
     <g id="text_4">
      <!-- input-driven -->
      <g transform="translate(633.970738 468.493062) scale(0.08 -0.08)">
       <defs>
        <path id="DejaVuSans-2d" d="M 313 2009 
L 1997 2009 
L 1997 1497 
L 313 1497 
L 313 2009 
z
" transform="scale(0.015625)"/>
       </defs>
       <use xlink:href="#DejaVuSans-69"/>
       <use xlink:href="#DejaVuSans-6e" transform="translate(27.783203 0)"/>
       <use xlink:href="#DejaVuSans-70" transform="translate(91.162109 0)"/>
       <use xlink:href="#DejaVuSans-75" transform="translate(154.638672 0)"/>
       <use xlink:href="#DejaVuSans-74" transform="translate(218.017578 0)"/>
       <use xlink:href="#DejaVuSans-2d" transform="translate(257.226562 0)"/>
       <use xlink:href="#DejaVuSans-64" transform="translate(293.310547 0)"/>
       <use xlink:href="#DejaVuSans-72" transform="translate(356.787109 0)"/>
       <use xlink:href="#DejaVuSans-69" transform="translate(397.900391 0)"/>
       <use xlink:href="#DejaVuSans-76" transform="translate(425.683594 0)"/>
       <use xlink:href="#DejaVuSans-65" transform="translate(484.863281 0)"/>
       <use xlink:href="#DejaVuSans-6e" transform="translate(546.386719 0)"/>
      </g>
      <!-- (events own) -->
      <g transform="translate(632.238238 477.451312) scale(0.08 -0.08)">
       <use xlink:href="#DejaVuSans-28"/>
       <use xlink:href="#DejaVuSans-65" transform="translate(39.013672 0)"/>
       <use xlink:href="#DejaVuSans-76" transform="translate(100.537109 0)"/>
       <use xlink:href="#DejaVuSans-65" transform="translate(159.716797 0)"/>
       <use xlink:href="#DejaVuSans-6e" transform="translate(221.240234 0)"/>
       <use xlink:href="#DejaVuSans-74" transform="translate(284.619141 0)"/>
       <use xlink:href="#DejaVuSans-73" transform="translate(323.828125 0)"/>
       <use xlink:href="#DejaVuSans-20" transform="translate(375.927734 0)"/>
       <use xlink:href="#DejaVuSans-6f" transform="translate(407.714844 0)"/>
       <use xlink:href="#DejaVuSans-77" transform="translate(468.896484 0)"/>
       <use xlink:href="#DejaVuSans-6e" transform="translate(550.683594 0)"/>
       <use xlink:href="#DejaVuSans-29" transform="translate(614.0625 0)"/>
      </g>
     </g>
    </g>
    <g id="text_5">
     <!-- When execution uncertainty is resolved  → -->
     <g transform="translate(307.647891 489.953656) scale(0.09 -0.09)">
      <defs>
       <path id="DejaVuSans-57" d="M 213 4666 
L 850 4666 
L 1831 722 
L 2809 4666 
L 3519 4666 
L 4500 722 
L 5478 4666 
L 6119 4666 
L 4947 0 
L 4153 0 
L 3169 4050 
L 2175 0 
L 1381 0 
L 213 4666 
z
" transform="scale(0.015625)"/>
       <path id="DejaVuSans-78" d="M 3513 3500 
L 2247 1797 
L 3578 0 
L 2900 0 
L 1881 1375 
L 863 0 
L 184 0 
L 1544 1831 
L 300 3500 
L 978 3500 
L 1906 2253 
L 2834 3500 
L 3513 3500 
z
" transform="scale(0.015625)"/>
       <path id="DejaVuSans-2192" d="M 5050 2147 
L 5050 1866 
L 3822 638 
L 3447 1013 
L 4175 1741 
L 366 1741 
L 366 2272 
L 4175 2272 
L 3447 3000 
L 3822 3375 
L 5050 2147 
z
" transform="scale(0.015625)"/>
      </defs>
      <use xlink:href="#DejaVuSans-57"/>
      <use xlink:href="#DejaVuSans-68" transform="translate(98.876953 0)"/>
      <use xlink:href="#DejaVuSans-65" transform="translate(162.255859 0)"/>
      <use xlink:href="#DejaVuSans-6e" transform="translate(223.779297 0)"/>
      <use xlink:href="#DejaVuSans-20" transform="translate(287.158203 0)"/>
      <use xlink:href="#DejaVuSans-65" transform="translate(318.945312 0)"/>
      <use xlink:href="#DejaVuSans-78" transform="translate(378.71875 0)"/>
      <use xlink:href="#DejaVuSans-65" transform="translate(434.773438 0)"/>
      <use xlink:href="#DejaVuSans-63" transform="translate(496.296875 0)"/>
      <use xlink:href="#DejaVuSans-75" transform="translate(551.277344 0)"/>
      <use xlink:href="#DejaVuSans-74" transform="translate(614.65625 0)"/>
      <use xlink:href="#DejaVuSans-69" transform="translate(653.865234 0)"/>
      <use xlink:href="#DejaVuSans-6f" transform="translate(681.648438 0)"/>
      <use xlink:href="#DejaVuSans-6e" transform="translate(742.830078 0)"/>
      <use xlink:href="#DejaVuSans-20" transform="translate(806.208984 0)"/>
      <use xlink:href="#DejaVuSans-75" transform="translate(837.996094 0)"/>
      <use xlink:href="#DejaVuSans-6e" transform="translate(901.375 0)"/>
      <use xlink:href="#DejaVuSans-63" transform="translate(964.753906 0)"/>
      <use xlink:href="#DejaVuSans-65" transform="translate(1019.734375 0)"/>
      <use xlink:href="#DejaVuSans-72" transform="translate(1081.257812 0)"/>
      <use xlink:href="#DejaVuSans-74" transform="translate(1122.371094 0)"/>
      <use xlink:href="#DejaVuSans-61" transform="translate(1161.580078 0)"/>
      <use xlink:href="#DejaVuSans-69" transform="translate(1222.859375 0)"/>
      <use xlink:href="#DejaVuSans-6e" transform="translate(1250.642578 0)"/>
      <use xlink:href="#DejaVuSans-74" transform="translate(1314.021484 0)"/>
      <use xlink:href="#DejaVuSans-79" transform="translate(1353.230469 0)"/>
      <use xlink:href="#DejaVuSans-20" transform="translate(1412.410156 0)"/>
      <use xlink:href="#DejaVuSans-69" transform="translate(1444.197266 0)"/>
      <use xlink:href="#DejaVuSans-73" transform="translate(1471.980469 0)"/>
      <use xlink:href="#DejaVuSans-20" transform="translate(1524.080078 0)"/>
      <use xlink:href="#DejaVuSans-72" transform="translate(1555.867188 0)"/>
      <use xlink:href="#DejaVuSans-65" transform="translate(1594.730469 0)"/>
      <use xlink:href="#DejaVuSans-73" transform="translate(1656.253906 0)"/>
      <use xlink:href="#DejaVuSans-6f" transform="translate(1708.353516 0)"/>
      <use xlink:href="#DejaVuSans-6c" transform="translate(1769.535156 0)"/>
      <use xlink:href="#DejaVuSans-76" transform="translate(1797.318359 0)"/>
      <use xlink:href="#DejaVuSans-65" transform="translate(1856.498047 0)"/>
      <use xlink:href="#DejaVuSans-64" transform="translate(1918.021484 0)"/>
      <use xlink:href="#DejaVuSans-20" transform="translate(1981.498047 0)"/>
      <use xlink:href="#DejaVuSans-20" transform="translate(2013.285156 0)"/>
      <use xlink:href="#DejaVuSans-2192" transform="translate(2045.072266 0)"/>
     </g>
    </g>
   </g>
   <g id="matplotlib.axis_2">
    <g id="ytick_1">
     <g id="line2d_5">
      <defs>
       <path id="md4b10849b0" d="M 0 0 
L -3.5 0 
" style="stroke: #000000; stroke-width: 0.8"/>
      </defs>
      <g>
       <use xlink:href="#md4b10849b0" x="99.976562" y="403.333352" style="stroke: #000000; stroke-width: 0.8"/>
      </g>
     </g>
     <g id="text_6">
      <!-- off-package DRAM -->
      <g transform="translate(19.910313 402.501477) scale(0.08 -0.08)">
       <defs>
        <path id="DejaVuSans-66" d="M 2375 4863 
L 2375 4384 
L 1825 4384 
Q 1516 4384 1395 4259 
Q 1275 4134 1275 3809 
L 1275 3500 
L 2222 3500 
L 2222 3053 
L 1275 3053 
L 1275 0 
L 697 0 
L 697 3053 
L 147 3053 
L 147 3500 
L 697 3500 
L 697 3744 
Q 697 4328 969 4595 
Q 1241 4863 1831 4863 
L 2375 4863 
z
" transform="scale(0.015625)"/>
        <path id="DejaVuSans-6b" d="M 581 4863 
L 1159 4863 
L 1159 1991 
L 2875 3500 
L 3609 3500 
L 1753 1863 
L 3688 0 
L 2938 0 
L 1159 1709 
L 1159 0 
L 581 0 
L 581 4863 
z
" transform="scale(0.015625)"/>
        <path id="DejaVuSans-44" d="M 1259 4147 
L 1259 519 
L 2022 519 
Q 2988 519 3436 956 
Q 3884 1394 3884 2338 
Q 3884 3275 3436 3711 
Q 2988 4147 2022 4147 
L 1259 4147 
z
M 628 4666 
L 1925 4666 
Q 3281 4666 3915 4102 
Q 4550 3538 4550 2338 
Q 4550 1131 3912 565 
Q 3275 0 1925 0 
L 628 0 
L 628 4666 
z
" transform="scale(0.015625)"/>
        <path id="DejaVuSans-52" d="M 2841 2188 
Q 3044 2119 3236 1894 
Q 3428 1669 3622 1275 
L 4263 0 
L 3584 0 
L 2988 1197 
Q 2756 1666 2539 1819 
Q 2322 1972 1947 1972 
L 1259 1972 
L 1259 0 
L 628 0 
L 628 4666 
L 2053 4666 
Q 2853 4666 3247 4331 
Q 3641 3997 3641 3322 
Q 3641 2881 3436 2590 
Q 3231 2300 2841 2188 
z
M 1259 4147 
L 1259 2491 
L 2053 2491 
Q 2509 2491 2742 2702 
Q 2975 2913 2975 3322 
Q 2975 3731 2742 3939 
Q 2509 4147 2053 4147 
L 1259 4147 
z
" transform="scale(0.015625)"/>
        <path id="DejaVuSans-41" d="M 2188 4044 
L 1331 1722 
L 3047 1722 
L 2188 4044 
z
M 1831 4666 
L 2547 4666 
L 4325 0 
L 3669 0 
L 3244 1197 
L 1141 1197 
L 716 0 
L 50 0 
L 1831 4666 
z
" transform="scale(0.015625)"/>
        <path id="DejaVuSans-4d" d="M 628 4666 
L 1569 4666 
L 2759 1491 
L 3956 4666 
L 4897 4666 
L 4897 0 
L 4281 0 
L 4281 4097 
L 3078 897 
L 2444 897 
L 1241 4097 
L 1241 0 
L 628 0 
L 628 4666 
z
" transform="scale(0.015625)"/>
       </defs>
       <use xlink:href="#DejaVuSans-6f"/>
       <use xlink:href="#DejaVuSans-66" transform="translate(61.181641 0)"/>
       <use xlink:href="#DejaVuSans-66" transform="translate(96.386719 0)"/>
       <use xlink:href="#DejaVuSans-2d" transform="translate(126.091797 0)"/>
       <use xlink:href="#DejaVuSans-70" transform="translate(162.175781 0)"/>
       <use xlink:href="#DejaVuSans-61" transform="translate(225.652344 0)"/>
       <use xlink:href="#DejaVuSans-63" transform="translate(286.931641 0)"/>
       <use xlink:href="#DejaVuSans-6b" transform="translate(341.912109 0)"/>
       <use xlink:href="#DejaVuSans-61" transform="translate(398.072266 0)"/>
       <use xlink:href="#DejaVuSans-67" transform="translate(459.351562 0)"/>
       <use xlink:href="#DejaVuSans-65" transform="translate(522.828125 0)"/>
       <use xlink:href="#DejaVuSans-20" transform="translate(584.351562 0)"/>
       <use xlink:href="#DejaVuSans-44" transform="translate(616.138672 0)"/>
       <use xlink:href="#DejaVuSans-52" transform="translate(693.140625 0)"/>
       <use xlink:href="#DejaVuSans-41" transform="translate(758.623047 0)"/>
       <use xlink:href="#DejaVuSans-4d" transform="translate(827.03125 0)"/>
      </g>
      <!-- via caches -->
      <g transform="translate(50.714062 411.459727) scale(0.08 -0.08)">
       <use xlink:href="#DejaVuSans-76"/>
       <use xlink:href="#DejaVuSans-69" transform="translate(59.179688 0)"/>
       <use xlink:href="#DejaVuSans-61" transform="translate(86.962891 0)"/>
       <use xlink:href="#DejaVuSans-20" transform="translate(148.242188 0)"/>
       <use xlink:href="#DejaVuSans-63" transform="translate(180.029297 0)"/>
       <use xlink:href="#DejaVuSans-61" transform="translate(235.009766 0)"/>
       <use xlink:href="#DejaVuSans-63" transform="translate(296.289062 0)"/>
       <use xlink:href="#DejaVuSans-68" transform="translate(351.269531 0)"/>
       <use xlink:href="#DejaVuSans-65" transform="translate(414.648438 0)"/>
       <use xlink:href="#DejaVuSans-73" transform="translate(476.171875 0)"/>
      </g>
     </g>
    </g>
    <g id="ytick_2">
     <g id="line2d_6">
      <g>
       <use xlink:href="#md4b10849b0" x="99.976562" y="281.811112" style="stroke: #000000; stroke-width: 0.8"/>
      </g>
     </g>
     <g id="text_7">
      <!-- explicit on-chip -->
      <g transform="translate(32.014063 280.979237) scale(0.08 -0.08)">
       <use xlink:href="#DejaVuSans-65"/>
       <use xlink:href="#DejaVuSans-78" transform="translate(59.773438 0)"/>
       <use xlink:href="#DejaVuSans-70" transform="translate(118.953125 0)"/>
       <use xlink:href="#DejaVuSans-6c" transform="translate(182.429688 0)"/>
       <use xlink:href="#DejaVuSans-69" transform="translate(210.212891 0)"/>
       <use xlink:href="#DejaVuSans-63" transform="translate(237.996094 0)"/>
       <use xlink:href="#DejaVuSans-69" transform="translate(292.976562 0)"/>
       <use xlink:href="#DejaVuSans-74" transform="translate(320.759766 0)"/>
       <use xlink:href="#DejaVuSans-20" transform="translate(359.96875 0)"/>
       <use xlink:href="#DejaVuSans-6f" transform="translate(391.755859 0)"/>
       <use xlink:href="#DejaVuSans-6e" transform="translate(452.9375 0)"/>
       <use xlink:href="#DejaVuSans-2d" transform="translate(516.316406 0)"/>
       <use xlink:href="#DejaVuSans-63" transform="translate(552.400391 0)"/>
       <use xlink:href="#DejaVuSans-68" transform="translate(607.380859 0)"/>
       <use xlink:href="#DejaVuSans-69" transform="translate(670.759766 0)"/>
       <use xlink:href="#DejaVuSans-70" transform="translate(698.542969 0)"/>
      </g>
      <!-- SRAM -->
      <g transform="translate(70.284063 289.937487) scale(0.08 -0.08)">
       <defs>
        <path id="DejaVuSans-53" d="M 3425 4513 
L 3425 3897 
Q 3066 4069 2747 4153 
Q 2428 4238 2131 4238 
Q 1616 4238 1336 4038 
Q 1056 3838 1056 3469 
Q 1056 3159 1242 3001 
Q 1428 2844 1947 2747 
L 2328 2669 
Q 3034 2534 3370 2195 
Q 3706 1856 3706 1288 
Q 3706 609 3251 259 
Q 2797 -91 1919 -91 
Q 1588 -91 1214 -16 
Q 841 59 441 206 
L 441 856 
Q 825 641 1194 531 
Q 1563 422 1919 422 
Q 2459 422 2753 634 
Q 3047 847 3047 1241 
Q 3047 1584 2836 1778 
Q 2625 1972 2144 2069 
L 1759 2144 
Q 1053 2284 737 2584 
Q 422 2884 422 3419 
Q 422 4038 858 4394 
Q 1294 4750 2059 4750 
Q 2388 4750 2728 4690 
Q 3069 4631 3425 4513 
z
" transform="scale(0.015625)"/>
       </defs>
       <use xlink:href="#DejaVuSans-53"/>
       <use xlink:href="#DejaVuSans-52" transform="translate(63.476562 0)"/>
       <use xlink:href="#DejaVuSans-41" transform="translate(128.958984 0)"/>
       <use xlink:href="#DejaVuSans-4d" transform="translate(197.367188 0)"/>
      </g>
     </g>
    </g>
    <g id="ytick_3">
     <g id="line2d_7">
      <g>
       <use xlink:href="#md4b10849b0" x="99.976562" y="173.309112" style="stroke: #000000; stroke-width: 0.8"/>
      </g>
     </g>
     <g id="text_8">
      <!-- model-scale -->
      <g transform="translate(44.565312 172.477237) scale(0.08 -0.08)">
       <use xlink:href="#DejaVuSans-6d"/>
       <use xlink:href="#DejaVuSans-6f" transform="translate(97.412109 0)"/>
       <use xlink:href="#DejaVuSans-64" transform="translate(158.59375 0)"/>
       <use xlink:href="#DejaVuSans-65" transform="translate(222.070312 0)"/>
       <use xlink:href="#DejaVuSans-6c" transform="translate(283.59375 0)"/>
       <use xlink:href="#DejaVuSans-2d" transform="translate(311.376953 0)"/>
       <use xlink:href="#DejaVuSans-73" transform="translate(347.460938 0)"/>
       <use xlink:href="#DejaVuSans-63" transform="translate(399.560547 0)"/>
       <use xlink:href="#DejaVuSans-61" transform="translate(454.541016 0)"/>
       <use xlink:href="#DejaVuSans-6c" transform="translate(515.820312 0)"/>
       <use xlink:href="#DejaVuSans-65" transform="translate(543.603516 0)"/>
      </g>
      <!-- SRAM -->
      <g transform="translate(70.284063 181.435487) scale(0.08 -0.08)">
       <use xlink:href="#DejaVuSans-53"/>
       <use xlink:href="#DejaVuSans-52" transform="translate(63.476562 0)"/>
       <use xlink:href="#DejaVuSans-41" transform="translate(128.958984 0)"/>
       <use xlink:href="#DejaVuSans-4d" transform="translate(197.367188 0)"/>
      </g>
     </g>
    </g>
    <g id="ytick_4">
     <g id="line2d_8">
      <g>
       <use xlink:href="#md4b10849b0" x="99.976562" y="64.807112" style="stroke: #000000; stroke-width: 0.8"/>
      </g>
     </g>
     <g id="text_9">
      <!-- inside the -->
      <g transform="translate(53.621562 63.975237) scale(0.08 -0.08)">
       <use xlink:href="#DejaVuSans-69"/>
       <use xlink:href="#DejaVuSans-6e" transform="translate(27.783203 0)"/>
       <use xlink:href="#DejaVuSans-73" transform="translate(91.162109 0)"/>
       <use xlink:href="#DejaVuSans-69" transform="translate(143.261719 0)"/>
       <use xlink:href="#DejaVuSans-64" transform="translate(171.044922 0)"/>
       <use xlink:href="#DejaVuSans-65" transform="translate(234.521484 0)"/>
       <use xlink:href="#DejaVuSans-20" transform="translate(296.044922 0)"/>
       <use xlink:href="#DejaVuSans-74" transform="translate(327.832031 0)"/>
       <use xlink:href="#DejaVuSans-68" transform="translate(367.041016 0)"/>
       <use xlink:href="#DejaVuSans-65" transform="translate(430.419922 0)"/>
      </g>
      <!-- memory itself -->
      <g transform="translate(37.520312 72.933487) scale(0.08 -0.08)">
       <use xlink:href="#DejaVuSans-6d"/>
       <use xlink:href="#DejaVuSans-65" transform="translate(97.412109 0)"/>
       <use xlink:href="#DejaVuSans-6d" transform="translate(158.935547 0)"/>
       <use xlink:href="#DejaVuSans-6f" transform="translate(256.347656 0)"/>
       <use xlink:href="#DejaVuSans-72" transform="translate(317.529297 0)"/>
       <use xlink:href="#DejaVuSans-79" transform="translate(358.642578 0)"/>
       <use xlink:href="#DejaVuSans-20" transform="translate(417.822266 0)"/>
       <use xlink:href="#DejaVuSans-69" transform="translate(449.609375 0)"/>
       <use xlink:href="#DejaVuSans-74" transform="translate(477.392578 0)"/>
       <use xlink:href="#DejaVuSans-73" transform="translate(516.601562 0)"/>
       <use xlink:href="#DejaVuSans-65" transform="translate(568.701172 0)"/>
       <use xlink:href="#DejaVuSans-6c" transform="translate(630.224609 0)"/>
       <use xlink:href="#DejaVuSans-66" transform="translate(658.007812 0)"/>
      </g>
     </g>
    </g>
    <g id="text_10">
     <!-- Where state lives relative to arithmetic  → -->
     <g transform="translate(14.038594 333.060078) rotate(-90) scale(0.09 -0.09)">
      <use xlink:href="#DejaVuSans-57"/>
      <use xlink:href="#DejaVuSans-68" transform="translate(98.876953 0)"/>
      <use xlink:href="#DejaVuSans-65" transform="translate(162.255859 0)"/>
      <use xlink:href="#DejaVuSans-72" transform="translate(223.779297 0)"/>
      <use xlink:href="#DejaVuSans-65" transform="translate(262.642578 0)"/>
      <use xlink:href="#DejaVuSans-20" transform="translate(324.166016 0)"/>
      <use xlink:href="#DejaVuSans-73" transform="translate(355.953125 0)"/>
      <use xlink:href="#DejaVuSans-74" transform="translate(408.052734 0)"/>
      <use xlink:href="#DejaVuSans-61" transform="translate(447.261719 0)"/>
      <use xlink:href="#DejaVuSans-74" transform="translate(508.541016 0)"/>
      <use xlink:href="#DejaVuSans-65" transform="translate(547.75 0)"/>
      <use xlink:href="#DejaVuSans-20" transform="translate(609.273438 0)"/>
      <use xlink:href="#DejaVuSans-6c" transform="translate(641.060547 0)"/>
      <use xlink:href="#DejaVuSans-69" transform="translate(668.84375 0)"/>
      <use xlink:href="#DejaVuSans-76" transform="translate(696.626953 0)"/>
      <use xlink:href="#DejaVuSans-65" transform="translate(755.806641 0)"/>
      <use xlink:href="#DejaVuSans-73" transform="translate(817.330078 0)"/>
      <use xlink:href="#DejaVuSans-20" transform="translate(869.429688 0)"/>
      <use xlink:href="#DejaVuSans-72" transform="translate(901.216797 0)"/>
      <use xlink:href="#DejaVuSans-65" transform="translate(940.080078 0)"/>
      <use xlink:href="#DejaVuSans-6c" transform="translate(1001.603516 0)"/>
      <use xlink:href="#DejaVuSans-61" transform="translate(1029.386719 0)"/>
      <use xlink:href="#DejaVuSans-74" transform="translate(1090.666016 0)"/>
      <use xlink:href="#DejaVuSans-69" transform="translate(1129.875 0)"/>
      <use xlink:href="#DejaVuSans-76" transform="translate(1157.658203 0)"/>
      <use xlink:href="#DejaVuSans-65" transform="translate(1216.837891 0)"/>
      <use xlink:href="#DejaVuSans-20" transform="translate(1278.361328 0)"/>
      <use xlink:href="#DejaVuSans-74" transform="translate(1310.148438 0)"/>
      <use xlink:href="#DejaVuSans-6f" transform="translate(1349.357422 0)"/>
      <use xlink:href="#DejaVuSans-20" transform="translate(1410.539062 0)"/>
      <use xlink:href="#DejaVuSans-61" transform="translate(1442.326172 0)"/>
      <use xlink:href="#DejaVuSans-72" transform="translate(1503.605469 0)"/>
      <use xlink:href="#DejaVuSans-69" transform="translate(1544.71875 0)"/>
      <use xlink:href="#DejaVuSans-74" transform="translate(1572.501953 0)"/>
      <use xlink:href="#DejaVuSans-68" transform="translate(1611.710938 0)"/>
      <use xlink:href="#DejaVuSans-6d" transform="translate(1675.089844 0)"/>
      <use xlink:href="#DejaVuSans-65" transform="translate(1772.501953 0)"/>
      <use xlink:href="#DejaVuSans-74" transform="translate(1834.025391 0)"/>
      <use xlink:href="#DejaVuSans-69" transform="translate(1873.234375 0)"/>
      <use xlink:href="#DejaVuSans-63" transform="translate(1901.017578 0)"/>
      <use xlink:href="#DejaVuSans-20" transform="translate(1955.998047 0)"/>
      <use xlink:href="#DejaVuSans-20" transform="translate(1987.785156 0)"/>
      <use xlink:href="#DejaVuSans-2192" transform="translate(2019.572266 0)"/>
     </g>
    </g>
   </g>
   <g id="patch_12">
    <path d="M 99.976562 455.414312 
L 99.976562 21.406312 
" style="fill: none; stroke: #000000; stroke-width: 0.8; stroke-linejoin: miter; stroke-linecap: square"/>
   </g>
   <g id="patch_13">
    <path d="M 99.976562 455.414312 
L 706.916563 455.414312 
" style="fill: none; stroke: #000000; stroke-width: 0.8; stroke-linejoin: miter; stroke-linecap: square"/>
   </g>
   <g id="text_11">
    <!-- CPU / GPU -->
    <g style="fill: #222222" transform="translate(157.650216 378.969129) scale(0.083 -0.083)">
     <defs>
      <path id="DejaVuSans-43" d="M 4122 4306 
L 4122 3641 
Q 3803 3938 3442 4084 
Q 3081 4231 2675 4231 
Q 1875 4231 1450 3742 
Q 1025 3253 1025 2328 
Q 1025 1406 1450 917 
Q 1875 428 2675 428 
Q 3081 428 3442 575 
Q 3803 722 4122 1019 
L 4122 359 
Q 3791 134 3420 21 
Q 3050 -91 2638 -91 
Q 1578 -91 968 557 
Q 359 1206 359 2328 
Q 359 3453 968 4101 
Q 1578 4750 2638 4750 
Q 3056 4750 3426 4639 
Q 3797 4528 4122 4306 
z
" transform="scale(0.015625)"/>
      <path id="DejaVuSans-50" d="M 1259 4147 
L 1259 2394 
L 2053 2394 
Q 2494 2394 2734 2622 
Q 2975 2850 2975 3272 
Q 2975 3691 2734 3919 
Q 2494 4147 2053 4147 
L 1259 4147 
z
M 628 4666 
L 2053 4666 
Q 2838 4666 3239 4311 
Q 3641 3956 3641 3272 
Q 3641 2581 3239 2228 
Q 2838 1875 2053 1875 
L 1259 1875 
L 1259 0 
L 628 0 
L 628 4666 
z
" transform="scale(0.015625)"/>
      <path id="DejaVuSans-55" d="M 556 4666 
L 1191 4666 
L 1191 1831 
Q 1191 1081 1462 751 
Q 1734 422 2344 422 
Q 2950 422 3222 751 
Q 3494 1081 3494 1831 
L 3494 4666 
L 4128 4666 
L 4128 1753 
Q 4128 841 3676 375 
Q 3225 -91 2344 -91 
Q 1459 -91 1007 375 
Q 556 841 556 1753 
L 556 4666 
z
" transform="scale(0.015625)"/>
      <path id="DejaVuSans-2f" d="M 1625 4666 
L 2156 4666 
L 531 -594 
L 0 -594 
L 1625 4666 
z
" transform="scale(0.015625)"/>
      <path id="DejaVuSans-47" d="M 3809 666 
L 3809 1919 
L 2778 1919 
L 2778 2438 
L 4434 2438 
L 4434 434 
Q 4069 175 3628 42 
Q 3188 -91 2688 -91 
Q 1594 -91 976 548 
Q 359 1188 359 2328 
Q 359 3472 976 4111 
Q 1594 4750 2688 4750 
Q 3144 4750 3555 4637 
Q 3966 4525 4313 4306 
L 4313 3634 
Q 3963 3931 3569 4081 
Q 3175 4231 2741 4231 
Q 1884 4231 1454 3753 
Q 1025 3275 1025 2328 
Q 1025 1384 1454 906 
Q 1884 428 2741 428 
Q 3075 428 3337 486 
Q 3600 544 3809 666 
z
" transform="scale(0.015625)"/>
     </defs>
     <use xlink:href="#DejaVuSans-43"/>
     <use xlink:href="#DejaVuSans-50" transform="translate(69.824219 0)"/>
     <use xlink:href="#DejaVuSans-55" transform="translate(130.126953 0)"/>
     <use xlink:href="#DejaVuSans-20" transform="translate(203.320312 0)"/>
     <use xlink:href="#DejaVuSans-2f" transform="translate(235.107422 0)"/>
     <use xlink:href="#DejaVuSans-20" transform="translate(268.798828 0)"/>
     <use xlink:href="#DejaVuSans-47" transform="translate(300.585938 0)"/>
     <use xlink:href="#DejaVuSans-50" transform="translate(378.076172 0)"/>
     <use xlink:href="#DejaVuSans-55" transform="translate(438.378906 0)"/>
    </g>
    <!-- baseline -->
    <g style="fill: #222222" transform="translate(161.496098 388.263314) scale(0.083 -0.083)">
     <defs>
      <path id="DejaVuSans-62" d="M 3116 1747 
Q 3116 2381 2855 2742 
Q 2594 3103 2138 3103 
Q 1681 3103 1420 2742 
Q 1159 2381 1159 1747 
Q 1159 1113 1420 752 
Q 1681 391 2138 391 
Q 2594 391 2855 752 
Q 3116 1113 3116 1747 
z
M 1159 2969 
Q 1341 3281 1617 3432 
Q 1894 3584 2278 3584 
Q 2916 3584 3314 3078 
Q 3713 2572 3713 1747 
Q 3713 922 3314 415 
Q 2916 -91 2278 -91 
Q 1894 -91 1617 61 
Q 1341 213 1159 525 
L 1159 0 
L 581 0 
L 581 4863 
L 1159 4863 
L 1159 2969 
z
" transform="scale(0.015625)"/>
     </defs>
     <use xlink:href="#DejaVuSans-62"/>
     <use xlink:href="#DejaVuSans-61" transform="translate(63.476562 0)"/>
     <use xlink:href="#DejaVuSans-73" transform="translate(124.755859 0)"/>
     <use xlink:href="#DejaVuSans-65" transform="translate(176.855469 0)"/>
     <use xlink:href="#DejaVuSans-6c" transform="translate(238.378906 0)"/>
     <use xlink:href="#DejaVuSans-69" transform="translate(266.162109 0)"/>
     <use xlink:href="#DejaVuSans-6e" transform="translate(293.945312 0)"/>
     <use xlink:href="#DejaVuSans-65" transform="translate(357.324219 0)"/>
    </g>
    <!-- (Ch. 5) -->
    <g style="fill: #222222" transform="translate(164.834255 397.557498) scale(0.083 -0.083)">
     <defs>
      <path id="DejaVuSans-2e" d="M 684 794 
L 1344 794 
L 1344 0 
L 684 0 
L 684 794 
z
" transform="scale(0.015625)"/>
      <path id="DejaVuSans-35" d="M 691 4666 
L 3169 4666 
L 3169 4134 
L 1269 4134 
L 1269 2991 
Q 1406 3038 1543 3061 
Q 1681 3084 1819 3084 
Q 2600 3084 3056 2656 
Q 3513 2228 3513 1497 
Q 3513 744 3044 326 
Q 2575 -91 1722 -91 
Q 1428 -91 1123 -41 
Q 819 9 494 109 
L 494 744 
Q 775 591 1075 516 
Q 1375 441 1709 441 
Q 2250 441 2565 725 
Q 2881 1009 2881 1497 
Q 2881 1984 2565 2268 
Q 2250 2553 1709 2553 
Q 1456 2553 1204 2497 
Q 953 2441 691 2322 
L 691 4666 
z
" transform="scale(0.015625)"/>
     </defs>
     <use xlink:href="#DejaVuSans-28"/>
     <use xlink:href="#DejaVuSans-43" transform="translate(39.013672 0)"/>
     <use xlink:href="#DejaVuSans-68" transform="translate(108.837891 0)"/>
     <use xlink:href="#DejaVuSans-2e" transform="translate(172.216797 0)"/>
     <use xlink:href="#DejaVuSans-20" transform="translate(204.003906 0)"/>
     <use xlink:href="#DejaVuSans-35" transform="translate(235.791016 0)"/>
     <use xlink:href="#DejaVuSans-29" transform="translate(299.414062 0)"/>
    </g>
   </g>
   <g id="text_12">
    <!-- Tensor -->
    <g style="fill: #222222" transform="translate(323.2631 335.568329) scale(0.083 -0.083)">
     <defs>
      <path id="DejaVuSans-54" d="M -19 4666 
L 3928 4666 
L 3928 4134 
L 2272 4134 
L 2272 0 
L 1638 0 
L 1638 4134 
L -19 4134 
L -19 4666 
z
" transform="scale(0.015625)"/>
     </defs>
     <use xlink:href="#DejaVuSans-54"/>
     <use xlink:href="#DejaVuSans-65" transform="translate(44.083984 0)"/>
     <use xlink:href="#DejaVuSans-6e" transform="translate(105.607422 0)"/>
     <use xlink:href="#DejaVuSans-73" transform="translate(168.986328 0)"/>
     <use xlink:href="#DejaVuSans-6f" transform="translate(221.085938 0)"/>
     <use xlink:href="#DejaVuSans-72" transform="translate(282.267578 0)"/>
    </g>
    <!-- processors -->
    <g style="fill: #222222" transform="translate(314.330225 344.862514) scale(0.083 -0.083)">
     <use xlink:href="#DejaVuSans-70"/>
     <use xlink:href="#DejaVuSans-72" transform="translate(63.476562 0)"/>
     <use xlink:href="#DejaVuSans-6f" transform="translate(102.339844 0)"/>
     <use xlink:href="#DejaVuSans-63" transform="translate(163.521484 0)"/>
     <use xlink:href="#DejaVuSans-65" transform="translate(218.501953 0)"/>
     <use xlink:href="#DejaVuSans-73" transform="translate(280.025391 0)"/>
     <use xlink:href="#DejaVuSans-73" transform="translate(332.125 0)"/>
     <use xlink:href="#DejaVuSans-6f" transform="translate(384.224609 0)"/>
     <use xlink:href="#DejaVuSans-72" transform="translate(445.40625 0)"/>
     <use xlink:href="#DejaVuSans-73" transform="translate(486.519531 0)"/>
    </g>
    <!-- §6.3 -->
    <g style="fill: #222222" transform="translate(328.008366 354.156698) scale(0.083 -0.083)">
     <defs>
      <path id="DejaVuSans-a7" d="M 1184 2925 
Q 988 2781 891 2640 
Q 794 2500 794 2356 
Q 794 2119 1011 1911 
Q 1228 1703 2009 1281 
Q 2206 1422 2303 1564 
Q 2400 1706 2400 1850 
Q 2400 2084 2176 2296 
Q 1953 2509 1184 2925 
z
M 2591 4569 
L 2591 4056 
Q 2331 4178 2107 4239 
Q 1884 4300 1709 4300 
Q 1406 4300 1237 4175 
Q 1069 4050 1069 3828 
Q 1069 3547 1713 3188 
Q 1794 3141 1838 3116 
Q 2497 2744 2701 2503 
Q 2906 2263 2906 1947 
Q 2906 1666 2762 1447 
Q 2619 1228 2328 1063 
Q 2522 900 2611 729 
Q 2700 559 2700 359 
Q 2700 -84 2381 -346 
Q 2063 -609 1522 -609 
Q 1294 -609 1053 -564 
Q 813 -519 538 -428 
L 538 84 
Q 809 -38 1040 -98 
Q 1272 -159 1453 -159 
Q 1772 -159 1948 -28 
Q 2125 103 2125 341 
Q 2125 659 1434 1044 
L 1356 1088 
Q 688 1463 488 1702 
Q 288 1941 288 2259 
Q 288 2544 433 2767 
Q 578 2991 863 3144 
Q 678 3281 586 3456 
Q 494 3631 494 3847 
Q 494 4253 806 4501 
Q 1119 4750 1638 4750 
Q 1866 4750 2105 4704 
Q 2344 4659 2591 4569 
z
" transform="scale(0.015625)"/>
      <path id="DejaVuSans-36" d="M 2113 2584 
Q 1688 2584 1439 2293 
Q 1191 2003 1191 1497 
Q 1191 994 1439 701 
Q 1688 409 2113 409 
Q 2538 409 2786 701 
Q 3034 994 3034 1497 
Q 3034 2003 2786 2293 
Q 2538 2584 2113 2584 
z
M 3366 4563 
L 3366 3988 
Q 3128 4100 2886 4159 
Q 2644 4219 2406 4219 
Q 1781 4219 1451 3797 
Q 1122 3375 1075 2522 
Q 1259 2794 1537 2939 
Q 1816 3084 2150 3084 
Q 2853 3084 3261 2657 
Q 3669 2231 3669 1497 
Q 3669 778 3244 343 
Q 2819 -91 2113 -91 
Q 1303 -91 875 529 
Q 447 1150 447 2328 
Q 447 3434 972 4092 
Q 1497 4750 2381 4750 
Q 2619 4750 2861 4703 
Q 3103 4656 3366 4563 
z
" transform="scale(0.015625)"/>
      <path id="DejaVuSans-33" d="M 2597 2516 
Q 3050 2419 3304 2112 
Q 3559 1806 3559 1356 
Q 3559 666 3084 287 
Q 2609 -91 1734 -91 
Q 1441 -91 1130 -33 
Q 819 25 488 141 
L 488 750 
Q 750 597 1062 519 
Q 1375 441 1716 441 
Q 2309 441 2620 675 
Q 2931 909 2931 1356 
Q 2931 1769 2642 2001 
Q 2353 2234 1838 2234 
L 1294 2234 
L 1294 2753 
L 1863 2753 
Q 2328 2753 2575 2939 
Q 2822 3125 2822 3475 
Q 2822 3834 2567 4026 
Q 2313 4219 1838 4219 
Q 1578 4219 1281 4162 
Q 984 4106 628 3988 
L 628 4550 
Q 988 4650 1302 4700 
Q 1616 4750 1894 4750 
Q 2613 4750 3031 4423 
Q 3450 4097 3450 3541 
Q 3450 3153 3228 2886 
Q 3006 2619 2597 2516 
z
" transform="scale(0.015625)"/>
     </defs>
     <use xlink:href="#DejaVuSans-a7"/>
     <use xlink:href="#DejaVuSans-36" transform="translate(50 0)"/>
     <use xlink:href="#DejaVuSans-2e" transform="translate(113.623047 0)"/>
     <use xlink:href="#DejaVuSans-33" transform="translate(145.410156 0)"/>
    </g>
   </g>
   <g id="text_13">
    <!-- Systolic -->
    <g style="fill: #222222" transform="translate(527.036083 318.208009) scale(0.083 -0.083)">
     <use xlink:href="#DejaVuSans-53"/>
     <use xlink:href="#DejaVuSans-79" transform="translate(63.476562 0)"/>
     <use xlink:href="#DejaVuSans-73" transform="translate(122.65625 0)"/>
     <use xlink:href="#DejaVuSans-74" transform="translate(174.755859 0)"/>
     <use xlink:href="#DejaVuSans-6f" transform="translate(213.964844 0)"/>
     <use xlink:href="#DejaVuSans-6c" transform="translate(275.146484 0)"/>
     <use xlink:href="#DejaVuSans-69" transform="translate(302.929688 0)"/>
     <use xlink:href="#DejaVuSans-63" transform="translate(330.712891 0)"/>
    </g>
    <!-- mechanism -->
    <g style="fill: #222222" transform="translate(519.004536 327.502194) scale(0.083 -0.083)">
     <use xlink:href="#DejaVuSans-6d"/>
     <use xlink:href="#DejaVuSans-65" transform="translate(97.412109 0)"/>
     <use xlink:href="#DejaVuSans-63" transform="translate(158.935547 0)"/>
     <use xlink:href="#DejaVuSans-68" transform="translate(213.916016 0)"/>
     <use xlink:href="#DejaVuSans-61" transform="translate(277.294922 0)"/>
     <use xlink:href="#DejaVuSans-6e" transform="translate(338.574219 0)"/>
     <use xlink:href="#DejaVuSans-69" transform="translate(401.953125 0)"/>
     <use xlink:href="#DejaVuSans-73" transform="translate(429.736328 0)"/>
     <use xlink:href="#DejaVuSans-6d" transform="translate(481.835938 0)"/>
    </g>
    <!-- §6.2 -->
    <g style="fill: #222222" transform="translate(534.367966 336.796378) scale(0.083 -0.083)">
     <defs>
      <path id="DejaVuSans-32" d="M 1228 531 
L 3431 531 
L 3431 0 
L 469 0 
L 469 531 
Q 828 903 1448 1529 
Q 2069 2156 2228 2338 
Q 2531 2678 2651 2914 
Q 2772 3150 2772 3378 
Q 2772 3750 2511 3984 
Q 2250 4219 1831 4219 
Q 1534 4219 1204 4116 
Q 875 4013 500 3803 
L 500 4441 
Q 881 4594 1212 4672 
Q 1544 4750 1819 4750 
Q 2544 4750 2975 4387 
Q 3406 4025 3406 3419 
Q 3406 3131 3298 2873 
Q 3191 2616 2906 2266 
Q 2828 2175 2409 1742 
Q 1991 1309 1228 531 
z
" transform="scale(0.015625)"/>
     </defs>
     <use xlink:href="#DejaVuSans-a7"/>
     <use xlink:href="#DejaVuSans-36" transform="translate(50 0)"/>
     <use xlink:href="#DejaVuSans-2e" transform="translate(113.623047 0)"/>
     <use xlink:href="#DejaVuSans-32" transform="translate(145.410156 0)"/>
    </g>
   </g>
   <g id="text_14">
    <!-- Dataflow / tile -->
    <g style="fill: #222222" transform="translate(350.190939 248.766729) scale(0.083 -0.083)">
     <use xlink:href="#DejaVuSans-44"/>
     <use xlink:href="#DejaVuSans-61" transform="translate(77.001953 0)"/>
     <use xlink:href="#DejaVuSans-74" transform="translate(138.28125 0)"/>
     <use xlink:href="#DejaVuSans-61" transform="translate(177.490234 0)"/>
     <use xlink:href="#DejaVuSans-66" transform="translate(238.769531 0)"/>
     <use xlink:href="#DejaVuSans-6c" transform="translate(273.974609 0)"/>
     <use xlink:href="#DejaVuSans-6f" transform="translate(301.757812 0)"/>
     <use xlink:href="#DejaVuSans-77" transform="translate(362.939453 0)"/>
     <use xlink:href="#DejaVuSans-20" transform="translate(444.726562 0)"/>
     <use xlink:href="#DejaVuSans-2f" transform="translate(476.513672 0)"/>
     <use xlink:href="#DejaVuSans-20" transform="translate(510.205078 0)"/>
     <use xlink:href="#DejaVuSans-74" transform="translate(541.992188 0)"/>
     <use xlink:href="#DejaVuSans-69" transform="translate(581.201172 0)"/>
     <use xlink:href="#DejaVuSans-6c" transform="translate(608.984375 0)"/>
     <use xlink:href="#DejaVuSans-65" transform="translate(636.767578 0)"/>
    </g>
    <!-- (deterministic) -->
    <g style="fill: #222222" transform="translate(348.726767 258.060914) scale(0.083 -0.083)">
     <use xlink:href="#DejaVuSans-28"/>
     <use xlink:href="#DejaVuSans-64" transform="translate(39.013672 0)"/>
     <use xlink:href="#DejaVuSans-65" transform="translate(102.490234 0)"/>
     <use xlink:href="#DejaVuSans-74" transform="translate(164.013672 0)"/>
     <use xlink:href="#DejaVuSans-65" transform="translate(203.222656 0)"/>
     <use xlink:href="#DejaVuSans-72" transform="translate(264.746094 0)"/>
     <use xlink:href="#DejaVuSans-6d" transform="translate(304.109375 0)"/>
     <use xlink:href="#DejaVuSans-69" transform="translate(401.521484 0)"/>
     <use xlink:href="#DejaVuSans-6e" transform="translate(429.304688 0)"/>
     <use xlink:href="#DejaVuSans-69" transform="translate(492.683594 0)"/>
     <use xlink:href="#DejaVuSans-73" transform="translate(520.466797 0)"/>
     <use xlink:href="#DejaVuSans-74" transform="translate(572.566406 0)"/>
     <use xlink:href="#DejaVuSans-69" transform="translate(611.775391 0)"/>
     <use xlink:href="#DejaVuSans-63" transform="translate(639.558594 0)"/>
     <use xlink:href="#DejaVuSans-29" transform="translate(694.539062 0)"/>
    </g>
    <!-- §6.4 -->
    <g style="fill: #222222" transform="translate(370.494166 267.355098) scale(0.083 -0.083)">
     <defs>
      <path id="DejaVuSans-34" d="M 2419 4116 
L 825 1625 
L 2419 1625 
L 2419 4116 
z
M 2253 4666 
L 3047 4666 
L 3047 1625 
L 3713 1625 
L 3713 1100 
L 3047 1100 
L 3047 0 
L 2419 0 
L 2419 1100 
L 313 1100 
L 313 1709 
L 2253 4666 
z
" transform="scale(0.015625)"/>
     </defs>
     <use xlink:href="#DejaVuSans-a7"/>
     <use xlink:href="#DejaVuSans-36" transform="translate(50 0)"/>
     <use xlink:href="#DejaVuSans-2e" transform="translate(113.623047 0)"/>
     <use xlink:href="#DejaVuSans-34" transform="translate(145.410156 0)"/>
    </g>
   </g>
   <g id="text_15">
    <!-- NPUs -->
    <g style="fill: #222222" transform="translate(344.085152 296.814622) scale(0.083 -0.083)">
     <defs>
      <path id="DejaVuSans-4e" d="M 628 4666 
L 1478 4666 
L 3547 763 
L 3547 4666 
L 4159 4666 
L 4159 0 
L 3309 0 
L 1241 3903 
L 1241 0 
L 628 0 
L 628 4666 
z
" transform="scale(0.015625)"/>
     </defs>
     <use xlink:href="#DejaVuSans-4e"/>
     <use xlink:href="#DejaVuSans-50" transform="translate(74.804688 0)"/>
     <use xlink:href="#DejaVuSans-55" transform="translate(135.107422 0)"/>
     <use xlink:href="#DejaVuSans-73" transform="translate(208.300781 0)"/>
    </g>
    <!-- §6.5 -->
    <g style="fill: #222222" transform="translate(346.216566 306.108806) scale(0.083 -0.083)">
     <use xlink:href="#DejaVuSans-a7"/>
     <use xlink:href="#DejaVuSans-36" transform="translate(50 0)"/>
     <use xlink:href="#DejaVuSans-2e" transform="translate(113.623047 0)"/>
     <use xlink:href="#DejaVuSans-35" transform="translate(145.410156 0)"/>
    </g>
   </g>
   <g id="text_16">
    <!-- FPGA / -->
    <g style="fill: #222222" transform="translate(505.10453 231.406409) scale(0.083 -0.083)">
     <defs>
      <path id="DejaVuSans-46" d="M 628 4666 
L 3309 4666 
L 3309 4134 
L 1259 4134 
L 1259 2759 
L 3109 2759 
L 3109 2228 
L 1259 2228 
L 1259 0 
L 628 0 
L 628 4666 
z
" transform="scale(0.015625)"/>
     </defs>
     <use xlink:href="#DejaVuSans-46"/>
     <use xlink:href="#DejaVuSans-50" transform="translate(57.519531 0)"/>
     <use xlink:href="#DejaVuSans-47" transform="translate(117.822266 0)"/>
     <use xlink:href="#DejaVuSans-41" transform="translate(195.3125 0)"/>
     <use xlink:href="#DejaVuSans-20" transform="translate(263.720703 0)"/>
     <use xlink:href="#DejaVuSans-2f" transform="translate(295.507812 0)"/>
    </g>
    <!-- reconfigurable -->
    <g style="fill: #222222" transform="translate(488.678959 240.700594) scale(0.083 -0.083)">
     <use xlink:href="#DejaVuSans-72"/>
     <use xlink:href="#DejaVuSans-65" transform="translate(38.863281 0)"/>
     <use xlink:href="#DejaVuSans-63" transform="translate(100.386719 0)"/>
     <use xlink:href="#DejaVuSans-6f" transform="translate(155.367188 0)"/>
     <use xlink:href="#DejaVuSans-6e" transform="translate(216.548828 0)"/>
     <use xlink:href="#DejaVuSans-66" transform="translate(279.927734 0)"/>
     <use xlink:href="#DejaVuSans-69" transform="translate(315.132812 0)"/>
     <use xlink:href="#DejaVuSans-67" transform="translate(342.916016 0)"/>
     <use xlink:href="#DejaVuSans-75" transform="translate(406.392578 0)"/>
     <use xlink:href="#DejaVuSans-72" transform="translate(469.771484 0)"/>
     <use xlink:href="#DejaVuSans-61" transform="translate(510.884766 0)"/>
     <use xlink:href="#DejaVuSans-62" transform="translate(572.164062 0)"/>
     <use xlink:href="#DejaVuSans-6c" transform="translate(635.640625 0)"/>
     <use xlink:href="#DejaVuSans-65" transform="translate(663.423828 0)"/>
    </g>
    <!-- §6.6 -->
    <g style="fill: #222222" transform="translate(510.090366 249.994778) scale(0.083 -0.083)">
     <use xlink:href="#DejaVuSans-a7"/>
     <use xlink:href="#DejaVuSans-36" transform="translate(50 0)"/>
     <use xlink:href="#DejaVuSans-2e" transform="translate(113.623047 0)"/>
     <use xlink:href="#DejaVuSans-36" transform="translate(145.410156 0)"/>
    </g>
   </g>
   <g id="text_17">
    <!-- Wafer-scale -->
    <g style="fill: #222222" transform="translate(373.348663 166.612222) scale(0.083 -0.083)">
     <use xlink:href="#DejaVuSans-57"/>
     <use xlink:href="#DejaVuSans-61" transform="translate(92.501953 0)"/>
     <use xlink:href="#DejaVuSans-66" transform="translate(153.78125 0)"/>
     <use xlink:href="#DejaVuSans-65" transform="translate(188.986328 0)"/>
     <use xlink:href="#DejaVuSans-72" transform="translate(250.509766 0)"/>
     <use xlink:href="#DejaVuSans-2d" transform="translate(285.248047 0)"/>
     <use xlink:href="#DejaVuSans-73" transform="translate(321.332031 0)"/>
     <use xlink:href="#DejaVuSans-63" transform="translate(373.431641 0)"/>
     <use xlink:href="#DejaVuSans-61" transform="translate(428.412109 0)"/>
     <use xlink:href="#DejaVuSans-6c" transform="translate(489.691406 0)"/>
     <use xlink:href="#DejaVuSans-65" transform="translate(517.474609 0)"/>
    </g>
    <!-- §6.7 -->
    <g style="fill: #222222" transform="translate(388.702366 175.906406) scale(0.083 -0.083)">
     <defs>
      <path id="DejaVuSans-37" d="M 525 4666 
L 3525 4666 
L 3525 4397 
L 1831 0 
L 1172 0 
L 2766 4134 
L 525 4134 
L 525 4666 
z
" transform="scale(0.015625)"/>
     </defs>
     <use xlink:href="#DejaVuSans-a7"/>
     <use xlink:href="#DejaVuSans-36" transform="translate(50 0)"/>
     <use xlink:href="#DejaVuSans-2e" transform="translate(113.623047 0)"/>
     <use xlink:href="#DejaVuSans-37" transform="translate(145.410156 0)"/>
    </g>
   </g>
   <g id="text_18">
    <!-- Memory-centric -->
    <g style="fill: #222222" transform="translate(328.424763 62.143289) scale(0.083 -0.083)">
     <use xlink:href="#DejaVuSans-4d"/>
     <use xlink:href="#DejaVuSans-65" transform="translate(86.279297 0)"/>
     <use xlink:href="#DejaVuSans-6d" transform="translate(147.802734 0)"/>
     <use xlink:href="#DejaVuSans-6f" transform="translate(245.214844 0)"/>
     <use xlink:href="#DejaVuSans-72" transform="translate(306.396484 0)"/>
     <use xlink:href="#DejaVuSans-79" transform="translate(347.509766 0)"/>
     <use xlink:href="#DejaVuSans-2d" transform="translate(404.939453 0)"/>
     <use xlink:href="#DejaVuSans-63" transform="translate(441.023438 0)"/>
     <use xlink:href="#DejaVuSans-65" transform="translate(496.003906 0)"/>
     <use xlink:href="#DejaVuSans-6e" transform="translate(557.527344 0)"/>
     <use xlink:href="#DejaVuSans-74" transform="translate(620.90625 0)"/>
     <use xlink:href="#DejaVuSans-72" transform="translate(660.115234 0)"/>
     <use xlink:href="#DejaVuSans-69" transform="translate(701.228516 0)"/>
     <use xlink:href="#DejaVuSans-63" transform="translate(729.011719 0)"/>
    </g>
    <!-- / PIM -->
    <g style="fill: #222222" transform="translate(350.936567 71.437474) scale(0.083 -0.083)">
     <defs>
      <path id="DejaVuSans-49" d="M 628 4666 
L 1259 4666 
L 1259 0 
L 628 0 
L 628 4666 
z
" transform="scale(0.015625)"/>
     </defs>
     <use xlink:href="#DejaVuSans-2f"/>
     <use xlink:href="#DejaVuSans-20" transform="translate(33.691406 0)"/>
     <use xlink:href="#DejaVuSans-50" transform="translate(65.478516 0)"/>
     <use xlink:href="#DejaVuSans-49" transform="translate(125.78125 0)"/>
     <use xlink:href="#DejaVuSans-4d" transform="translate(155.273438 0)"/>
    </g>
    <!-- §6.8 -->
    <g style="fill: #222222" transform="translate(352.285966 80.731658) scale(0.083 -0.083)">
     <defs>
      <path id="DejaVuSans-38" d="M 2034 2216 
Q 1584 2216 1326 1975 
Q 1069 1734 1069 1313 
Q 1069 891 1326 650 
Q 1584 409 2034 409 
Q 2484 409 2743 651 
Q 3003 894 3003 1313 
Q 3003 1734 2745 1975 
Q 2488 2216 2034 2216 
z
M 1403 2484 
Q 997 2584 770 2862 
Q 544 3141 544 3541 
Q 544 4100 942 4425 
Q 1341 4750 2034 4750 
Q 2731 4750 3128 4425 
Q 3525 4100 3525 3541 
Q 3525 3141 3298 2862 
Q 3072 2584 2669 2484 
Q 3125 2378 3379 2068 
Q 3634 1759 3634 1313 
Q 3634 634 3220 271 
Q 2806 -91 2034 -91 
Q 1263 -91 848 271 
Q 434 634 434 1313 
Q 434 1759 690 2068 
Q 947 2378 1403 2484 
z
M 1172 3481 
Q 1172 3119 1398 2916 
Q 1625 2713 2034 2713 
Q 2441 2713 2670 2916 
Q 2900 3119 2900 3481 
Q 2900 3844 2670 4047 
Q 2441 4250 2034 4250 
Q 1625 4250 1398 4047 
Q 1172 3844 1172 3481 
z
" transform="scale(0.015625)"/>
     </defs>
     <use xlink:href="#DejaVuSans-a7"/>
     <use xlink:href="#DejaVuSans-36" transform="translate(50 0)"/>
     <use xlink:href="#DejaVuSans-2e" transform="translate(113.623047 0)"/>
     <use xlink:href="#DejaVuSans-38" transform="translate(145.410156 0)"/>
    </g>
   </g>
   <g id="text_19">
    <!-- Neuromorphic -->
    <g style="fill: #222222" transform="translate(616.795172 79.810622) scale(0.083 -0.083)">
     <use xlink:href="#DejaVuSans-4e"/>
     <use xlink:href="#DejaVuSans-65" transform="translate(74.804688 0)"/>
     <use xlink:href="#DejaVuSans-75" transform="translate(136.328125 0)"/>
     <use xlink:href="#DejaVuSans-72" transform="translate(199.707031 0)"/>
     <use xlink:href="#DejaVuSans-6f" transform="translate(238.570312 0)"/>
     <use xlink:href="#DejaVuSans-6d" transform="translate(299.751953 0)"/>
     <use xlink:href="#DejaVuSans-6f" transform="translate(397.164062 0)"/>
     <use xlink:href="#DejaVuSans-72" transform="translate(458.345703 0)"/>
     <use xlink:href="#DejaVuSans-70" transform="translate(499.458984 0)"/>
     <use xlink:href="#DejaVuSans-68" transform="translate(562.935547 0)"/>
     <use xlink:href="#DejaVuSans-69" transform="translate(626.314453 0)"/>
     <use xlink:href="#DejaVuSans-63" transform="translate(654.097656 0)"/>
    </g>
    <!-- §6.9 -->
    <g style="fill: #222222" transform="translate(637.547766 89.104806) scale(0.083 -0.083)">
     <defs>
      <path id="DejaVuSans-39" d="M 703 97 
L 703 672 
Q 941 559 1184 500 
Q 1428 441 1663 441 
Q 2288 441 2617 861 
Q 2947 1281 2994 2138 
Q 2813 1869 2534 1725 
Q 2256 1581 1919 1581 
Q 1219 1581 811 2004 
Q 403 2428 403 3163 
Q 403 3881 828 4315 
Q 1253 4750 1959 4750 
Q 2769 4750 3195 4129 
Q 3622 3509 3622 2328 
Q 3622 1225 3098 567 
Q 2575 -91 1691 -91 
Q 1453 -91 1209 -44 
Q 966 3 703 97 
z
M 1959 2075 
Q 2384 2075 2632 2365 
Q 2881 2656 2881 3163 
Q 2881 3666 2632 3958 
Q 2384 4250 1959 4250 
Q 1534 4250 1286 3958 
Q 1038 3666 1038 3163 
Q 1038 2656 1286 2365 
Q 1534 2075 1959 2075 
z
" transform="scale(0.015625)"/>
     </defs>
     <use xlink:href="#DejaVuSans-a7"/>
     <use xlink:href="#DejaVuSans-36" transform="translate(50 0)"/>
     <use xlink:href="#DejaVuSans-2e" transform="translate(113.623047 0)"/>
     <use xlink:href="#DejaVuSans-39" transform="translate(145.410156 0)"/>
    </g>
   </g>
   <g id="patch_14">
    <path d="M 199.047367 381.224083 
Q 269.919798 366.442665 339.697746 351.889516 
" style="fill: none; stroke-dasharray: 3.7,1.6; stroke-dashoffset: 0; stroke: #555555; stroke-linecap: round"/>
    <path d="M 335.806072 350.862446 
L 339.697746 351.889516 
L 336.541085 354.386614 
" style="fill: none; stroke-dasharray: 3.7,1.6; stroke-dashoffset: 0; stroke: #555555; stroke-linecap: round"/>
   </g>
   <g id="text_20">
    <!-- Figure 6.1 — The family landscape in contract space (qualitative regions) -->
    <g transform="translate(205.582125 15.406312) scale(0.108 -0.108)">
     <defs>
      <path id="DejaVuSans-31" d="M 794 531 
L 1825 531 
L 1825 4091 
L 703 3866 
L 703 4441 
L 1819 4666 
L 2450 4666 
L 2450 531 
L 3481 531 
L 3481 0 
L 794 0 
L 794 531 
z
" transform="scale(0.015625)"/>
      <path id="DejaVuSans-2014" d="M 313 1978 
L 6088 1978 
L 6088 1528 
L 313 1528 
L 313 1978 
z
" transform="scale(0.015625)"/>
      <path id="DejaVuSans-71" d="M 947 1747 
Q 947 1113 1208 752 
Q 1469 391 1925 391 
Q 2381 391 2643 752 
Q 2906 1113 2906 1747 
Q 2906 2381 2643 2742 
Q 2381 3103 1925 3103 
Q 1469 3103 1208 2742 
Q 947 2381 947 1747 
z
M 2906 525 
Q 2725 213 2448 61 
Q 2172 -91 1784 -91 
Q 1150 -91 751 415 
Q 353 922 353 1747 
Q 353 2572 751 3078 
Q 1150 3584 1784 3584 
Q 2172 3584 2448 3432 
Q 2725 3281 2906 2969 
L 2906 3500 
L 3481 3500 
L 3481 -1331 
L 2906 -1331 
L 2906 525 
z
" transform="scale(0.015625)"/>
     </defs>
     <use xlink:href="#DejaVuSans-46"/>
     <use xlink:href="#DejaVuSans-69" transform="translate(50.269531 0)"/>
     <use xlink:href="#DejaVuSans-67" transform="translate(78.052734 0)"/>
     <use xlink:href="#DejaVuSans-75" transform="translate(141.529297 0)"/>
     <use xlink:href="#DejaVuSans-72" transform="translate(204.908203 0)"/>
     <use xlink:href="#DejaVuSans-65" transform="translate(243.771484 0)"/>
     <use xlink:href="#DejaVuSans-20" transform="translate(305.294922 0)"/>
     <use xlink:href="#DejaVuSans-36" transform="translate(337.082031 0)"/>
     <use xlink:href="#DejaVuSans-2e" transform="translate(400.705078 0)"/>
     <use xlink:href="#DejaVuSans-31" transform="translate(432.492188 0)"/>
     <use xlink:href="#DejaVuSans-20" transform="translate(496.115234 0)"/>
     <use xlink:href="#DejaVuSans-2014" transform="translate(527.902344 0)"/>
     <use xlink:href="#DejaVuSans-20" transform="translate(627.902344 0)"/>
     <use xlink:href="#DejaVuSans-54" transform="translate(659.689453 0)"/>
     <use xlink:href="#DejaVuSans-68" transform="translate(720.773438 0)"/>
     <use xlink:href="#DejaVuSans-65" transform="translate(784.152344 0)"/>
     <use xlink:href="#DejaVuSans-20" transform="translate(845.675781 0)"/>
     <use xlink:href="#DejaVuSans-66" transform="translate(877.462891 0)"/>
     <use xlink:href="#DejaVuSans-61" transform="translate(912.667969 0)"/>
     <use xlink:href="#DejaVuSans-6d" transform="translate(973.947266 0)"/>
     <use xlink:href="#DejaVuSans-69" transform="translate(1071.359375 0)"/>
     <use xlink:href="#DejaVuSans-6c" transform="translate(1099.142578 0)"/>
     <use xlink:href="#DejaVuSans-79" transform="translate(1126.925781 0)"/>
     <use xlink:href="#DejaVuSans-20" transform="translate(1186.105469 0)"/>
     <use xlink:href="#DejaVuSans-6c" transform="translate(1217.892578 0)"/>
     <use xlink:href="#DejaVuSans-61" transform="translate(1245.675781 0)"/>
     <use xlink:href="#DejaVuSans-6e" transform="translate(1306.955078 0)"/>
     <use xlink:href="#DejaVuSans-64" transform="translate(1370.333984 0)"/>
     <use xlink:href="#DejaVuSans-73" transform="translate(1433.810547 0)"/>
     <use xlink:href="#DejaVuSans-63" transform="translate(1485.910156 0)"/>
     <use xlink:href="#DejaVuSans-61" transform="translate(1540.890625 0)"/>
     <use xlink:href="#DejaVuSans-70" transform="translate(1602.169922 0)"/>
     <use xlink:href="#DejaVuSans-65" transform="translate(1665.646484 0)"/>
     <use xlink:href="#DejaVuSans-20" transform="translate(1727.169922 0)"/>
     <use xlink:href="#DejaVuSans-69" transform="translate(1758.957031 0)"/>
     <use xlink:href="#DejaVuSans-6e" transform="translate(1786.740234 0)"/>
     <use xlink:href="#DejaVuSans-20" transform="translate(1850.119141 0)"/>
     <use xlink:href="#DejaVuSans-63" transform="translate(1881.90625 0)"/>
     <use xlink:href="#DejaVuSans-6f" transform="translate(1936.886719 0)"/>
     <use xlink:href="#DejaVuSans-6e" transform="translate(1998.068359 0)"/>
     <use xlink:href="#DejaVuSans-74" transform="translate(2061.447266 0)"/>
     <use xlink:href="#DejaVuSans-72" transform="translate(2100.65625 0)"/>
     <use xlink:href="#DejaVuSans-61" transform="translate(2141.769531 0)"/>
     <use xlink:href="#DejaVuSans-63" transform="translate(2203.048828 0)"/>
     <use xlink:href="#DejaVuSans-74" transform="translate(2258.029297 0)"/>
     <use xlink:href="#DejaVuSans-20" transform="translate(2297.238281 0)"/>
     <use xlink:href="#DejaVuSans-73" transform="translate(2329.025391 0)"/>
     <use xlink:href="#DejaVuSans-70" transform="translate(2381.125 0)"/>
     <use xlink:href="#DejaVuSans-61" transform="translate(2444.601562 0)"/>
     <use xlink:href="#DejaVuSans-63" transform="translate(2505.880859 0)"/>
     <use xlink:href="#DejaVuSans-65" transform="translate(2560.861328 0)"/>
     <use xlink:href="#DejaVuSans-20" transform="translate(2622.384766 0)"/>
     <use xlink:href="#DejaVuSans-28" transform="translate(2654.171875 0)"/>
     <use xlink:href="#DejaVuSans-71" transform="translate(2693.185547 0)"/>
     <use xlink:href="#DejaVuSans-75" transform="translate(2756.662109 0)"/>
     <use xlink:href="#DejaVuSans-61" transform="translate(2820.041016 0)"/>
     <use xlink:href="#DejaVuSans-6c" transform="translate(2881.320312 0)"/>
     <use xlink:href="#DejaVuSans-69" transform="translate(2909.103516 0)"/>
     <use xlink:href="#DejaVuSans-74" transform="translate(2936.886719 0)"/>
     <use xlink:href="#DejaVuSans-61" transform="translate(2976.095703 0)"/>
     <use xlink:href="#DejaVuSans-74" transform="translate(3037.375 0)"/>
     <use xlink:href="#DejaVuSans-69" transform="translate(3076.583984 0)"/>
     <use xlink:href="#DejaVuSans-76" transform="translate(3104.367188 0)"/>
     <use xlink:href="#DejaVuSans-65" transform="translate(3163.546875 0)"/>
     <use xlink:href="#DejaVuSans-20" transform="translate(3225.070312 0)"/>
     <use xlink:href="#DejaVuSans-72" transform="translate(3256.857422 0)"/>
     <use xlink:href="#DejaVuSans-65" transform="translate(3295.720703 0)"/>
     <use xlink:href="#DejaVuSans-67" transform="translate(3357.244141 0)"/>
     <use xlink:href="#DejaVuSans-69" transform="translate(3420.720703 0)"/>
     <use xlink:href="#DejaVuSans-6f" transform="translate(3448.503906 0)"/>
     <use xlink:href="#DejaVuSans-6e" transform="translate(3509.685547 0)"/>
     <use xlink:href="#DejaVuSans-73" transform="translate(3573.064453 0)"/>
     <use xlink:href="#DejaVuSans-29" transform="translate(3625.164062 0)"/>
    </g>
   </g>
  </g>
 </g>
 <defs>
  <clipPath id="pf205075575">
   <rect x="99.976562" y="21.406312" width="606.94" height="434.008"/>
  </clipPath>
 </defs>
</svg>
