<?xml version="1.0" encoding="utf-8" standalone="no"?>
<!DOCTYPE svg PUBLIC "-//W3C//DTD SVG 1.1//EN"
  "http://www.w3.org/Graphics/SVG/1.1/DTD/svg11.dtd">
<svg xmlns:xlink="http://www.w3.org/1999/xlink" width="631.521695pt" height="425.517062pt" viewBox="0 0 631.521695 425.517062" xmlns="http://www.w3.org/2000/svg" version="1.1">
 <metadata>
  <rdf:RDF xmlns:dc="http://purl.org/dc/elements/1.1/" xmlns:cc="http://creativecommons.org/ns#" xmlns:rdf="http://www.w3.org/1999/02/22-rdf-syntax-ns#">
   <cc:Work>
    <dc:type rdf:resource="http://purl.org/dc/dcmitype/StillImage"/>
    <dc:date>2026-07-18T10:01:30.862315</dc:date>
    <dc:format>image/svg+xml</dc:format>
    <dc:creator>
     <cc:Agent>
      <dc:title>Matplotlib v3.10.9, https://matplotlib.org/</dc:title>
     </cc:Agent>
    </dc:creator>
   </cc:Work>
  </rdf:RDF>
 </metadata>
 <defs>
  <style type="text/css">*{stroke-linejoin: round; stroke-linecap: butt}</style>
 </defs>
 <g id="figure_1">
  <g id="patch_1">
   <path d="M 0 425.517062 
L 631.521695 425.517062 
L 631.521695 0 
L 0 0 
z
" style="fill: #ffffff"/>
  </g>
  <g id="axes_1">
   <g id="patch_2">
    <path d="M 46.949375 389.896437 
L 610.753375 389.896437 
L 610.753375 31.056437 
L 46.949375 31.056437 
z
" style="fill: #ffffff"/>
   </g>
   <g id="matplotlib.axis_1">
    <g id="xtick_1">
     <g id="line2d_1">
      <path d="M 46.949375 389.896437 
L 46.949375 31.056437 
" clip-path="url(#paffe03f6c5)" style="fill: none; stroke: #b0b0b0; stroke-opacity: 0.15; stroke-width: 0.8; stroke-linecap: square"/>
     </g>
     <g id="line2d_2">
      <defs>
       <path id="m465e08e689" d="M 0 0 
L 0 3.5 
" style="stroke: #000000; stroke-width: 0.8"/>
      </defs>
      <g>
       <use xlink:href="#m465e08e689" x="46.949375" y="389.896437" style="stroke: #000000; stroke-width: 0.8"/>
      </g>
     </g>
     <g id="text_1">
      <!-- 100 -->
      <g transform="translate(38.36 403.735031) scale(0.09 -0.09)">
       <defs>
        <path id="DejaVuSans-31" d="M 794 531 
L 1825 531 
L 1825 4091 
L 703 3866 
L 703 4441 
L 1819 4666 
L 2450 4666 
L 2450 531 
L 3481 531 
L 3481 0 
L 794 0 
L 794 531 
z
" transform="scale(0.015625)"/>
        <path id="DejaVuSans-30" d="M 2034 4250 
Q 1547 4250 1301 3770 
Q 1056 3291 1056 2328 
Q 1056 1369 1301 889 
Q 1547 409 2034 409 
Q 2525 409 2770 889 
Q 3016 1369 3016 2328 
Q 3016 3291 2770 3770 
Q 2525 4250 2034 4250 
z
M 2034 4750 
Q 2819 4750 3233 4129 
Q 3647 3509 3647 2328 
Q 3647 1150 3233 529 
Q 2819 -91 2034 -91 
Q 1250 -91 836 529 
Q 422 1150 422 2328 
Q 422 3509 836 4129 
Q 1250 4750 2034 4750 
z
" transform="scale(0.015625)"/>
       </defs>
       <use xlink:href="#DejaVuSans-31"/>
       <use xlink:href="#DejaVuSans-30" transform="translate(63.623047 0)"/>
       <use xlink:href="#DejaVuSans-30" transform="translate(127.246094 0)"/>
      </g>
     </g>
    </g>
    <g id="xtick_2">
     <g id="line2d_3">
      <path d="M 117.424875 389.896437 
L 117.424875 31.056437 
" clip-path="url(#paffe03f6c5)" style="fill: none; stroke: #b0b0b0; stroke-opacity: 0.15; stroke-width: 0.8; stroke-linecap: square"/>
     </g>
     <g id="line2d_4">
      <g>
       <use xlink:href="#m465e08e689" x="117.424875" y="389.896437" style="stroke: #000000; stroke-width: 0.8"/>
      </g>
     </g>
     <g id="text_2">
      <!-- 150 -->
      <g transform="translate(108.8355 403.735031) scale(0.09 -0.09)">
       <defs>
        <path id="DejaVuSans-35" d="M 691 4666 
L 3169 4666 
L 3169 4134 
L 1269 4134 
L 1269 2991 
Q 1406 3038 1543 3061 
Q 1681 3084 1819 3084 
Q 2600 3084 3056 2656 
Q 3513 2228 3513 1497 
Q 3513 744 3044 326 
Q 2575 -91 1722 -91 
Q 1428 -91 1123 -41 
Q 819 9 494 109 
L 494 744 
Q 775 591 1075 516 
Q 1375 441 1709 441 
Q 2250 441 2565 725 
Q 2881 1009 2881 1497 
Q 2881 1984 2565 2268 
Q 2250 2553 1709 2553 
Q 1456 2553 1204 2497 
Q 953 2441 691 2322 
L 691 4666 
z
" transform="scale(0.015625)"/>
       </defs>
       <use xlink:href="#DejaVuSans-31"/>
       <use xlink:href="#DejaVuSans-35" transform="translate(63.623047 0)"/>
       <use xlink:href="#DejaVuSans-30" transform="translate(127.246094 0)"/>
      </g>
     </g>
    </g>
    <g id="xtick_3">
     <g id="line2d_5">
      <path d="M 187.900375 389.896437 
L 187.900375 31.056437 
" clip-path="url(#paffe03f6c5)" style="fill: none; stroke: #b0b0b0; stroke-opacity: 0.15; stroke-width: 0.8; stroke-linecap: square"/>
     </g>
     <g id="line2d_6">
      <g>
       <use xlink:href="#m465e08e689" x="187.900375" y="389.896437" style="stroke: #000000; stroke-width: 0.8"/>
      </g>
     </g>
     <g id="text_3">
      <!-- 200 -->
      <g transform="translate(179.311 403.735031) scale(0.09 -0.09)">
       <defs>
        <path id="DejaVuSans-32" d="M 1228 531 
L 3431 531 
L 3431 0 
L 469 0 
L 469 531 
Q 828 903 1448 1529 
Q 2069 2156 2228 2338 
Q 2531 2678 2651 2914 
Q 2772 3150 2772 3378 
Q 2772 3750 2511 3984 
Q 2250 4219 1831 4219 
Q 1534 4219 1204 4116 
Q 875 4013 500 3803 
L 500 4441 
Q 881 4594 1212 4672 
Q 1544 4750 1819 4750 
Q 2544 4750 2975 4387 
Q 3406 4025 3406 3419 
Q 3406 3131 3298 2873 
Q 3191 2616 2906 2266 
Q 2828 2175 2409 1742 
Q 1991 1309 1228 531 
z
" transform="scale(0.015625)"/>
       </defs>
       <use xlink:href="#DejaVuSans-32"/>
       <use xlink:href="#DejaVuSans-30" transform="translate(63.623047 0)"/>
       <use xlink:href="#DejaVuSans-30" transform="translate(127.246094 0)"/>
      </g>
     </g>
    </g>
    <g id="xtick_4">
     <g id="line2d_7">
      <path d="M 258.375875 389.896437 
L 258.375875 31.056437 
" clip-path="url(#paffe03f6c5)" style="fill: none; stroke: #b0b0b0; stroke-opacity: 0.15; stroke-width: 0.8; stroke-linecap: square"/>
     </g>
     <g id="line2d_8">
      <g>
       <use xlink:href="#m465e08e689" x="258.375875" y="389.896437" style="stroke: #000000; stroke-width: 0.8"/>
      </g>
     </g>
     <g id="text_4">
      <!-- 250 -->
      <g transform="translate(249.7865 403.735031) scale(0.09 -0.09)">
       <use xlink:href="#DejaVuSans-32"/>
       <use xlink:href="#DejaVuSans-35" transform="translate(63.623047 0)"/>
       <use xlink:href="#DejaVuSans-30" transform="translate(127.246094 0)"/>
      </g>
     </g>
    </g>
    <g id="xtick_5">
     <g id="line2d_9">
      <path d="M 328.851375 389.896437 
L 328.851375 31.056437 
" clip-path="url(#paffe03f6c5)" style="fill: none; stroke: #b0b0b0; stroke-opacity: 0.15; stroke-width: 0.8; stroke-linecap: square"/>
     </g>
     <g id="line2d_10">
      <g>
       <use xlink:href="#m465e08e689" x="328.851375" y="389.896437" style="stroke: #000000; stroke-width: 0.8"/>
      </g>
     </g>
     <g id="text_5">
      <!-- 300 -->
      <g transform="translate(320.262 403.735031) scale(0.09 -0.09)">
       <defs>
        <path id="DejaVuSans-33" d="M 2597 2516 
Q 3050 2419 3304 2112 
Q 3559 1806 3559 1356 
Q 3559 666 3084 287 
Q 2609 -91 1734 -91 
Q 1441 -91 1130 -33 
Q 819 25 488 141 
L 488 750 
Q 750 597 1062 519 
Q 1375 441 1716 441 
Q 2309 441 2620 675 
Q 2931 909 2931 1356 
Q 2931 1769 2642 2001 
Q 2353 2234 1838 2234 
L 1294 2234 
L 1294 2753 
L 1863 2753 
Q 2328 2753 2575 2939 
Q 2822 3125 2822 3475 
Q 2822 3834 2567 4026 
Q 2313 4219 1838 4219 
Q 1578 4219 1281 4162 
Q 984 4106 628 3988 
L 628 4550 
Q 988 4650 1302 4700 
Q 1616 4750 1894 4750 
Q 2613 4750 3031 4423 
Q 3450 4097 3450 3541 
Q 3450 3153 3228 2886 
Q 3006 2619 2597 2516 
z
" transform="scale(0.015625)"/>
       </defs>
       <use xlink:href="#DejaVuSans-33"/>
       <use xlink:href="#DejaVuSans-30" transform="translate(63.623047 0)"/>
       <use xlink:href="#DejaVuSans-30" transform="translate(127.246094 0)"/>
      </g>
     </g>
    </g>
    <g id="xtick_6">
     <g id="line2d_11">
      <path d="M 399.326875 389.896437 
L 399.326875 31.056437 
" clip-path="url(#paffe03f6c5)" style="fill: none; stroke: #b0b0b0; stroke-opacity: 0.15; stroke-width: 0.8; stroke-linecap: square"/>
     </g>
     <g id="line2d_12">
      <g>
       <use xlink:href="#m465e08e689" x="399.326875" y="389.896437" style="stroke: #000000; stroke-width: 0.8"/>
      </g>
     </g>
     <g id="text_6">
      <!-- 350 -->
      <g transform="translate(390.7375 403.735031) scale(0.09 -0.09)">
       <use xlink:href="#DejaVuSans-33"/>
       <use xlink:href="#DejaVuSans-35" transform="translate(63.623047 0)"/>
       <use xlink:href="#DejaVuSans-30" transform="translate(127.246094 0)"/>
      </g>
     </g>
    </g>
    <g id="xtick_7">
     <g id="line2d_13">
      <path d="M 469.802375 389.896437 
L 469.802375 31.056437 
" clip-path="url(#paffe03f6c5)" style="fill: none; stroke: #b0b0b0; stroke-opacity: 0.15; stroke-width: 0.8; stroke-linecap: square"/>
     </g>
     <g id="line2d_14">
      <g>
       <use xlink:href="#m465e08e689" x="469.802375" y="389.896437" style="stroke: #000000; stroke-width: 0.8"/>
      </g>
     </g>
     <g id="text_7">
      <!-- 400 -->
      <g transform="translate(461.213 403.735031) scale(0.09 -0.09)">
       <defs>
        <path id="DejaVuSans-34" d="M 2419 4116 
L 825 1625 
L 2419 1625 
L 2419 4116 
z
M 2253 4666 
L 3047 4666 
L 3047 1625 
L 3713 1625 
L 3713 1100 
L 3047 1100 
L 3047 0 
L 2419 0 
L 2419 1100 
L 313 1100 
L 313 1709 
L 2253 4666 
z
" transform="scale(0.015625)"/>
       </defs>
       <use xlink:href="#DejaVuSans-34"/>
       <use xlink:href="#DejaVuSans-30" transform="translate(63.623047 0)"/>
       <use xlink:href="#DejaVuSans-30" transform="translate(127.246094 0)"/>
      </g>
     </g>
    </g>
    <g id="xtick_8">
     <g id="line2d_15">
      <path d="M 540.277875 389.896437 
L 540.277875 31.056437 
" clip-path="url(#paffe03f6c5)" style="fill: none; stroke: #b0b0b0; stroke-opacity: 0.15; stroke-width: 0.8; stroke-linecap: square"/>
     </g>
     <g id="line2d_16">
      <g>
       <use xlink:href="#m465e08e689" x="540.277875" y="389.896437" style="stroke: #000000; stroke-width: 0.8"/>
      </g>
     </g>
     <g id="text_8">
      <!-- 450 -->
      <g transform="translate(531.6885 403.735031) scale(0.09 -0.09)">
       <use xlink:href="#DejaVuSans-34"/>
       <use xlink:href="#DejaVuSans-35" transform="translate(63.623047 0)"/>
       <use xlink:href="#DejaVuSans-30" transform="translate(127.246094 0)"/>
      </g>
     </g>
    </g>
    <g id="xtick_9">
     <g id="line2d_17">
      <path d="M 610.753375 389.896437 
L 610.753375 31.056437 
" clip-path="url(#paffe03f6c5)" style="fill: none; stroke: #b0b0b0; stroke-opacity: 0.15; stroke-width: 0.8; stroke-linecap: square"/>
     </g>
     <g id="line2d_18">
      <g>
       <use xlink:href="#m465e08e689" x="610.753375" y="389.896437" style="stroke: #000000; stroke-width: 0.8"/>
      </g>
     </g>
     <g id="text_9">
      <!-- 500 -->
      <g transform="translate(602.164 403.735031) scale(0.09 -0.09)">
       <use xlink:href="#DejaVuSans-35"/>
       <use xlink:href="#DejaVuSans-30" transform="translate(63.623047 0)"/>
       <use xlink:href="#DejaVuSans-30" transform="translate(127.246094 0)"/>
      </g>
     </g>
    </g>
    <g id="text_10">
     <!-- HBM capacity per package (GB) -->
     <g transform="translate(257.217703 416.445344) scale(0.09 -0.09)">
      <defs>
       <path id="DejaVuSans-48" d="M 628 4666 
L 1259 4666 
L 1259 2753 
L 3553 2753 
L 3553 4666 
L 4184 4666 
L 4184 0 
L 3553 0 
L 3553 2222 
L 1259 2222 
L 1259 0 
L 628 0 
L 628 4666 
z
" transform="scale(0.015625)"/>
       <path id="DejaVuSans-42" d="M 1259 2228 
L 1259 519 
L 2272 519 
Q 2781 519 3026 730 
Q 3272 941 3272 1375 
Q 3272 1813 3026 2020 
Q 2781 2228 2272 2228 
L 1259 2228 
z
M 1259 4147 
L 1259 2741 
L 2194 2741 
Q 2656 2741 2882 2914 
Q 3109 3088 3109 3444 
Q 3109 3797 2882 3972 
Q 2656 4147 2194 4147 
L 1259 4147 
z
M 628 4666 
L 2241 4666 
Q 2963 4666 3353 4366 
Q 3744 4066 3744 3513 
Q 3744 3084 3544 2831 
Q 3344 2578 2956 2516 
Q 3422 2416 3680 2098 
Q 3938 1781 3938 1306 
Q 3938 681 3513 340 
Q 3088 0 2303 0 
L 628 0 
L 628 4666 
z
" transform="scale(0.015625)"/>
       <path id="DejaVuSans-4d" d="M 628 4666 
L 1569 4666 
L 2759 1491 
L 3956 4666 
L 4897 4666 
L 4897 0 
L 4281 0 
L 4281 4097 
L 3078 897 
L 2444 897 
L 1241 4097 
L 1241 0 
L 628 0 
L 628 4666 
z
" transform="scale(0.015625)"/>
       <path id="DejaVuSans-20" transform="scale(0.015625)"/>
       <path id="DejaVuSans-63" d="M 3122 3366 
L 3122 2828 
Q 2878 2963 2633 3030 
Q 2388 3097 2138 3097 
Q 1578 3097 1268 2742 
Q 959 2388 959 1747 
Q 959 1106 1268 751 
Q 1578 397 2138 397 
Q 2388 397 2633 464 
Q 2878 531 3122 666 
L 3122 134 
Q 2881 22 2623 -34 
Q 2366 -91 2075 -91 
Q 1284 -91 818 406 
Q 353 903 353 1747 
Q 353 2603 823 3093 
Q 1294 3584 2113 3584 
Q 2378 3584 2631 3529 
Q 2884 3475 3122 3366 
z
" transform="scale(0.015625)"/>
       <path id="DejaVuSans-61" d="M 2194 1759 
Q 1497 1759 1228 1600 
Q 959 1441 959 1056 
Q 959 750 1161 570 
Q 1363 391 1709 391 
Q 2188 391 2477 730 
Q 2766 1069 2766 1631 
L 2766 1759 
L 2194 1759 
z
M 3341 1997 
L 3341 0 
L 2766 0 
L 2766 531 
Q 2569 213 2275 61 
Q 1981 -91 1556 -91 
Q 1019 -91 701 211 
Q 384 513 384 1019 
Q 384 1609 779 1909 
Q 1175 2209 1959 2209 
L 2766 2209 
L 2766 2266 
Q 2766 2663 2505 2880 
Q 2244 3097 1772 3097 
Q 1472 3097 1187 3025 
Q 903 2953 641 2809 
L 641 3341 
Q 956 3463 1253 3523 
Q 1550 3584 1831 3584 
Q 2591 3584 2966 3190 
Q 3341 2797 3341 1997 
z
" transform="scale(0.015625)"/>
       <path id="DejaVuSans-70" d="M 1159 525 
L 1159 -1331 
L 581 -1331 
L 581 3500 
L 1159 3500 
L 1159 2969 
Q 1341 3281 1617 3432 
Q 1894 3584 2278 3584 
Q 2916 3584 3314 3078 
Q 3713 2572 3713 1747 
Q 3713 922 3314 415 
Q 2916 -91 2278 -91 
Q 1894 -91 1617 61 
Q 1341 213 1159 525 
z
M 3116 1747 
Q 3116 2381 2855 2742 
Q 2594 3103 2138 3103 
Q 1681 3103 1420 2742 
Q 1159 2381 1159 1747 
Q 1159 1113 1420 752 
Q 1681 391 2138 391 
Q 2594 391 2855 752 
Q 3116 1113 3116 1747 
z
" transform="scale(0.015625)"/>
       <path id="DejaVuSans-69" d="M 603 3500 
L 1178 3500 
L 1178 0 
L 603 0 
L 603 3500 
z
M 603 4863 
L 1178 4863 
L 1178 4134 
L 603 4134 
L 603 4863 
z
" transform="scale(0.015625)"/>
       <path id="DejaVuSans-74" d="M 1172 4494 
L 1172 3500 
L 2356 3500 
L 2356 3053 
L 1172 3053 
L 1172 1153 
Q 1172 725 1289 603 
Q 1406 481 1766 481 
L 2356 481 
L 2356 0 
L 1766 0 
Q 1100 0 847 248 
Q 594 497 594 1153 
L 594 3053 
L 172 3053 
L 172 3500 
L 594 3500 
L 594 4494 
L 1172 4494 
z
" transform="scale(0.015625)"/>
       <path id="DejaVuSans-79" d="M 2059 -325 
Q 1816 -950 1584 -1140 
Q 1353 -1331 966 -1331 
L 506 -1331 
L 506 -850 
L 844 -850 
Q 1081 -850 1212 -737 
Q 1344 -625 1503 -206 
L 1606 56 
L 191 3500 
L 800 3500 
L 1894 763 
L 2988 3500 
L 3597 3500 
L 2059 -325 
z
" transform="scale(0.015625)"/>
       <path id="DejaVuSans-65" d="M 3597 1894 
L 3597 1613 
L 953 1613 
Q 991 1019 1311 708 
Q 1631 397 2203 397 
Q 2534 397 2845 478 
Q 3156 559 3463 722 
L 3463 178 
Q 3153 47 2828 -22 
Q 2503 -91 2169 -91 
Q 1331 -91 842 396 
Q 353 884 353 1716 
Q 353 2575 817 3079 
Q 1281 3584 2069 3584 
Q 2775 3584 3186 3129 
Q 3597 2675 3597 1894 
z
M 3022 2063 
Q 3016 2534 2758 2815 
Q 2500 3097 2075 3097 
Q 1594 3097 1305 2825 
Q 1016 2553 972 2059 
L 3022 2063 
z
" transform="scale(0.015625)"/>
       <path id="DejaVuSans-72" d="M 2631 2963 
Q 2534 3019 2420 3045 
Q 2306 3072 2169 3072 
Q 1681 3072 1420 2755 
Q 1159 2438 1159 1844 
L 1159 0 
L 581 0 
L 581 3500 
L 1159 3500 
L 1159 2956 
Q 1341 3275 1631 3429 
Q 1922 3584 2338 3584 
Q 2397 3584 2469 3576 
Q 2541 3569 2628 3553 
L 2631 2963 
z
" transform="scale(0.015625)"/>
       <path id="DejaVuSans-6b" d="M 581 4863 
L 1159 4863 
L 1159 1991 
L 2875 3500 
L 3609 3500 
L 1753 1863 
L 3688 0 
L 2938 0 
L 1159 1709 
L 1159 0 
L 581 0 
L 581 4863 
z
" transform="scale(0.015625)"/>
       <path id="DejaVuSans-67" d="M 2906 1791 
Q 2906 2416 2648 2759 
Q 2391 3103 1925 3103 
Q 1463 3103 1205 2759 
Q 947 2416 947 1791 
Q 947 1169 1205 825 
Q 1463 481 1925 481 
Q 2391 481 2648 825 
Q 2906 1169 2906 1791 
z
M 3481 434 
Q 3481 -459 3084 -895 
Q 2688 -1331 1869 -1331 
Q 1566 -1331 1297 -1286 
Q 1028 -1241 775 -1147 
L 775 -588 
Q 1028 -725 1275 -790 
Q 1522 -856 1778 -856 
Q 2344 -856 2625 -561 
Q 2906 -266 2906 331 
L 2906 616 
Q 2728 306 2450 153 
Q 2172 0 1784 0 
Q 1141 0 747 490 
Q 353 981 353 1791 
Q 353 2603 747 3093 
Q 1141 3584 1784 3584 
Q 2172 3584 2450 3431 
Q 2728 3278 2906 2969 
L 2906 3500 
L 3481 3500 
L 3481 434 
z
" transform="scale(0.015625)"/>
       <path id="DejaVuSans-28" d="M 1984 4856 
Q 1566 4138 1362 3434 
Q 1159 2731 1159 2009 
Q 1159 1288 1364 580 
Q 1569 -128 1984 -844 
L 1484 -844 
Q 1016 -109 783 600 
Q 550 1309 550 2009 
Q 550 2706 781 3412 
Q 1013 4119 1484 4856 
L 1984 4856 
z
" transform="scale(0.015625)"/>
       <path id="DejaVuSans-47" d="M 3809 666 
L 3809 1919 
L 2778 1919 
L 2778 2438 
L 4434 2438 
L 4434 434 
Q 4069 175 3628 42 
Q 3188 -91 2688 -91 
Q 1594 -91 976 548 
Q 359 1188 359 2328 
Q 359 3472 976 4111 
Q 1594 4750 2688 4750 
Q 3144 4750 3555 4637 
Q 3966 4525 4313 4306 
L 4313 3634 
Q 3963 3931 3569 4081 
Q 3175 4231 2741 4231 
Q 1884 4231 1454 3753 
Q 1025 3275 1025 2328 
Q 1025 1384 1454 906 
Q 1884 428 2741 428 
Q 3075 428 3337 486 
Q 3600 544 3809 666 
z
" transform="scale(0.015625)"/>
       <path id="DejaVuSans-29" d="M 513 4856 
L 1013 4856 
Q 1481 4119 1714 3412 
Q 1947 2706 1947 2009 
Q 1947 1309 1714 600 
Q 1481 -109 1013 -844 
L 513 -844 
Q 928 -128 1133 580 
Q 1338 1288 1338 2009 
Q 1338 2731 1133 3434 
Q 928 4138 513 4856 
z
" transform="scale(0.015625)"/>
      </defs>
      <use xlink:href="#DejaVuSans-48"/>
      <use xlink:href="#DejaVuSans-42" transform="translate(75.195312 0)"/>
      <use xlink:href="#DejaVuSans-4d" transform="translate(143.798828 0)"/>
      <use xlink:href="#DejaVuSans-20" transform="translate(230.078125 0)"/>
      <use xlink:href="#DejaVuSans-63" transform="translate(261.865234 0)"/>
      <use xlink:href="#DejaVuSans-61" transform="translate(316.845703 0)"/>
      <use xlink:href="#DejaVuSans-70" transform="translate(378.125 0)"/>
      <use xlink:href="#DejaVuSans-61" transform="translate(441.601562 0)"/>
      <use xlink:href="#DejaVuSans-63" transform="translate(502.880859 0)"/>
      <use xlink:href="#DejaVuSans-69" transform="translate(557.861328 0)"/>
      <use xlink:href="#DejaVuSans-74" transform="translate(585.644531 0)"/>
      <use xlink:href="#DejaVuSans-79" transform="translate(624.853516 0)"/>
      <use xlink:href="#DejaVuSans-20" transform="translate(684.033203 0)"/>
      <use xlink:href="#DejaVuSans-70" transform="translate(715.820312 0)"/>
      <use xlink:href="#DejaVuSans-65" transform="translate(779.296875 0)"/>
      <use xlink:href="#DejaVuSans-72" transform="translate(840.820312 0)"/>
      <use xlink:href="#DejaVuSans-20" transform="translate(881.933594 0)"/>
      <use xlink:href="#DejaVuSans-70" transform="translate(913.720703 0)"/>
      <use xlink:href="#DejaVuSans-61" transform="translate(977.197266 0)"/>
      <use xlink:href="#DejaVuSans-63" transform="translate(1038.476562 0)"/>
      <use xlink:href="#DejaVuSans-6b" transform="translate(1093.457031 0)"/>
      <use xlink:href="#DejaVuSans-61" transform="translate(1149.617188 0)"/>
      <use xlink:href="#DejaVuSans-67" transform="translate(1210.896484 0)"/>
      <use xlink:href="#DejaVuSans-65" transform="translate(1274.373047 0)"/>
      <use xlink:href="#DejaVuSans-20" transform="translate(1335.896484 0)"/>
      <use xlink:href="#DejaVuSans-28" transform="translate(1367.683594 0)"/>
      <use xlink:href="#DejaVuSans-47" transform="translate(1406.697266 0)"/>
      <use xlink:href="#DejaVuSans-42" transform="translate(1484.1875 0)"/>
      <use xlink:href="#DejaVuSans-29" transform="translate(1552.791016 0)"/>
     </g>
    </g>
   </g>
   <g id="matplotlib.axis_2">
    <g id="ytick_1">
     <g id="line2d_19">
      <path d="M 46.949375 352.123806 
L 610.753375 352.123806 
" clip-path="url(#paffe03f6c5)" style="fill: none; stroke: #b0b0b0; stroke-opacity: 0.15; stroke-width: 0.8; stroke-linecap: square"/>
     </g>
     <g id="line2d_20">
      <defs>
       <path id="md62975b147" d="M 0 0 
L -3.5 0 
" style="stroke: #000000; stroke-width: 0.8"/>
      </defs>
      <g>
       <use xlink:href="#md62975b147" x="46.949375" y="352.123806" style="stroke: #000000; stroke-width: 0.8"/>
      </g>
     </g>
     <g id="text_11">
      <!-- 5.0 -->
      <g transform="translate(25.636563 355.543103) scale(0.09 -0.09)">
       <defs>
        <path id="DejaVuSans-2e" d="M 684 794 
L 1344 794 
L 1344 0 
L 684 0 
L 684 794 
z
" transform="scale(0.015625)"/>
       </defs>
       <use xlink:href="#DejaVuSans-35"/>
       <use xlink:href="#DejaVuSans-2e" transform="translate(63.623047 0)"/>
       <use xlink:href="#DejaVuSans-30" transform="translate(95.410156 0)"/>
      </g>
     </g>
    </g>
    <g id="ytick_2">
     <g id="line2d_21">
      <path d="M 46.949375 304.908016 
L 610.753375 304.908016 
" clip-path="url(#paffe03f6c5)" style="fill: none; stroke: #b0b0b0; stroke-opacity: 0.15; stroke-width: 0.8; stroke-linecap: square"/>
     </g>
     <g id="line2d_22">
      <g>
       <use xlink:href="#md62975b147" x="46.949375" y="304.908016" style="stroke: #000000; stroke-width: 0.8"/>
      </g>
     </g>
     <g id="text_12">
      <!-- 7.5 -->
      <g transform="translate(25.636563 308.327313) scale(0.09 -0.09)">
       <defs>
        <path id="DejaVuSans-37" d="M 525 4666 
L 3525 4666 
L 3525 4397 
L 1831 0 
L 1172 0 
L 2766 4134 
L 525 4134 
L 525 4666 
z
" transform="scale(0.015625)"/>
       </defs>
       <use xlink:href="#DejaVuSans-37"/>
       <use xlink:href="#DejaVuSans-2e" transform="translate(63.623047 0)"/>
       <use xlink:href="#DejaVuSans-35" transform="translate(95.410156 0)"/>
      </g>
     </g>
    </g>
    <g id="ytick_3">
     <g id="line2d_23">
      <path d="M 46.949375 257.692227 
L 610.753375 257.692227 
" clip-path="url(#paffe03f6c5)" style="fill: none; stroke: #b0b0b0; stroke-opacity: 0.15; stroke-width: 0.8; stroke-linecap: square"/>
     </g>
     <g id="line2d_24">
      <g>
       <use xlink:href="#md62975b147" x="46.949375" y="257.692227" style="stroke: #000000; stroke-width: 0.8"/>
      </g>
     </g>
     <g id="text_13">
      <!-- 10.0 -->
      <g transform="translate(19.910313 261.111524) scale(0.09 -0.09)">
       <use xlink:href="#DejaVuSans-31"/>
       <use xlink:href="#DejaVuSans-30" transform="translate(63.623047 0)"/>
       <use xlink:href="#DejaVuSans-2e" transform="translate(127.246094 0)"/>
       <use xlink:href="#DejaVuSans-30" transform="translate(159.033203 0)"/>
      </g>
     </g>
    </g>
    <g id="ytick_4">
     <g id="line2d_25">
      <path d="M 46.949375 210.476438 
L 610.753375 210.476438 
" clip-path="url(#paffe03f6c5)" style="fill: none; stroke: #b0b0b0; stroke-opacity: 0.15; stroke-width: 0.8; stroke-linecap: square"/>
     </g>
     <g id="line2d_26">
      <g>
       <use xlink:href="#md62975b147" x="46.949375" y="210.476438" style="stroke: #000000; stroke-width: 0.8"/>
      </g>
     </g>
     <g id="text_14">
      <!-- 12.5 -->
      <g transform="translate(19.910313 213.895734) scale(0.09 -0.09)">
       <use xlink:href="#DejaVuSans-31"/>
       <use xlink:href="#DejaVuSans-32" transform="translate(63.623047 0)"/>
       <use xlink:href="#DejaVuSans-2e" transform="translate(127.246094 0)"/>
       <use xlink:href="#DejaVuSans-35" transform="translate(159.033203 0)"/>
      </g>
     </g>
    </g>
    <g id="ytick_5">
     <g id="line2d_27">
      <path d="M 46.949375 163.260648 
L 610.753375 163.260648 
" clip-path="url(#paffe03f6c5)" style="fill: none; stroke: #b0b0b0; stroke-opacity: 0.15; stroke-width: 0.8; stroke-linecap: square"/>
     </g>
     <g id="line2d_28">
      <g>
       <use xlink:href="#md62975b147" x="46.949375" y="163.260648" style="stroke: #000000; stroke-width: 0.8"/>
      </g>
     </g>
     <g id="text_15">
      <!-- 15.0 -->
      <g transform="translate(19.910313 166.679945) scale(0.09 -0.09)">
       <use xlink:href="#DejaVuSans-31"/>
       <use xlink:href="#DejaVuSans-35" transform="translate(63.623047 0)"/>
       <use xlink:href="#DejaVuSans-2e" transform="translate(127.246094 0)"/>
       <use xlink:href="#DejaVuSans-30" transform="translate(159.033203 0)"/>
      </g>
     </g>
    </g>
    <g id="ytick_6">
     <g id="line2d_29">
      <path d="M 46.949375 116.044859 
L 610.753375 116.044859 
" clip-path="url(#paffe03f6c5)" style="fill: none; stroke: #b0b0b0; stroke-opacity: 0.15; stroke-width: 0.8; stroke-linecap: square"/>
     </g>
     <g id="line2d_30">
      <g>
       <use xlink:href="#md62975b147" x="46.949375" y="116.044859" style="stroke: #000000; stroke-width: 0.8"/>
      </g>
     </g>
     <g id="text_16">
      <!-- 17.5 -->
      <g transform="translate(19.910313 119.464155) scale(0.09 -0.09)">
       <use xlink:href="#DejaVuSans-31"/>
       <use xlink:href="#DejaVuSans-37" transform="translate(63.623047 0)"/>
       <use xlink:href="#DejaVuSans-2e" transform="translate(127.246094 0)"/>
       <use xlink:href="#DejaVuSans-35" transform="translate(159.033203 0)"/>
      </g>
     </g>
    </g>
    <g id="ytick_7">
     <g id="line2d_31">
      <path d="M 46.949375 68.829069 
L 610.753375 68.829069 
" clip-path="url(#paffe03f6c5)" style="fill: none; stroke: #b0b0b0; stroke-opacity: 0.15; stroke-width: 0.8; stroke-linecap: square"/>
     </g>
     <g id="line2d_32">
      <g>
       <use xlink:href="#md62975b147" x="46.949375" y="68.829069" style="stroke: #000000; stroke-width: 0.8"/>
      </g>
     </g>
     <g id="text_17">
      <!-- 20.0 -->
      <g transform="translate(19.910313 72.248366) scale(0.09 -0.09)">
       <use xlink:href="#DejaVuSans-32"/>
       <use xlink:href="#DejaVuSans-30" transform="translate(63.623047 0)"/>
       <use xlink:href="#DejaVuSans-2e" transform="translate(127.246094 0)"/>
       <use xlink:href="#DejaVuSans-30" transform="translate(159.033203 0)"/>
      </g>
     </g>
    </g>
    <g id="text_18">
     <!-- Memory bandwidth per package (TB/s) -->
     <g transform="translate(14.038594 297.907219) rotate(-90) scale(0.09 -0.09)">
      <defs>
       <path id="DejaVuSans-6d" d="M 3328 2828 
Q 3544 3216 3844 3400 
Q 4144 3584 4550 3584 
Q 5097 3584 5394 3201 
Q 5691 2819 5691 2113 
L 5691 0 
L 5113 0 
L 5113 2094 
Q 5113 2597 4934 2840 
Q 4756 3084 4391 3084 
Q 3944 3084 3684 2787 
Q 3425 2491 3425 1978 
L 3425 0 
L 2847 0 
L 2847 2094 
Q 2847 2600 2669 2842 
Q 2491 3084 2119 3084 
Q 1678 3084 1418 2786 
Q 1159 2488 1159 1978 
L 1159 0 
L 581 0 
L 581 3500 
L 1159 3500 
L 1159 2956 
Q 1356 3278 1631 3431 
Q 1906 3584 2284 3584 
Q 2666 3584 2933 3390 
Q 3200 3197 3328 2828 
z
" transform="scale(0.015625)"/>
       <path id="DejaVuSans-6f" d="M 1959 3097 
Q 1497 3097 1228 2736 
Q 959 2375 959 1747 
Q 959 1119 1226 758 
Q 1494 397 1959 397 
Q 2419 397 2687 759 
Q 2956 1122 2956 1747 
Q 2956 2369 2687 2733 
Q 2419 3097 1959 3097 
z
M 1959 3584 
Q 2709 3584 3137 3096 
Q 3566 2609 3566 1747 
Q 3566 888 3137 398 
Q 2709 -91 1959 -91 
Q 1206 -91 779 398 
Q 353 888 353 1747 
Q 353 2609 779 3096 
Q 1206 3584 1959 3584 
z
" transform="scale(0.015625)"/>
       <path id="DejaVuSans-62" d="M 3116 1747 
Q 3116 2381 2855 2742 
Q 2594 3103 2138 3103 
Q 1681 3103 1420 2742 
Q 1159 2381 1159 1747 
Q 1159 1113 1420 752 
Q 1681 391 2138 391 
Q 2594 391 2855 752 
Q 3116 1113 3116 1747 
z
M 1159 2969 
Q 1341 3281 1617 3432 
Q 1894 3584 2278 3584 
Q 2916 3584 3314 3078 
Q 3713 2572 3713 1747 
Q 3713 922 3314 415 
Q 2916 -91 2278 -91 
Q 1894 -91 1617 61 
Q 1341 213 1159 525 
L 1159 0 
L 581 0 
L 581 4863 
L 1159 4863 
L 1159 2969 
z
" transform="scale(0.015625)"/>
       <path id="DejaVuSans-6e" d="M 3513 2113 
L 3513 0 
L 2938 0 
L 2938 2094 
Q 2938 2591 2744 2837 
Q 2550 3084 2163 3084 
Q 1697 3084 1428 2787 
Q 1159 2491 1159 1978 
L 1159 0 
L 581 0 
L 581 3500 
L 1159 3500 
L 1159 2956 
Q 1366 3272 1645 3428 
Q 1925 3584 2291 3584 
Q 2894 3584 3203 3211 
Q 3513 2838 3513 2113 
z
" transform="scale(0.015625)"/>
       <path id="DejaVuSans-64" d="M 2906 2969 
L 2906 4863 
L 3481 4863 
L 3481 0 
L 2906 0 
L 2906 525 
Q 2725 213 2448 61 
Q 2172 -91 1784 -91 
Q 1150 -91 751 415 
Q 353 922 353 1747 
Q 353 2572 751 3078 
Q 1150 3584 1784 3584 
Q 2172 3584 2448 3432 
Q 2725 3281 2906 2969 
z
M 947 1747 
Q 947 1113 1208 752 
Q 1469 391 1925 391 
Q 2381 391 2643 752 
Q 2906 1113 2906 1747 
Q 2906 2381 2643 2742 
Q 2381 3103 1925 3103 
Q 1469 3103 1208 2742 
Q 947 2381 947 1747 
z
" transform="scale(0.015625)"/>
       <path id="DejaVuSans-77" d="M 269 3500 
L 844 3500 
L 1563 769 
L 2278 3500 
L 2956 3500 
L 3675 769 
L 4391 3500 
L 4966 3500 
L 4050 0 
L 3372 0 
L 2619 2869 
L 1863 0 
L 1184 0 
L 269 3500 
z
" transform="scale(0.015625)"/>
       <path id="DejaVuSans-68" d="M 3513 2113 
L 3513 0 
L 2938 0 
L 2938 2094 
Q 2938 2591 2744 2837 
Q 2550 3084 2163 3084 
Q 1697 3084 1428 2787 
Q 1159 2491 1159 1978 
L 1159 0 
L 581 0 
L 581 4863 
L 1159 4863 
L 1159 2956 
Q 1366 3272 1645 3428 
Q 1925 3584 2291 3584 
Q 2894 3584 3203 3211 
Q 3513 2838 3513 2113 
z
" transform="scale(0.015625)"/>
       <path id="DejaVuSans-54" d="M -19 4666 
L 3928 4666 
L 3928 4134 
L 2272 4134 
L 2272 0 
L 1638 0 
L 1638 4134 
L -19 4134 
L -19 4666 
z
" transform="scale(0.015625)"/>
       <path id="DejaVuSans-2f" d="M 1625 4666 
L 2156 4666 
L 531 -594 
L 0 -594 
L 1625 4666 
z
" transform="scale(0.015625)"/>
       <path id="DejaVuSans-73" d="M 2834 3397 
L 2834 2853 
Q 2591 2978 2328 3040 
Q 2066 3103 1784 3103 
Q 1356 3103 1142 2972 
Q 928 2841 928 2578 
Q 928 2378 1081 2264 
Q 1234 2150 1697 2047 
L 1894 2003 
Q 2506 1872 2764 1633 
Q 3022 1394 3022 966 
Q 3022 478 2636 193 
Q 2250 -91 1575 -91 
Q 1294 -91 989 -36 
Q 684 19 347 128 
L 347 722 
Q 666 556 975 473 
Q 1284 391 1588 391 
Q 1994 391 2212 530 
Q 2431 669 2431 922 
Q 2431 1156 2273 1281 
Q 2116 1406 1581 1522 
L 1381 1569 
Q 847 1681 609 1914 
Q 372 2147 372 2553 
Q 372 3047 722 3315 
Q 1072 3584 1716 3584 
Q 2034 3584 2315 3537 
Q 2597 3491 2834 3397 
z
" transform="scale(0.015625)"/>
      </defs>
      <use xlink:href="#DejaVuSans-4d"/>
      <use xlink:href="#DejaVuSans-65" transform="translate(86.279297 0)"/>
      <use xlink:href="#DejaVuSans-6d" transform="translate(147.802734 0)"/>
      <use xlink:href="#DejaVuSans-6f" transform="translate(245.214844 0)"/>
      <use xlink:href="#DejaVuSans-72" transform="translate(306.396484 0)"/>
      <use xlink:href="#DejaVuSans-79" transform="translate(347.509766 0)"/>
      <use xlink:href="#DejaVuSans-20" transform="translate(406.689453 0)"/>
      <use xlink:href="#DejaVuSans-62" transform="translate(438.476562 0)"/>
      <use xlink:href="#DejaVuSans-61" transform="translate(501.953125 0)"/>
      <use xlink:href="#DejaVuSans-6e" transform="translate(563.232422 0)"/>
      <use xlink:href="#DejaVuSans-64" transform="translate(626.611328 0)"/>
      <use xlink:href="#DejaVuSans-77" transform="translate(690.087891 0)"/>
      <use xlink:href="#DejaVuSans-69" transform="translate(771.875 0)"/>
      <use xlink:href="#DejaVuSans-64" transform="translate(799.658203 0)"/>
      <use xlink:href="#DejaVuSans-74" transform="translate(863.134766 0)"/>
      <use xlink:href="#DejaVuSans-68" transform="translate(902.34375 0)"/>
      <use xlink:href="#DejaVuSans-20" transform="translate(965.722656 0)"/>
      <use xlink:href="#DejaVuSans-70" transform="translate(997.509766 0)"/>
      <use xlink:href="#DejaVuSans-65" transform="translate(1060.986328 0)"/>
      <use xlink:href="#DejaVuSans-72" transform="translate(1122.509766 0)"/>
      <use xlink:href="#DejaVuSans-20" transform="translate(1163.623047 0)"/>
      <use xlink:href="#DejaVuSans-70" transform="translate(1195.410156 0)"/>
      <use xlink:href="#DejaVuSans-61" transform="translate(1258.886719 0)"/>
      <use xlink:href="#DejaVuSans-63" transform="translate(1320.166016 0)"/>
      <use xlink:href="#DejaVuSans-6b" transform="translate(1375.146484 0)"/>
      <use xlink:href="#DejaVuSans-61" transform="translate(1431.306641 0)"/>
      <use xlink:href="#DejaVuSans-67" transform="translate(1492.585938 0)"/>
      <use xlink:href="#DejaVuSans-65" transform="translate(1556.0625 0)"/>
      <use xlink:href="#DejaVuSans-20" transform="translate(1617.585938 0)"/>
      <use xlink:href="#DejaVuSans-28" transform="translate(1649.373047 0)"/>
      <use xlink:href="#DejaVuSans-54" transform="translate(1688.386719 0)"/>
      <use xlink:href="#DejaVuSans-42" transform="translate(1749.470703 0)"/>
      <use xlink:href="#DejaVuSans-2f" transform="translate(1818.074219 0)"/>
      <use xlink:href="#DejaVuSans-73" transform="translate(1851.765625 0)"/>
      <use xlink:href="#DejaVuSans-29" transform="translate(1903.865234 0)"/>
     </g>
    </g>
   </g>
   <g id="patch_3">
    <path d="M 46.949375 389.896437 
L 46.949375 31.056438 
" style="fill: none; stroke: #000000; stroke-width: 0.8; stroke-linejoin: miter; stroke-linecap: square"/>
   </g>
   <g id="patch_4">
    <path d="M 46.949375 389.896437 
L 610.753375 389.896437 
" style="fill: none; stroke: #000000; stroke-width: 0.8; stroke-linejoin: miter; stroke-linecap: square"/>
   </g>
   <g id="text_19">
    <!-- B300-class (NVIDIA) -->
    <g transform="translate(301.937255 272.506609) scale(0.08 -0.08)">
     <defs>
      <path id="DejaVuSans-2d" d="M 313 2009 
L 1997 2009 
L 1997 1497 
L 313 1497 
L 313 2009 
z
" transform="scale(0.015625)"/>
      <path id="DejaVuSans-6c" d="M 603 4863 
L 1178 4863 
L 1178 0 
L 603 0 
L 603 4863 
z
" transform="scale(0.015625)"/>
      <path id="DejaVuSans-4e" d="M 628 4666 
L 1478 4666 
L 3547 763 
L 3547 4666 
L 4159 4666 
L 4159 0 
L 3309 0 
L 1241 3903 
L 1241 0 
L 628 0 
L 628 4666 
z
" transform="scale(0.015625)"/>
      <path id="DejaVuSans-56" d="M 1831 0 
L 50 4666 
L 709 4666 
L 2188 738 
L 3669 4666 
L 4325 4666 
L 2547 0 
L 1831 0 
z
" transform="scale(0.015625)"/>
      <path id="DejaVuSans-49" d="M 628 4666 
L 1259 4666 
L 1259 0 
L 628 0 
L 628 4666 
z
" transform="scale(0.015625)"/>
      <path id="DejaVuSans-44" d="M 1259 4147 
L 1259 519 
L 2022 519 
Q 2988 519 3436 956 
Q 3884 1394 3884 2338 
Q 3884 3275 3436 3711 
Q 2988 4147 2022 4147 
L 1259 4147 
z
M 628 4666 
L 1925 4666 
Q 3281 4666 3915 4102 
Q 4550 3538 4550 2338 
Q 4550 1131 3912 565 
Q 3275 0 1925 0 
L 628 0 
L 628 4666 
z
" transform="scale(0.015625)"/>
      <path id="DejaVuSans-41" d="M 2188 4044 
L 1331 1722 
L 3047 1722 
L 2188 4044 
z
M 1831 4666 
L 2547 4666 
L 4325 0 
L 3669 0 
L 3244 1197 
L 1141 1197 
L 716 0 
L 50 0 
L 1831 4666 
z
" transform="scale(0.015625)"/>
     </defs>
     <use xlink:href="#DejaVuSans-42"/>
     <use xlink:href="#DejaVuSans-33" transform="translate(68.603516 0)"/>
     <use xlink:href="#DejaVuSans-30" transform="translate(132.226562 0)"/>
     <use xlink:href="#DejaVuSans-30" transform="translate(195.849609 0)"/>
     <use xlink:href="#DejaVuSans-2d" transform="translate(259.472656 0)"/>
     <use xlink:href="#DejaVuSans-63" transform="translate(295.556641 0)"/>
     <use xlink:href="#DejaVuSans-6c" transform="translate(350.537109 0)"/>
     <use xlink:href="#DejaVuSans-61" transform="translate(378.320312 0)"/>
     <use xlink:href="#DejaVuSans-73" transform="translate(439.599609 0)"/>
     <use xlink:href="#DejaVuSans-73" transform="translate(491.699219 0)"/>
     <use xlink:href="#DejaVuSans-20" transform="translate(543.798828 0)"/>
     <use xlink:href="#DejaVuSans-28" transform="translate(575.585938 0)"/>
     <use xlink:href="#DejaVuSans-4e" transform="translate(614.599609 0)"/>
     <use xlink:href="#DejaVuSans-56" transform="translate(689.404297 0)"/>
     <use xlink:href="#DejaVuSans-49" transform="translate(757.8125 0)"/>
     <use xlink:href="#DejaVuSans-44" transform="translate(787.304688 0)"/>
     <use xlink:href="#DejaVuSans-49" transform="translate(864.306641 0)"/>
     <use xlink:href="#DejaVuSans-41" transform="translate(893.798828 0)"/>
     <use xlink:href="#DejaVuSans-29" transform="translate(962.207031 0)"/>
    </g>
    <!-- [A/D] -->
    <g transform="translate(301.937255 281.464859) scale(0.08 -0.08)">
     <defs>
      <path id="DejaVuSans-5b" d="M 550 4863 
L 1875 4863 
L 1875 4416 
L 1125 4416 
L 1125 -397 
L 1875 -397 
L 1875 -844 
L 550 -844 
L 550 4863 
z
" transform="scale(0.015625)"/>
      <path id="DejaVuSans-5d" d="M 1947 4863 
L 1947 -844 
L 622 -844 
L 622 -397 
L 1369 -397 
L 1369 4416 
L 622 4416 
L 622 4863 
L 1947 4863 
z
" transform="scale(0.015625)"/>
     </defs>
     <use xlink:href="#DejaVuSans-5b"/>
     <use xlink:href="#DejaVuSans-41" transform="translate(39.013672 0)"/>
     <use xlink:href="#DejaVuSans-2f" transform="translate(107.421875 0)"/>
     <use xlink:href="#DejaVuSans-44" transform="translate(141.113281 0)"/>
     <use xlink:href="#DejaVuSans-5d" transform="translate(218.115234 0)"/>
    </g>
   </g>
   <g id="text_20">
    <!-- MI355X (AMD) [A] -->
    <g transform="translate(319.937255 317.464859) scale(0.08 -0.08)">
     <defs>
      <path id="DejaVuSans-58" d="M 403 4666 
L 1081 4666 
L 2241 2931 
L 3406 4666 
L 4084 4666 
L 2584 2425 
L 4184 0 
L 3506 0 
L 2194 1984 
L 872 0 
L 191 0 
L 1856 2491 
L 403 4666 
z
" transform="scale(0.015625)"/>
     </defs>
     <use xlink:href="#DejaVuSans-4d"/>
     <use xlink:href="#DejaVuSans-49" transform="translate(86.279297 0)"/>
     <use xlink:href="#DejaVuSans-33" transform="translate(115.771484 0)"/>
     <use xlink:href="#DejaVuSans-35" transform="translate(179.394531 0)"/>
     <use xlink:href="#DejaVuSans-35" transform="translate(243.017578 0)"/>
     <use xlink:href="#DejaVuSans-58" transform="translate(306.640625 0)"/>
     <use xlink:href="#DejaVuSans-20" transform="translate(375.146484 0)"/>
     <use xlink:href="#DejaVuSans-28" transform="translate(406.933594 0)"/>
     <use xlink:href="#DejaVuSans-41" transform="translate(445.947266 0)"/>
     <use xlink:href="#DejaVuSans-4d" transform="translate(514.355469 0)"/>
     <use xlink:href="#DejaVuSans-44" transform="translate(600.634766 0)"/>
     <use xlink:href="#DejaVuSans-29" transform="translate(677.636719 0)"/>
     <use xlink:href="#DejaVuSans-20" transform="translate(716.650391 0)"/>
     <use xlink:href="#DejaVuSans-5b" transform="translate(748.4375 0)"/>
     <use xlink:href="#DejaVuSans-41" transform="translate(787.451172 0)"/>
     <use xlink:href="#DejaVuSans-5d" transform="translate(855.859375 0)"/>
    </g>
   </g>
   <g id="text_21">
    <!-- MI400 (AMD, announced) -->
    <g transform="translate(522.906695 61.425345) scale(0.08 -0.08)">
     <defs>
      <path id="DejaVuSans-2c" d="M 750 794 
L 1409 794 
L 1409 256 
L 897 -744 
L 494 -744 
L 750 256 
L 750 794 
z
" transform="scale(0.015625)"/>
      <path id="DejaVuSans-75" d="M 544 1381 
L 544 3500 
L 1119 3500 
L 1119 1403 
Q 1119 906 1312 657 
Q 1506 409 1894 409 
Q 2359 409 2629 706 
Q 2900 1003 2900 1516 
L 2900 3500 
L 3475 3500 
L 3475 0 
L 2900 0 
L 2900 538 
Q 2691 219 2414 64 
Q 2138 -91 1772 -91 
Q 1169 -91 856 284 
Q 544 659 544 1381 
z
M 1991 3584 
L 1991 3584 
z
" transform="scale(0.015625)"/>
     </defs>
     <use xlink:href="#DejaVuSans-4d"/>
     <use xlink:href="#DejaVuSans-49" transform="translate(86.279297 0)"/>
     <use xlink:href="#DejaVuSans-34" transform="translate(115.771484 0)"/>
     <use xlink:href="#DejaVuSans-30" transform="translate(179.394531 0)"/>
     <use xlink:href="#DejaVuSans-30" transform="translate(243.017578 0)"/>
     <use xlink:href="#DejaVuSans-20" transform="translate(306.640625 0)"/>
     <use xlink:href="#DejaVuSans-28" transform="translate(338.427734 0)"/>
     <use xlink:href="#DejaVuSans-41" transform="translate(377.441406 0)"/>
     <use xlink:href="#DejaVuSans-4d" transform="translate(445.849609 0)"/>
     <use xlink:href="#DejaVuSans-44" transform="translate(532.128906 0)"/>
     <use xlink:href="#DejaVuSans-2c" transform="translate(609.130859 0)"/>
     <use xlink:href="#DejaVuSans-20" transform="translate(640.917969 0)"/>
     <use xlink:href="#DejaVuSans-61" transform="translate(672.705078 0)"/>
     <use xlink:href="#DejaVuSans-6e" transform="translate(733.984375 0)"/>
     <use xlink:href="#DejaVuSans-6e" transform="translate(797.363281 0)"/>
     <use xlink:href="#DejaVuSans-6f" transform="translate(860.742188 0)"/>
     <use xlink:href="#DejaVuSans-75" transform="translate(921.923828 0)"/>
     <use xlink:href="#DejaVuSans-6e" transform="translate(985.302734 0)"/>
     <use xlink:href="#DejaVuSans-63" transform="translate(1048.681641 0)"/>
     <use xlink:href="#DejaVuSans-65" transform="translate(1103.662109 0)"/>
     <use xlink:href="#DejaVuSans-64" transform="translate(1165.185547 0)"/>
     <use xlink:href="#DejaVuSans-29" transform="translate(1228.662109 0)"/>
    </g>
    <!-- [B] -->
    <g transform="translate(522.906695 70.383595) scale(0.08 -0.08)">
     <use xlink:href="#DejaVuSans-5b"/>
     <use xlink:href="#DejaVuSans-42" transform="translate(39.013672 0)"/>
     <use xlink:href="#DejaVuSans-5d" transform="translate(107.617188 0)"/>
    </g>
   </g>
   <g id="text_22">
    <!-- Ironwood TPU v7 -->
    <g transform="translate(184.624295 292.404987) scale(0.08 -0.08)">
     <defs>
      <path id="DejaVuSans-50" d="M 1259 4147 
L 1259 2394 
L 2053 2394 
Q 2494 2394 2734 2622 
Q 2975 2850 2975 3272 
Q 2975 3691 2734 3919 
Q 2494 4147 2053 4147 
L 1259 4147 
z
M 628 4666 
L 2053 4666 
Q 2838 4666 3239 4311 
Q 3641 3956 3641 3272 
Q 3641 2581 3239 2228 
Q 2838 1875 2053 1875 
L 1259 1875 
L 1259 0 
L 628 0 
L 628 4666 
z
" transform="scale(0.015625)"/>
      <path id="DejaVuSans-55" d="M 556 4666 
L 1191 4666 
L 1191 1831 
Q 1191 1081 1462 751 
Q 1734 422 2344 422 
Q 2950 422 3222 751 
Q 3494 1081 3494 1831 
L 3494 4666 
L 4128 4666 
L 4128 1753 
Q 4128 841 3676 375 
Q 3225 -91 2344 -91 
Q 1459 -91 1007 375 
Q 556 841 556 1753 
L 556 4666 
z
" transform="scale(0.015625)"/>
      <path id="DejaVuSans-76" d="M 191 3500 
L 800 3500 
L 1894 563 
L 2988 3500 
L 3597 3500 
L 2284 0 
L 1503 0 
L 191 3500 
z
" transform="scale(0.015625)"/>
     </defs>
     <use xlink:href="#DejaVuSans-49"/>
     <use xlink:href="#DejaVuSans-72" transform="translate(29.492188 0)"/>
     <use xlink:href="#DejaVuSans-6f" transform="translate(68.355469 0)"/>
     <use xlink:href="#DejaVuSans-6e" transform="translate(129.537109 0)"/>
     <use xlink:href="#DejaVuSans-77" transform="translate(192.916016 0)"/>
     <use xlink:href="#DejaVuSans-6f" transform="translate(274.703125 0)"/>
     <use xlink:href="#DejaVuSans-6f" transform="translate(335.884766 0)"/>
     <use xlink:href="#DejaVuSans-64" transform="translate(397.066406 0)"/>
     <use xlink:href="#DejaVuSans-20" transform="translate(460.542969 0)"/>
     <use xlink:href="#DejaVuSans-54" transform="translate(492.330078 0)"/>
     <use xlink:href="#DejaVuSans-50" transform="translate(553.414062 0)"/>
     <use xlink:href="#DejaVuSans-55" transform="translate(613.716797 0)"/>
     <use xlink:href="#DejaVuSans-20" transform="translate(686.910156 0)"/>
     <use xlink:href="#DejaVuSans-76" transform="translate(718.697266 0)"/>
     <use xlink:href="#DejaVuSans-37" transform="translate(777.876953 0)"/>
    </g>
    <!-- (Google) [A/B] -->
    <g transform="translate(184.624295 301.363237) scale(0.08 -0.08)">
     <use xlink:href="#DejaVuSans-28"/>
     <use xlink:href="#DejaVuSans-47" transform="translate(39.013672 0)"/>
     <use xlink:href="#DejaVuSans-6f" transform="translate(116.503906 0)"/>
     <use xlink:href="#DejaVuSans-6f" transform="translate(177.685547 0)"/>
     <use xlink:href="#DejaVuSans-67" transform="translate(238.867188 0)"/>
     <use xlink:href="#DejaVuSans-6c" transform="translate(302.34375 0)"/>
     <use xlink:href="#DejaVuSans-65" transform="translate(330.126953 0)"/>
     <use xlink:href="#DejaVuSans-29" transform="translate(391.650391 0)"/>
     <use xlink:href="#DejaVuSans-20" transform="translate(430.664062 0)"/>
     <use xlink:href="#DejaVuSans-5b" transform="translate(462.451172 0)"/>
     <use xlink:href="#DejaVuSans-41" transform="translate(501.464844 0)"/>
     <use xlink:href="#DejaVuSans-2f" transform="translate(569.873047 0)"/>
     <use xlink:href="#DejaVuSans-42" transform="translate(603.564453 0)"/>
     <use xlink:href="#DejaVuSans-5d" transform="translate(672.167969 0)"/>
    </g>
   </g>
   <g id="text_23">
    <!-- Trainium3 (AWS) [A] -->
    <g transform="translate(116.967815 348.012437) scale(0.08 -0.08)">
     <defs>
      <path id="DejaVuSans-57" d="M 213 4666 
L 850 4666 
L 1831 722 
L 2809 4666 
L 3519 4666 
L 4500 722 
L 5478 4666 
L 6119 4666 
L 4947 0 
L 4153 0 
L 3169 4050 
L 2175 0 
L 1381 0 
L 213 4666 
z
" transform="scale(0.015625)"/>
      <path id="DejaVuSans-53" d="M 3425 4513 
L 3425 3897 
Q 3066 4069 2747 4153 
Q 2428 4238 2131 4238 
Q 1616 4238 1336 4038 
Q 1056 3838 1056 3469 
Q 1056 3159 1242 3001 
Q 1428 2844 1947 2747 
L 2328 2669 
Q 3034 2534 3370 2195 
Q 3706 1856 3706 1288 
Q 3706 609 3251 259 
Q 2797 -91 1919 -91 
Q 1588 -91 1214 -16 
Q 841 59 441 206 
L 441 856 
Q 825 641 1194 531 
Q 1563 422 1919 422 
Q 2459 422 2753 634 
Q 3047 847 3047 1241 
Q 3047 1584 2836 1778 
Q 2625 1972 2144 2069 
L 1759 2144 
Q 1053 2284 737 2584 
Q 422 2884 422 3419 
Q 422 4038 858 4394 
Q 1294 4750 2059 4750 
Q 2388 4750 2728 4690 
Q 3069 4631 3425 4513 
z
" transform="scale(0.015625)"/>
     </defs>
     <use xlink:href="#DejaVuSans-54"/>
     <use xlink:href="#DejaVuSans-72" transform="translate(46.333984 0)"/>
     <use xlink:href="#DejaVuSans-61" transform="translate(87.447266 0)"/>
     <use xlink:href="#DejaVuSans-69" transform="translate(148.726562 0)"/>
     <use xlink:href="#DejaVuSans-6e" transform="translate(176.509766 0)"/>
     <use xlink:href="#DejaVuSans-69" transform="translate(239.888672 0)"/>
     <use xlink:href="#DejaVuSans-75" transform="translate(267.671875 0)"/>
     <use xlink:href="#DejaVuSans-6d" transform="translate(331.050781 0)"/>
     <use xlink:href="#DejaVuSans-33" transform="translate(428.462891 0)"/>
     <use xlink:href="#DejaVuSans-20" transform="translate(492.085938 0)"/>
     <use xlink:href="#DejaVuSans-28" transform="translate(523.873047 0)"/>
     <use xlink:href="#DejaVuSans-41" transform="translate(562.886719 0)"/>
     <use xlink:href="#DejaVuSans-57" transform="translate(625.794922 0)"/>
     <use xlink:href="#DejaVuSans-53" transform="translate(724.671875 0)"/>
     <use xlink:href="#DejaVuSans-29" transform="translate(788.148438 0)"/>
     <use xlink:href="#DejaVuSans-20" transform="translate(827.162109 0)"/>
     <use xlink:href="#DejaVuSans-5b" transform="translate(858.949219 0)"/>
     <use xlink:href="#DejaVuSans-41" transform="translate(897.962891 0)"/>
     <use xlink:href="#DejaVuSans-5d" transform="translate(966.371094 0)"/>
    </g>
   </g>
   <g id="text_24">
    <!-- Maia 200 (Microsoft) -->
    <g transform="translate(218.452535 299.392924) scale(0.08 -0.08)">
     <defs>
      <path id="DejaVuSans-66" d="M 2375 4863 
L 2375 4384 
L 1825 4384 
Q 1516 4384 1395 4259 
Q 1275 4134 1275 3809 
L 1275 3500 
L 2222 3500 
L 2222 3053 
L 1275 3053 
L 1275 0 
L 697 0 
L 697 3053 
L 147 3053 
L 147 3500 
L 697 3500 
L 697 3744 
Q 697 4328 969 4595 
Q 1241 4863 1831 4863 
L 2375 4863 
z
" transform="scale(0.015625)"/>
     </defs>
     <use xlink:href="#DejaVuSans-4d"/>
     <use xlink:href="#DejaVuSans-61" transform="translate(86.279297 0)"/>
     <use xlink:href="#DejaVuSans-69" transform="translate(147.558594 0)"/>
     <use xlink:href="#DejaVuSans-61" transform="translate(175.341797 0)"/>
     <use xlink:href="#DejaVuSans-20" transform="translate(236.621094 0)"/>
     <use xlink:href="#DejaVuSans-32" transform="translate(268.408203 0)"/>
     <use xlink:href="#DejaVuSans-30" transform="translate(332.03125 0)"/>
     <use xlink:href="#DejaVuSans-30" transform="translate(395.654297 0)"/>
     <use xlink:href="#DejaVuSans-20" transform="translate(459.277344 0)"/>
     <use xlink:href="#DejaVuSans-28" transform="translate(491.064453 0)"/>
     <use xlink:href="#DejaVuSans-4d" transform="translate(530.078125 0)"/>
     <use xlink:href="#DejaVuSans-69" transform="translate(616.357422 0)"/>
     <use xlink:href="#DejaVuSans-63" transform="translate(644.140625 0)"/>
     <use xlink:href="#DejaVuSans-72" transform="translate(699.121094 0)"/>
     <use xlink:href="#DejaVuSans-6f" transform="translate(737.984375 0)"/>
     <use xlink:href="#DejaVuSans-73" transform="translate(799.166016 0)"/>
     <use xlink:href="#DejaVuSans-6f" transform="translate(851.265625 0)"/>
     <use xlink:href="#DejaVuSans-66" transform="translate(912.447266 0)"/>
     <use xlink:href="#DejaVuSans-74" transform="translate(945.902344 0)"/>
     <use xlink:href="#DejaVuSans-29" transform="translate(985.111328 0)"/>
    </g>
    <!-- [A/B] -->
    <g transform="translate(218.452535 308.351174) scale(0.08 -0.08)">
     <use xlink:href="#DejaVuSans-5b"/>
     <use xlink:href="#DejaVuSans-41" transform="translate(39.013672 0)"/>
     <use xlink:href="#DejaVuSans-2f" transform="translate(107.421875 0)"/>
     <use xlink:href="#DejaVuSans-42" transform="translate(141.113281 0)"/>
     <use xlink:href="#DejaVuSans-5d" transform="translate(209.716797 0)"/>
    </g>
   </g>
   <g id="text_25">
    <!-- Figure 7.1 — Mid-2026 flagship accelerators: the industry converged on the memory bound -->
    <g transform="translate(111.143289 14.418516) scale(0.095 -0.095)">
     <defs>
      <path id="DejaVuSans-46" d="M 628 4666 
L 3309 4666 
L 3309 4134 
L 1259 4134 
L 1259 2759 
L 3109 2759 
L 3109 2228 
L 1259 2228 
L 1259 0 
L 628 0 
L 628 4666 
z
" transform="scale(0.015625)"/>
      <path id="DejaVuSans-2014" d="M 313 1978 
L 6088 1978 
L 6088 1528 
L 313 1528 
L 313 1978 
z
" transform="scale(0.015625)"/>
      <path id="DejaVuSans-36" d="M 2113 2584 
Q 1688 2584 1439 2293 
Q 1191 2003 1191 1497 
Q 1191 994 1439 701 
Q 1688 409 2113 409 
Q 2538 409 2786 701 
Q 3034 994 3034 1497 
Q 3034 2003 2786 2293 
Q 2538 2584 2113 2584 
z
M 3366 4563 
L 3366 3988 
Q 3128 4100 2886 4159 
Q 2644 4219 2406 4219 
Q 1781 4219 1451 3797 
Q 1122 3375 1075 2522 
Q 1259 2794 1537 2939 
Q 1816 3084 2150 3084 
Q 2853 3084 3261 2657 
Q 3669 2231 3669 1497 
Q 3669 778 3244 343 
Q 2819 -91 2113 -91 
Q 1303 -91 875 529 
Q 447 1150 447 2328 
Q 447 3434 972 4092 
Q 1497 4750 2381 4750 
Q 2619 4750 2861 4703 
Q 3103 4656 3366 4563 
z
" transform="scale(0.015625)"/>
      <path id="DejaVuSans-3a" d="M 750 794 
L 1409 794 
L 1409 0 
L 750 0 
L 750 794 
z
M 750 3309 
L 1409 3309 
L 1409 2516 
L 750 2516 
L 750 3309 
z
" transform="scale(0.015625)"/>
     </defs>
     <use xlink:href="#DejaVuSans-46"/>
     <use xlink:href="#DejaVuSans-69" transform="translate(50.269531 0)"/>
     <use xlink:href="#DejaVuSans-67" transform="translate(78.052734 0)"/>
     <use xlink:href="#DejaVuSans-75" transform="translate(141.529297 0)"/>
     <use xlink:href="#DejaVuSans-72" transform="translate(204.908203 0)"/>
     <use xlink:href="#DejaVuSans-65" transform="translate(243.771484 0)"/>
     <use xlink:href="#DejaVuSans-20" transform="translate(305.294922 0)"/>
     <use xlink:href="#DejaVuSans-37" transform="translate(337.082031 0)"/>
     <use xlink:href="#DejaVuSans-2e" transform="translate(400.705078 0)"/>
     <use xlink:href="#DejaVuSans-31" transform="translate(432.492188 0)"/>
     <use xlink:href="#DejaVuSans-20" transform="translate(496.115234 0)"/>
     <use xlink:href="#DejaVuSans-2014" transform="translate(527.902344 0)"/>
     <use xlink:href="#DejaVuSans-20" transform="translate(627.902344 0)"/>
     <use xlink:href="#DejaVuSans-4d" transform="translate(659.689453 0)"/>
     <use xlink:href="#DejaVuSans-69" transform="translate(745.96875 0)"/>
     <use xlink:href="#DejaVuSans-64" transform="translate(773.751953 0)"/>
     <use xlink:href="#DejaVuSans-2d" transform="translate(837.228516 0)"/>
     <use xlink:href="#DejaVuSans-32" transform="translate(873.3125 0)"/>
     <use xlink:href="#DejaVuSans-30" transform="translate(936.935547 0)"/>
     <use xlink:href="#DejaVuSans-32" transform="translate(1000.558594 0)"/>
     <use xlink:href="#DejaVuSans-36" transform="translate(1064.181641 0)"/>
     <use xlink:href="#DejaVuSans-20" transform="translate(1127.804688 0)"/>
     <use xlink:href="#DejaVuSans-66" transform="translate(1159.591797 0)"/>
     <use xlink:href="#DejaVuSans-6c" transform="translate(1194.796875 0)"/>
     <use xlink:href="#DejaVuSans-61" transform="translate(1222.580078 0)"/>
     <use xlink:href="#DejaVuSans-67" transform="translate(1283.859375 0)"/>
     <use xlink:href="#DejaVuSans-73" transform="translate(1347.335938 0)"/>
     <use xlink:href="#DejaVuSans-68" transform="translate(1399.435547 0)"/>
     <use xlink:href="#DejaVuSans-69" transform="translate(1462.814453 0)"/>
     <use xlink:href="#DejaVuSans-70" transform="translate(1490.597656 0)"/>
     <use xlink:href="#DejaVuSans-20" transform="translate(1554.074219 0)"/>
     <use xlink:href="#DejaVuSans-61" transform="translate(1585.861328 0)"/>
     <use xlink:href="#DejaVuSans-63" transform="translate(1647.140625 0)"/>
     <use xlink:href="#DejaVuSans-63" transform="translate(1702.121094 0)"/>
     <use xlink:href="#DejaVuSans-65" transform="translate(1757.101562 0)"/>
     <use xlink:href="#DejaVuSans-6c" transform="translate(1818.625 0)"/>
     <use xlink:href="#DejaVuSans-65" transform="translate(1846.408203 0)"/>
     <use xlink:href="#DejaVuSans-72" transform="translate(1907.931641 0)"/>
     <use xlink:href="#DejaVuSans-61" transform="translate(1949.044922 0)"/>
     <use xlink:href="#DejaVuSans-74" transform="translate(2010.324219 0)"/>
     <use xlink:href="#DejaVuSans-6f" transform="translate(2049.533203 0)"/>
     <use xlink:href="#DejaVuSans-72" transform="translate(2110.714844 0)"/>
     <use xlink:href="#DejaVuSans-73" transform="translate(2151.828125 0)"/>
     <use xlink:href="#DejaVuSans-3a" transform="translate(2203.927734 0)"/>
     <use xlink:href="#DejaVuSans-20" transform="translate(2237.619141 0)"/>
     <use xlink:href="#DejaVuSans-74" transform="translate(2269.40625 0)"/>
     <use xlink:href="#DejaVuSans-68" transform="translate(2308.615234 0)"/>
     <use xlink:href="#DejaVuSans-65" transform="translate(2371.994141 0)"/>
     <use xlink:href="#DejaVuSans-20" transform="translate(2433.517578 0)"/>
     <use xlink:href="#DejaVuSans-69" transform="translate(2465.304688 0)"/>
     <use xlink:href="#DejaVuSans-6e" transform="translate(2493.087891 0)"/>
     <use xlink:href="#DejaVuSans-64" transform="translate(2556.466797 0)"/>
     <use xlink:href="#DejaVuSans-75" transform="translate(2619.943359 0)"/>
     <use xlink:href="#DejaVuSans-73" transform="translate(2683.322266 0)"/>
     <use xlink:href="#DejaVuSans-74" transform="translate(2735.421875 0)"/>
     <use xlink:href="#DejaVuSans-72" transform="translate(2774.630859 0)"/>
     <use xlink:href="#DejaVuSans-79" transform="translate(2815.744141 0)"/>
     <use xlink:href="#DejaVuSans-20" transform="translate(2874.923828 0)"/>
     <use xlink:href="#DejaVuSans-63" transform="translate(2906.710938 0)"/>
     <use xlink:href="#DejaVuSans-6f" transform="translate(2961.691406 0)"/>
     <use xlink:href="#DejaVuSans-6e" transform="translate(3022.873047 0)"/>
     <use xlink:href="#DejaVuSans-76" transform="translate(3086.251953 0)"/>
     <use xlink:href="#DejaVuSans-65" transform="translate(3145.431641 0)"/>
     <use xlink:href="#DejaVuSans-72" transform="translate(3206.955078 0)"/>
     <use xlink:href="#DejaVuSans-67" transform="translate(3246.318359 0)"/>
     <use xlink:href="#DejaVuSans-65" transform="translate(3309.794922 0)"/>
     <use xlink:href="#DejaVuSans-64" transform="translate(3371.318359 0)"/>
     <use xlink:href="#DejaVuSans-20" transform="translate(3434.794922 0)"/>
     <use xlink:href="#DejaVuSans-6f" transform="translate(3466.582031 0)"/>
     <use xlink:href="#DejaVuSans-6e" transform="translate(3527.763672 0)"/>
     <use xlink:href="#DejaVuSans-20" transform="translate(3591.142578 0)"/>
     <use xlink:href="#DejaVuSans-74" transform="translate(3622.929688 0)"/>
     <use xlink:href="#DejaVuSans-68" transform="translate(3662.138672 0)"/>
     <use xlink:href="#DejaVuSans-65" transform="translate(3725.517578 0)"/>
     <use xlink:href="#DejaVuSans-20" transform="translate(3787.041016 0)"/>
     <use xlink:href="#DejaVuSans-6d" transform="translate(3818.828125 0)"/>
     <use xlink:href="#DejaVuSans-65" transform="translate(3916.240234 0)"/>
     <use xlink:href="#DejaVuSans-6d" transform="translate(3977.763672 0)"/>
     <use xlink:href="#DejaVuSans-6f" transform="translate(4075.175781 0)"/>
     <use xlink:href="#DejaVuSans-72" transform="translate(4136.357422 0)"/>
     <use xlink:href="#DejaVuSans-79" transform="translate(4177.470703 0)"/>
     <use xlink:href="#DejaVuSans-20" transform="translate(4236.650391 0)"/>
     <use xlink:href="#DejaVuSans-62" transform="translate(4268.4375 0)"/>
     <use xlink:href="#DejaVuSans-6f" transform="translate(4331.914062 0)"/>
     <use xlink:href="#DejaVuSans-75" transform="translate(4393.095703 0)"/>
     <use xlink:href="#DejaVuSans-6e" transform="translate(4456.474609 0)"/>
     <use xlink:href="#DejaVuSans-64" transform="translate(4519.853516 0)"/>
    </g>
    <!-- (per-package vendor figures; ^ = announced, not shipping; evidence classes in brackets) -->
    <g transform="translate(115.880672 25.056437) scale(0.095 -0.095)">
     <defs>
      <path id="DejaVuSans-3b" d="M 750 3309 
L 1409 3309 
L 1409 2516 
L 750 2516 
L 750 3309 
z
M 750 794 
L 1409 794 
L 1409 256 
L 897 -744 
L 494 -744 
L 750 256 
L 750 794 
z
" transform="scale(0.015625)"/>
      <path id="DejaVuSans-5e" d="M 2988 4666 
L 4684 2925 
L 4056 2925 
L 2681 4159 
L 1306 2925 
L 678 2925 
L 2375 4666 
L 2988 4666 
z
" transform="scale(0.015625)"/>
      <path id="DejaVuSans-3d" d="M 678 2906 
L 4684 2906 
L 4684 2381 
L 678 2381 
L 678 2906 
z
M 678 1631 
L 4684 1631 
L 4684 1100 
L 678 1100 
L 678 1631 
z
" transform="scale(0.015625)"/>
     </defs>
     <use xlink:href="#DejaVuSans-28"/>
     <use xlink:href="#DejaVuSans-70" transform="translate(39.013672 0)"/>
     <use xlink:href="#DejaVuSans-65" transform="translate(102.490234 0)"/>
     <use xlink:href="#DejaVuSans-72" transform="translate(164.013672 0)"/>
     <use xlink:href="#DejaVuSans-2d" transform="translate(198.751953 0)"/>
     <use xlink:href="#DejaVuSans-70" transform="translate(234.835938 0)"/>
     <use xlink:href="#DejaVuSans-61" transform="translate(298.3125 0)"/>
     <use xlink:href="#DejaVuSans-63" transform="translate(359.591797 0)"/>
     <use xlink:href="#DejaVuSans-6b" transform="translate(414.572266 0)"/>
     <use xlink:href="#DejaVuSans-61" transform="translate(470.732422 0)"/>
     <use xlink:href="#DejaVuSans-67" transform="translate(532.011719 0)"/>
     <use xlink:href="#DejaVuSans-65" transform="translate(595.488281 0)"/>
     <use xlink:href="#DejaVuSans-20" transform="translate(657.011719 0)"/>
     <use xlink:href="#DejaVuSans-76" transform="translate(688.798828 0)"/>
     <use xlink:href="#DejaVuSans-65" transform="translate(747.978516 0)"/>
     <use xlink:href="#DejaVuSans-6e" transform="translate(809.501953 0)"/>
     <use xlink:href="#DejaVuSans-64" transform="translate(872.880859 0)"/>
     <use xlink:href="#DejaVuSans-6f" transform="translate(936.357422 0)"/>
     <use xlink:href="#DejaVuSans-72" transform="translate(997.539062 0)"/>
     <use xlink:href="#DejaVuSans-20" transform="translate(1038.652344 0)"/>
     <use xlink:href="#DejaVuSans-66" transform="translate(1070.439453 0)"/>
     <use xlink:href="#DejaVuSans-69" transform="translate(1105.644531 0)"/>
     <use xlink:href="#DejaVuSans-67" transform="translate(1133.427734 0)"/>
     <use xlink:href="#DejaVuSans-75" transform="translate(1196.904297 0)"/>
     <use xlink:href="#DejaVuSans-72" transform="translate(1260.283203 0)"/>
     <use xlink:href="#DejaVuSans-65" transform="translate(1299.146484 0)"/>
     <use xlink:href="#DejaVuSans-73" transform="translate(1360.669922 0)"/>
     <use xlink:href="#DejaVuSans-3b" transform="translate(1412.769531 0)"/>
     <use xlink:href="#DejaVuSans-20" transform="translate(1446.460938 0)"/>
     <use xlink:href="#DejaVuSans-5e" transform="translate(1478.248047 0)"/>
     <use xlink:href="#DejaVuSans-20" transform="translate(1562.037109 0)"/>
     <use xlink:href="#DejaVuSans-3d" transform="translate(1593.824219 0)"/>
     <use xlink:href="#DejaVuSans-20" transform="translate(1677.613281 0)"/>
     <use xlink:href="#DejaVuSans-61" transform="translate(1709.400391 0)"/>
     <use xlink:href="#DejaVuSans-6e" transform="translate(1770.679688 0)"/>
     <use xlink:href="#DejaVuSans-6e" transform="translate(1834.058594 0)"/>
     <use xlink:href="#DejaVuSans-6f" transform="translate(1897.4375 0)"/>
     <use xlink:href="#DejaVuSans-75" transform="translate(1958.619141 0)"/>
     <use xlink:href="#DejaVuSans-6e" transform="translate(2021.998047 0)"/>
     <use xlink:href="#DejaVuSans-63" transform="translate(2085.376953 0)"/>
     <use xlink:href="#DejaVuSans-65" transform="translate(2140.357422 0)"/>
     <use xlink:href="#DejaVuSans-64" transform="translate(2201.880859 0)"/>
     <use xlink:href="#DejaVuSans-2c" transform="translate(2265.357422 0)"/>
     <use xlink:href="#DejaVuSans-20" transform="translate(2297.144531 0)"/>
     <use xlink:href="#DejaVuSans-6e" transform="translate(2328.931641 0)"/>
     <use xlink:href="#DejaVuSans-6f" transform="translate(2392.310547 0)"/>
     <use xlink:href="#DejaVuSans-74" transform="translate(2453.492188 0)"/>
     <use xlink:href="#DejaVuSans-20" transform="translate(2492.701172 0)"/>
     <use xlink:href="#DejaVuSans-73" transform="translate(2524.488281 0)"/>
     <use xlink:href="#DejaVuSans-68" transform="translate(2576.587891 0)"/>
     <use xlink:href="#DejaVuSans-69" transform="translate(2639.966797 0)"/>
     <use xlink:href="#DejaVuSans-70" transform="translate(2667.75 0)"/>
     <use xlink:href="#DejaVuSans-70" transform="translate(2731.226562 0)"/>
     <use xlink:href="#DejaVuSans-69" transform="translate(2794.703125 0)"/>
     <use xlink:href="#DejaVuSans-6e" transform="translate(2822.486328 0)"/>
     <use xlink:href="#DejaVuSans-67" transform="translate(2885.865234 0)"/>
     <use xlink:href="#DejaVuSans-3b" transform="translate(2949.341797 0)"/>
     <use xlink:href="#DejaVuSans-20" transform="translate(2983.033203 0)"/>
     <use xlink:href="#DejaVuSans-65" transform="translate(3014.820312 0)"/>
     <use xlink:href="#DejaVuSans-76" transform="translate(3076.34375 0)"/>
     <use xlink:href="#DejaVuSans-69" transform="translate(3135.523438 0)"/>
     <use xlink:href="#DejaVuSans-64" transform="translate(3163.306641 0)"/>
     <use xlink:href="#DejaVuSans-65" transform="translate(3226.783203 0)"/>
     <use xlink:href="#DejaVuSans-6e" transform="translate(3288.306641 0)"/>
     <use xlink:href="#DejaVuSans-63" transform="translate(3351.685547 0)"/>
     <use xlink:href="#DejaVuSans-65" transform="translate(3406.666016 0)"/>
     <use xlink:href="#DejaVuSans-20" transform="translate(3468.189453 0)"/>
     <use xlink:href="#DejaVuSans-63" transform="translate(3499.976562 0)"/>
     <use xlink:href="#DejaVuSans-6c" transform="translate(3554.957031 0)"/>
     <use xlink:href="#DejaVuSans-61" transform="translate(3582.740234 0)"/>
     <use xlink:href="#DejaVuSans-73" transform="translate(3644.019531 0)"/>
     <use xlink:href="#DejaVuSans-73" transform="translate(3696.119141 0)"/>
     <use xlink:href="#DejaVuSans-65" transform="translate(3748.21875 0)"/>
     <use xlink:href="#DejaVuSans-73" transform="translate(3809.742188 0)"/>
     <use xlink:href="#DejaVuSans-20" transform="translate(3861.841797 0)"/>
     <use xlink:href="#DejaVuSans-69" transform="translate(3893.628906 0)"/>
     <use xlink:href="#DejaVuSans-6e" transform="translate(3921.412109 0)"/>
     <use xlink:href="#DejaVuSans-20" transform="translate(3984.791016 0)"/>
     <use xlink:href="#DejaVuSans-62" transform="translate(4016.578125 0)"/>
     <use xlink:href="#DejaVuSans-72" transform="translate(4080.054688 0)"/>
     <use xlink:href="#DejaVuSans-61" transform="translate(4121.167969 0)"/>
     <use xlink:href="#DejaVuSans-63" transform="translate(4182.447266 0)"/>
     <use xlink:href="#DejaVuSans-6b" transform="translate(4237.427734 0)"/>
     <use xlink:href="#DejaVuSans-65" transform="translate(4291.712891 0)"/>
     <use xlink:href="#DejaVuSans-74" transform="translate(4353.236328 0)"/>
     <use xlink:href="#DejaVuSans-73" transform="translate(4392.445312 0)"/>
     <use xlink:href="#DejaVuSans-29" transform="translate(4444.544922 0)"/>
    </g>
   </g>
   <g id="PathCollection_1">
    <defs>
     <path id="maf702cd6de" d="M 0 4.743416 
C 1.257969 4.743416 2.464584 4.24362 3.354102 3.354102 
C 4.24362 2.464584 4.743416 1.257969 4.743416 0 
C 4.743416 -1.257969 4.24362 -2.464584 3.354102 -3.354102 
C 2.464584 -4.24362 1.257969 -4.743416 0 -4.743416 
C -1.257969 -4.743416 -2.464584 -4.24362 -3.354102 -3.354102 
C -4.24362 -2.464584 -4.743416 -1.257969 -4.743416 0 
C -4.743416 1.257969 -4.24362 2.464584 -3.354102 3.354102 
C -2.464584 4.24362 -1.257969 4.743416 0 4.743416 
z
" style="stroke: #555555"/>
    </defs>
    <g clip-path="url(#paffe03f6c5)">
     <use xlink:href="#maf702cd6de" x="311.937255" y="295.464859" style="fill: #555555; stroke: #555555"/>
    </g>
   </g>
   <g id="PathCollection_2">
    <defs>
     <path id="m996bdcf168" d="M -4.743416 4.743416 
L 4.743416 4.743416 
L 4.743416 -4.743416 
L -4.743416 -4.743416 
z
" style="stroke: #b03a2e"/>
    </defs>
    <g clip-path="url(#paffe03f6c5)">
     <use xlink:href="#m996bdcf168" x="311.937255" y="295.464859" style="fill: #b03a2e; stroke: #b03a2e"/>
    </g>
   </g>
   <g id="PathCollection_3">
    <defs>
     <path id="m139ca564f8" d="M 0 -4.743416 
L -4.743416 4.743416 
L 4.743416 4.743416 
z
" style="stroke: #b03a2e"/>
    </defs>
    <g clip-path="url(#paffe03f6c5)">
     <use xlink:href="#m139ca564f8" x="514.906695" y="76.383595" style="fill: #b03a2e; stroke: #b03a2e"/>
    </g>
   </g>
   <g id="PathCollection_4">
    <defs>
     <path id="me2710e3eef" d="M 0 4.743416 
C 1.257969 4.743416 2.464584 4.24362 3.354102 3.354102 
C 4.24362 2.464584 4.743416 1.257969 4.743416 0 
C 4.743416 -1.257969 4.24362 -2.464584 3.354102 -3.354102 
C 2.464584 -4.24362 1.257969 -4.743416 0 -4.743416 
C -1.257969 -4.743416 -2.464584 -4.24362 -3.354102 -3.354102 
C -4.24362 -2.464584 -4.743416 -1.257969 -4.743416 0 
C -4.743416 1.257969 -4.24362 2.464584 -3.354102 3.354102 
C -2.464584 4.24362 -1.257969 4.743416 0 4.743416 
z
" style="stroke: #1a6a9a"/>
    </defs>
    <g clip-path="url(#paffe03f6c5)">
     <use xlink:href="#me2710e3eef" x="176.624295" y="307.363237" style="fill: #1a6a9a; stroke: #1a6a9a"/>
    </g>
   </g>
   <g id="PathCollection_5">
    <defs>
     <path id="mcfa2708a03" d="M 0 4.743416 
C 1.257969 4.743416 2.464584 4.24362 3.354102 3.354102 
C 4.24362 2.464584 4.743416 1.257969 4.743416 0 
C 4.743416 -1.257969 4.24362 -2.464584 3.354102 -3.354102 
C 2.464584 -4.24362 1.257969 -4.743416 0 -4.743416 
C -1.257969 -4.743416 -2.464584 -4.24362 -3.354102 -3.354102 
C -4.24362 -2.464584 -4.743416 -1.257969 -4.743416 0 
C -4.743416 1.257969 -4.24362 2.464584 -3.354102 3.354102 
C -2.464584 4.24362 -1.257969 4.743416 0 4.743416 
z
" style="stroke: #1e8449"/>
    </defs>
    <g clip-path="url(#paffe03f6c5)">
     <use xlink:href="#mcfa2708a03" x="108.967815" y="354.012437" style="fill: #1e8449; stroke: #1e8449"/>
    </g>
   </g>
   <g id="PathCollection_6">
    <defs>
     <path id="m655d06bc27" d="M 0 4.743416 
C 1.257969 4.743416 2.464584 4.24362 3.354102 3.354102 
C 4.24362 2.464584 4.743416 1.257969 4.743416 0 
C 4.743416 -1.257969 4.24362 -2.464584 3.354102 -3.354102 
C 2.464584 -4.24362 1.257969 -4.743416 0 -4.743416 
C -1.257969 -4.743416 -2.464584 -4.24362 -3.354102 -3.354102 
C -4.24362 -2.464584 -4.743416 -1.257969 -4.743416 0 
C -4.743416 1.257969 -4.24362 2.464584 -3.354102 3.354102 
C -2.464584 4.24362 -1.257969 4.743416 0 4.743416 
z
" style="stroke: #6c3483"/>
    </defs>
    <g clip-path="url(#paffe03f6c5)">
     <use xlink:href="#m655d06bc27" x="210.452535" y="314.351174" style="fill: #6c3483; stroke: #6c3483"/>
    </g>
   </g>
  </g>
 </g>
 <defs>
  <clipPath id="paffe03f6c5">
   <rect x="46.949375" y="31.056437" width="563.804" height="358.84"/>
  </clipPath>
 </defs>
</svg>
